SplineFontDB: 3.0
FontName: NimbusMonL-ReguObli
FullName: Nimbus Mono L Regular Oblique
FamilyName: Nimbus Mono L
Weight: Book
Copyright: Copyright (URW)++,Copyright 1999 by (URW)++ Design & Development; Cyrillic glyphs added by Valek Filippov (C) 2001
Version: 1.06
ItalicAngle: -12
UnderlinePosition: -150
UnderlineWidth: 50
Ascent: 800
Descent: 200
LayerCount: 2
Layer: 0 1 "Back" 
Layer: 1 1 "Fore" 
NeedsXUIDChange: 1
XUID: [1021 548 848922286 4290207]
FSType: 0
OS2Version: 1
OS2_WeightWidthSlopeOnly: 0
OS2_UseTypoMetrics: 1
CreationTime: 1202696994
ModificationTime: 1214462368
PfmFamily: 17
TTFWeight: 400
TTFWidth: 5
LineGap: 90
VLineGap: 0
Panose: 2 0 5 3 0 0 0 0 0 0
OS2TypoAscent: 0
OS2TypoAOffset: 1
OS2TypoDescent: 0
OS2TypoDOffset: 1
OS2TypoLinegap: 90
OS2WinAscent: 0
OS2WinAOffset: 1
OS2WinDescent: 0
OS2WinDOffset: 1
HheadAscent: 0
HheadAOffset: 1
HheadDescent: 0
HheadDOffset: 1
OS2SubXSize: 650
OS2SubYSize: 700
OS2SubXOff: 29
OS2SubYOff: 140
OS2SupXSize: 650
OS2SupYSize: 700
OS2SupXOff: -99
OS2SupYOff: 480
OS2StrikeYSize: 49
OS2StrikeYPos: 258
OS2Vendor: 'PfEd'
OS2CodePages: 20000097.0fd60000
OS2UnicodeRanges: 800002af.5000204a.00000000.00000000
Lookup: 4 0 1 "'liga' Standard Ligatures in Latin lookup 0"  {"'liga' Standard Ligatures in Latin lookup 0 subtable"  } ['liga' ('latn' <'dflt' > ) ]
DEI: 0
ShortTable: maxp 16
  1
  0
  562
  226
  7
  95
  4
  2
  0
  1
  1
  0
  64
  0
  2
  1
EndShort
LangName: 1033 "" "" "" "FontForge 2.0 : Nimbus Mono L Regular Oblique : 4-6-2008" 
GaspTable: 1 65535 2
Encoding: UnicodeBmp
UnicodeInterp: none
NameList: Adobe Glyph List
DisplaySize: -36
AntiAlias: 1
FitToEm: 1
WinInfo: 315 21 14
BeginChars: 65550 637

StartChar: exclam
Encoding: 33 33 4
Width: 600
GlyphClass: 2
Flags: W
LayerCount: 2
Fore
SplineSet
458 563 m 2,0,-1
 370 237 l 2,1,2
 363 209 363 209 343 209 c 0,3,4
 337 209 337 209 332.5 213.5 c 128,-1,5
 328 218 328 218 328 224 c 0,6,7
 328 231 328 231 329 237 c 2,8,-1
 380 563 l 2,9,10
 389 618 389 618 431 618 c 0,11,12
 445 618 445 618 454 610 c 128,-1,13
 463 602 463 602 463 589 c 0,14,15
 463 583 463 583 458 563 c 2,0,-1
311 85 m 2,16,-1
 323 85 l 2,17,18
 343 85 343 85 355.5 74 c 128,-1,19
 368 63 368 63 368 45 c 0,20,21
 368 21 368 21 348 3 c 128,-1,22
 328 -15 328 -15 302 -15 c 2,23,-1
 290 -15 l 2,24,25
 271 -15 271 -15 258.5 -4 c 128,-1,26
 246 7 246 7 246 24 c 0,27,28
 246 49 246 49 265.5 67 c 128,-1,29
 285 85 285 85 311 85 c 2,16,-1
EndSplineSet
EndChar

StartChar: quotedbl
Encoding: 34 34 5
Width: 600
GlyphClass: 2
Flags: W
LayerCount: 2
Fore
SplineSet
274 604 m 1,0,-1
 402 604 l 1,1,-1
 315 351 l 2,2,3
 302 315 302 315 277 315 c 0,4,5
 254 315 254 315 254 341 c 2,6,-1
 254 351 l 1,7,-1
 274 604 l 1,0,-1
454 604 m 1,8,-1
 582 604 l 1,9,-1
 495 351 l 2,10,11
 482 315 482 315 457 315 c 0,12,13
 434 315 434 315 434 341 c 2,14,-1
 434 351 l 1,15,-1
 454 604 l 1,8,-1
EndSplineSet
EndChar

StartChar: numbersign
Encoding: 35 35 6
Width: 600
GlyphClass: 2
Flags: W
LayerCount: 2
Fore
SplineSet
466 356 m 1,0,-1
 430 230 l 1,1,-1
 510 230 l 2,2,3
 534 230 534 230 534 214 c 0,4,5
 534 189 534 189 501 189 c 2,6,-1
 419 189 l 1,7,-1
 355 -36 l 2,8,9
 348 -62 348 -62 329 -62 c 0,10,11
 313 -62 313 -62 313 -46 c 0,12,13
 313 -45 313 -45 315 -33 c 2,14,-1
 378 189 l 1,15,-1
 287 189 l 1,16,-1
 224 -36 l 2,17,18
 217 -62 217 -62 197 -62 c 0,19,20
 181 -62 181 -62 181 -46 c 0,21,22
 181 -43 181 -43 184 -33 c 2,23,-1
 247 189 l 1,24,-1
 160 189 l 2,25,26
 137 189 137 189 137 205 c 0,27,28
 137 230 137 230 169 230 c 2,29,-1
 258 230 l 1,30,-1
 294 356 l 1,31,-1
 216 356 l 2,32,33
 192 356 192 356 192 372 c 0,34,35
 192 397 192 397 225 397 c 2,36,-1
 305 397 l 1,37,-1
 369 622 l 2,38,39
 376 647 376 647 395 647 c 0,40,41
 402 647 402 647 406.5 642.5 c 128,-1,42
 411 638 411 638 411 632 c 0,43,44
 411 627 411 627 409 619 c 2,45,-1
 346 397 l 1,46,-1
 437 397 l 1,47,-1
 500 622 l 2,48,49
 507 647 507 647 526 647 c 0,50,51
 543 647 543 647 543 632 c 0,52,53
 543 629 543 629 540 619 c 2,54,-1
 477 397 l 1,55,-1
 566 397 l 2,56,57
 589 397 589 397 589 381 c 0,58,59
 589 356 589 356 557 356 c 2,60,-1
 466 356 l 1,0,-1
425 356 m 1,61,-1
 334 356 l 1,62,-1
 299 230 l 1,63,-1
 390 230 l 1,64,-1
 425 356 l 1,61,-1
EndSplineSet
EndChar

StartChar: dollar
Encoding: 36 36 7
Width: 600
GlyphClass: 2
Flags: W
LayerCount: 2
Fore
SplineSet
403 576 m 1,0,-1
 414 628 l 2,1,2
 420 655 420 655 440 655 c 0,3,4
 456 655 456 655 456 639 c 2,5,-1
 455 628 l 1,6,-1
 444 576 l 1,7,8
 476 573 476 573 495.5 564 c 128,-1,9
 515 555 515 555 539 534 c 1,10,11
 547 563 547 563 566 563 c 0,12,13
 573 563 573 563 577.5 558.5 c 128,-1,14
 582 554 582 554 582 548 c 0,15,16
 582 543 582 543 580 536 c 2,17,-1
 567 476 l 2,18,19
 562 448 562 448 542 448 c 0,20,21
 532 448 532 448 525 461 c 1,22,-1
 527 485 l 2,23,24
 527 489 527 489 515 501 c 128,-1,25
 503 513 503 513 493 520 c 0,26,27
 459 539 459 539 416 539 c 0,28,29
 361 539 361 539 314 501 c 128,-1,30
 267 463 267 463 267 418 c 0,31,32
 267 388 267 388 291 371 c 0,33,34
 313 357 313 357 385 342 c 0,35,36
 474 325 474 325 502 301 c 0,37,38
 534 276 534 276 534 232 c 0,39,40
 534 163 534 163 477.5 113 c 128,-1,41
 421 63 421 63 333 54 c 1,42,-1
 307 -65 l 2,43,44
 301 -92 301 -92 281 -92 c 0,45,46
 265 -92 265 -92 265 -76 c 2,47,-1
 266 -65 l 1,48,-1
 292 54 l 1,49,50
 257 56 257 56 224.5 71 c 128,-1,51
 192 86 192 86 177 108 c 1,52,-1
 173 92 l 2,53,54
 167 65 167 65 147 65 c 0,55,56
 141 65 141 65 136 69.5 c 128,-1,57
 131 74 131 74 131 80 c 0,58,59
 131 84 131 84 133 92 c 2,60,-1
 149 171 l 2,61,62
 156 199 156 199 176 199 c 0,63,64
 184 199 184 199 192 187 c 1,65,-1
 189 155 l 2,66,67
 189 152 189 152 204 136.5 c 128,-1,68
 219 121 219 121 229 114 c 0,69,70
 259 92 259 92 320 92 c 0,71,72
 389 92 389 92 440.5 130 c 128,-1,73
 492 168 492 168 492 220 c 0,74,75
 492 252 492 252 466 271 c 0,76,77
 453 281 453 281 435.5 286.5 c 128,-1,78
 418 292 418 292 366 303 c 0,79,80
 285 319 285 319 256 341 c 0,81,82
 225 367 225 367 225 409 c 0,83,84
 225 469 225 469 277.5 518.5 c 128,-1,85
 330 568 330 568 403 576 c 1,0,-1
EndSplineSet
EndChar

StartChar: percent
Encoding: 37 37 8
Width: 600
GlyphClass: 2
Flags: W
LayerCount: 2
Fore
SplineSet
412 236 m 0,0,1
 456 236 456 236 483.5 208.5 c 128,-1,2
 511 181 511 181 511 137 c 0,3,4
 511 80 511 80 464 34 c 128,-1,5
 417 -12 417 -12 358 -12 c 0,6,7
 316 -12 316 -12 288 16 c 128,-1,8
 260 44 260 44 260 86 c 0,9,10
 260 144 260 144 306.5 190 c 128,-1,11
 353 236 353 236 412 236 c 0,0,1
403 198 m 0,12,13
 363 198 363 198 331 166 c 128,-1,14
 299 134 299 134 299 94 c 0,15,16
 299 65 299 65 318 45.5 c 128,-1,17
 337 26 337 26 366 26 c 0,18,19
 407 26 407 26 439.5 58 c 128,-1,20
 472 90 472 90 472 131 c 0,21,22
 472 160 472 160 453 179 c 128,-1,23
 434 198 434 198 403 198 c 0,12,13
367 611 m 0,24,25
 411 611 411 611 439 583.5 c 128,-1,26
 467 556 467 556 467 512 c 0,27,28
 467 455 467 455 420 409 c 128,-1,29
 373 363 373 363 314 363 c 0,30,31
 271 363 271 363 243.5 391 c 128,-1,32
 216 419 216 419 216 462 c 0,33,34
 216 519 216 519 262.5 565 c 128,-1,35
 309 611 309 611 367 611 c 0,24,25
360 573 m 0,36,37
 320 573 320 573 287.5 541 c 128,-1,38
 255 509 255 509 255 469 c 0,39,40
 255 440 255 440 274 420.5 c 128,-1,41
 293 401 293 401 322 401 c 0,42,43
 363 401 363 401 395.5 433 c 128,-1,44
 428 465 428 465 428 505 c 0,45,46
 428 535 428 535 409 554 c 128,-1,47
 390 573 390 573 360 573 c 0,36,37
569 344 m 2,48,-1
 163 222 l 2,49,50
 159 220 159 220 151 220 c 0,51,52
 137 220 137 220 137 235 c 128,-1,53
 137 250 137 250 159 258 c 2,54,-1
 565 380 l 2,55,56
 575 382 575 382 578 382 c 0,57,58
 591 382 591 382 591 367 c 0,59,60
 591 350 591 350 569 344 c 2,48,-1
EndSplineSet
EndChar

StartChar: ampersand
Encoding: 38 38 9
Width: 600
GlyphClass: 2
Flags: W
LayerCount: 2
Fore
SplineSet
393 0 m 1,0,-1
 372 48 l 1,1,2
 315 -16 315 -16 247 -16 c 0,3,4
 198 -16 198 -16 165 19.5 c 128,-1,5
 132 55 132 55 132 108 c 0,6,7
 132 169 132 169 172.5 219 c 128,-1,8
 213 269 213 269 277 287 c 1,9,10
 249 358 249 358 249 379 c 0,11,12
 249 432 249 432 296 475.5 c 128,-1,13
 343 519 343 519 399 519 c 0,14,15
 434 519 434 519 461 499 c 1,16,-1
 472 505 l 2,17,18
 484 510 484 510 490 510 c 128,-1,19
 496 510 496 510 500.5 505 c 128,-1,20
 505 500 505 500 505 494 c 0,21,22
 505 479 505 479 483 468 c 2,23,-1
 448 452 l 1,24,25
 423 478 423 478 391 478 c 0,26,27
 354 478 354 478 322 447.5 c 128,-1,28
 290 417 290 417 290 381 c 0,29,30
 290 356 290 356 314 298 c 2,31,-1
 388 121 l 1,32,33
 429 175 429 175 461 249 c 1,34,-1
 504 249 l 2,35,36
 527 249 527 249 527 233 c 0,37,38
 527 208 527 208 495 208 c 2,39,-1
 483 208 l 1,40,41
 443 125 443 125 403 82 c 1,42,-1
 422 41 l 1,43,-1
 460 41 l 2,44,45
 483 41 483 41 483 25 c 0,46,47
 483 14 483 14 474 7 c 128,-1,48
 465 0 465 0 451 0 c 2,49,-1
 393 0 l 1,0,-1
357 86 m 1,50,-1
 287 251 l 1,51,52
 238 240 238 240 206 202 c 128,-1,53
 174 164 174 164 174 116 c 0,54,55
 174 78 174 78 197.5 51.5 c 128,-1,56
 221 25 221 25 255 25 c 0,57,58
 309 25 309 25 357 86 c 1,50,-1
EndSplineSet
EndChar

StartChar: quoteright
Encoding: 8217 8217 10
Width: 600
GlyphClass: 2
Flags: W
LayerCount: 2
Fore
SplineSet
335 604 m 1,0,-1
 468 604 l 1,1,-1
 267 339 l 2,2,3
 247 314 247 314 230 314 c 0,4,5
 220 314 220 314 213.5 320.5 c 128,-1,6
 207 327 207 327 207 337 c 0,7,8
 207 344 207 344 212 354 c 2,9,-1
 335 604 l 1,0,-1
EndSplineSet
EndChar

StartChar: parenleft
Encoding: 40 40 11
Width: 600
GlyphClass: 2
Flags: W
LayerCount: 2
Fore
SplineSet
566 604 m 0,0,1
 583 604 583 604 583 588 c 0,2,3
 583 581 583 581 572 567 c 0,4,5
 480 446 480 446 437 339.5 c 128,-1,6
 394 233 394 233 394 124 c 0,7,8
 394 26 394 26 435 -93 c 0,9,10
 437 -99 437 -99 437 -101 c 0,11,12
 437 -109 437 -109 429 -116.5 c 128,-1,13
 421 -124 421 -124 411 -124 c 0,14,15
 402 -124 402 -124 398 -115 c 0,16,17
 377 -81 377 -81 354 4 c 0,18,19
 335 72 335 72 335 138 c 0,20,21
 335 236 335 236 372 328 c 128,-1,22
 409 420 409 420 493 530 c 0,23,24
 526 573 526 573 541 588.5 c 128,-1,25
 556 604 556 604 566 604 c 0,0,1
EndSplineSet
EndChar

StartChar: parenright
Encoding: 41 41 12
Width: 600
GlyphClass: 2
Flags: W
LayerCount: 2
Fore
SplineSet
296 604 m 0,0,1
 304 604 304 604 309 595 c 0,2,3
 336 549 336 549 354 475.5 c 128,-1,4
 372 402 372 402 372 342 c 0,5,6
 372 244 372 244 335 152 c 128,-1,7
 298 60 298 60 214 -50 c 0,8,9
 183 -92 183 -92 167 -108 c 128,-1,10
 151 -124 151 -124 141 -124 c 0,11,12
 124 -124 124 -124 124 -108 c 0,13,14
 124 -100 124 -100 130 -93 c 0,15,16
 225 29 225 29 269 137 c 128,-1,17
 313 245 313 245 313 356 c 0,18,19
 313 454 313 454 272 573 c 0,20,21
 270 579 270 579 270 581 c 0,22,23
 270 589 270 589 278 596.5 c 128,-1,24
 286 604 286 604 296 604 c 0,0,1
EndSplineSet
EndChar

StartChar: asterisk
Encoding: 42 42 13
Width: 600
GlyphClass: 2
Flags: W
LayerCount: 2
Fore
SplineSet
372 438 m 1,0,-1
 402 577 l 2,1,2
 408 604 408 604 428 604 c 0,3,4
 435 604 435 604 439.5 599.5 c 128,-1,5
 444 595 444 595 444 589 c 2,6,-1
 443 577 l 1,7,-1
 413 438 l 1,8,-1
 556 481 l 2,9,10
 564 484 564 484 571 484 c 0,11,12
 577 484 577 484 581.5 479 c 128,-1,13
 586 474 586 474 586 468 c 0,14,15
 586 451 586 451 560 442 c 2,16,-1
 417 400 l 1,17,-1
 475 288 l 2,18,19
 479 280 479 280 479 273 c 0,20,21
 479 265 479 265 471 257.5 c 128,-1,22
 463 250 463 250 454 250 c 128,-1,23
 445 250 445 250 437 264 c 2,24,-1
 379 376 l 1,25,-1
 274 264 l 2,26,27
 260 250 260 250 251 250 c 0,28,29
 234 250 234 250 234 266 c 0,30,31
 234 274 234 274 246 288 c 2,32,-1
 351 400 l 1,33,-1
 227 442 l 1,34,-1
 224 443 l 1,35,36
 211 445 211 445 211 458 c 0,37,38
 211 468 211 468 218.5 475.5 c 128,-1,39
 226 483 226 483 236 483 c 0,40,41
 241 483 241 483 249 480 c 2,42,-1
 372 438 l 1,0,-1
EndSplineSet
EndChar

StartChar: plus
Encoding: 43 43 14
Width: 600
GlyphClass: 2
Flags: W
LayerCount: 2
Fore
SplineSet
375 261 m 1,0,-1
 332 59 l 2,1,2
 326 32 326 32 306 32 c 0,3,4
 299 32 299 32 294.5 36.5 c 128,-1,5
 290 41 290 41 290 47 c 2,6,-1
 291 59 l 1,7,-1
 334 261 l 1,8,-1
 154 261 l 2,9,10
 131 261 131 261 131 277 c 0,11,12
 131 302 131 302 162 302 c 2,13,-1
 343 302 l 1,14,-1
 386 503 l 2,15,16
 390 530 390 530 412 530 c 0,17,18
 428 530 428 530 428 514 c 2,19,-1
 427 503 l 1,20,-1
 384 302 l 1,21,-1
 564 302 l 2,22,23
 588 302 588 302 588 286 c 0,24,25
 588 275 588 275 579 268 c 128,-1,26
 570 261 570 261 556 261 c 2,27,-1
 375 261 l 1,0,-1
EndSplineSet
EndChar

StartChar: comma
Encoding: 44 44 15
Width: 600
GlyphClass: 2
Flags: W
LayerCount: 2
Fore
SplineSet
238 145 m 1,0,-1
 371 145 l 1,1,-1
 170 -120 l 2,2,3
 150 -145 150 -145 133 -145 c 0,4,5
 123 -145 123 -145 116.5 -138.5 c 128,-1,6
 110 -132 110 -132 110 -122 c 0,7,8
 110 -115 110 -115 115 -105 c 2,9,-1
 238 145 l 1,0,-1
EndSplineSet
EndChar

StartChar: hyphen
Encoding: 45 45 16
Width: 600
GlyphClass: 2
Flags: W
LayerCount: 2
Fore
SplineSet
556 258 m 2,0,-1
 154 258 l 2,1,2
 131 258 131 258 131 274 c 0,3,4
 131 299 131 299 163 299 c 2,5,-1
 565 299 l 2,6,7
 588 299 588 299 588 283 c 0,8,9
 588 258 588 258 556 258 c 2,0,-1
EndSplineSet
EndChar

StartChar: period
Encoding: 46 46 17
Width: 600
GlyphClass: 2
Flags: W
LayerCount: 2
Fore
SplineSet
319 116 m 2,0,-1
 330 116 l 2,1,2
 355 116 355 116 370.5 101.5 c 128,-1,3
 386 87 386 87 386 64 c 0,4,5
 386 33 386 33 360.5 9 c 128,-1,6
 335 -15 335 -15 302 -15 c 2,7,-1
 291 -15 l 2,8,9
 266 -15 266 -15 250.5 -0.5 c 128,-1,10
 235 14 235 14 235 37 c 0,11,12
 235 68 235 68 260.5 92 c 128,-1,13
 286 116 286 116 319 116 c 2,0,-1
EndSplineSet
EndChar

StartChar: slash
Encoding: 47 47 18
Width: 600
GlyphClass: 2
Flags: W
LayerCount: 2
Fore
SplineSet
617 633 m 2,0,-1
 141 -63 l 2,1,2
 128 -81 128 -81 115 -81 c 0,3,4
 109 -81 109 -81 104 -76.5 c 128,-1,5
 99 -72 99 -72 99 -65 c 128,-1,6
 99 -58 99 -58 107 -46 c 2,7,-1
 583 650 l 2,8,9
 595 668 595 668 608 668 c 0,10,11
 625 668 625 668 625 652 c 0,12,13
 625 646 625 646 617 633 c 2,0,-1
EndSplineSet
EndChar

StartChar: zero
Encoding: 48 48 19
Width: 600
GlyphClass: 2
Flags: W
LayerCount: 2
Fore
SplineSet
561 351 m 2,0,-1
 540 251 l 2,1,2
 514 133 514 133 447 59 c 128,-1,3
 380 -15 380 -15 298 -15 c 0,4,5
 231 -15 231 -15 193.5 31.5 c 128,-1,6
 156 78 156 78 156 162 c 0,7,8
 156 208 156 208 166 251 c 2,9,-1
 187 351 l 2,10,11
 212 469 212 469 279.5 543.5 c 128,-1,12
 347 618 347 618 430 618 c 0,13,14
 497 618 497 618 534 571.5 c 128,-1,15
 571 525 571 525 571 441 c 0,16,17
 571 395 571 395 561 351 c 2,0,-1
227 346 m 2,18,-1
 208 257 l 2,19,20
 200 219 200 219 200 178 c 0,21,22
 200 26 200 26 305 26 c 0,23,24
 370 26 370 26 414 79 c 0,25,26
 477 152 477 152 500 257 c 2,27,-1
 519 346 l 2,28,29
 527 384 527 384 527 425 c 0,30,31
 527 577 527 577 422 577 c 0,32,33
 357 577 357 577 313 524 c 0,34,35
 248 449 248 449 227 346 c 2,18,-1
EndSplineSet
EndChar

StartChar: one
Encoding: 49 49 20
Width: 600
GlyphClass: 2
Flags: W
LayerCount: 2
Fore
SplineSet
451 612 m 1,0,-1
 330 41 l 1,1,-1
 469 41 l 2,2,3
 492 41 492 41 492 25 c 0,4,5
 492 0 492 0 461 0 c 2,6,-1
 141 0 l 2,7,8
 117 0 117 0 117 16 c 0,9,10
 117 41 117 41 149 41 c 2,11,-1
 289 41 l 1,12,-1
 398 557 l 1,13,-1
 258 515 l 2,14,15
 247 512 247 512 243 512 c 0,16,17
 237 512 237 512 232.5 517 c 128,-1,18
 228 522 228 522 228 528 c 0,19,20
 228 545 228 545 254 554 c 2,21,-1
 451 612 l 1,0,-1
EndSplineSet
EndChar

StartChar: two
Encoding: 50 50 21
Width: 600
GlyphClass: 2
Flags: W
LayerCount: 2
Fore
SplineSet
132 41 m 1,0,-1
 446 41 l 1,1,-1
 453 77 l 2,2,3
 459 104 459 104 480 104 c 0,4,5
 487 104 487 104 491.5 99.5 c 128,-1,6
 496 95 496 95 496 89 c 0,7,8
 496 85 496 85 494 77 c 2,9,-1
 478 0 l 1,10,-1
 84 0 l 1,11,-1
 97 60 l 1,12,-1
 380 282 l 2,13,14
 475 359 475 359 502.5 393.5 c 128,-1,15
 530 428 530 428 530 471 c 0,16,17
 530 515 530 515 496 546 c 128,-1,18
 462 577 462 577 414 577 c 0,19,20
 362 577 362 577 314 547.5 c 128,-1,21
 266 518 266 518 244 472 c 0,22,23
 234 452 234 452 219 452 c 0,24,25
 213 452 213 452 208 456.5 c 128,-1,26
 203 461 203 461 203 466 c 0,27,28
 203 477 203 477 217 499.5 c 128,-1,29
 231 522 231 522 250 542 c 0,30,31
 326 618 326 618 424 618 c 0,32,33
 485 618 485 618 528.5 577 c 128,-1,34
 572 536 572 536 572 479 c 0,35,36
 572 440 572 440 555 407 c 128,-1,37
 538 374 538 374 496 334 c 0,38,39
 462 302 462 302 338 203 c 128,-1,40
 214 104 214 104 133 44 c 1,41,-1
 132 41 l 1,0,-1
EndSplineSet
EndChar

StartChar: three
Encoding: 51 51 22
Width: 600
GlyphClass: 2
Flags: W
LayerCount: 2
Fore
SplineSet
444 328 m 1,0,1
 538 286 538 286 538 197 c 0,2,3
 538 116 538 116 460.5 50.5 c 128,-1,4
 383 -15 383 -15 287 -15 c 0,5,6
 215 -15 215 -15 148 26 c 0,7,8
 110 48 110 48 110 64 c 0,9,10
 110 73 110 73 117.5 80.5 c 128,-1,11
 125 88 125 88 133 88 c 128,-1,12
 141 88 141 88 149 81 c 0,13,14
 210 26 210 26 297 26 c 0,15,16
 374 26 374 26 435 77 c 128,-1,17
 496 128 496 128 496 193 c 0,18,19
 496 243 496 243 451.5 278 c 128,-1,20
 407 313 407 313 345 312 c 0,21,22
 322 312 322 312 322 328 c 0,23,24
 322 339 322 339 332 347 c 0,25,26
 339 353 339 353 380 353 c 0,27,28
 444 353 444 353 490.5 392 c 128,-1,29
 537 431 537 431 537 485 c 0,30,31
 537 526 537 526 505.5 551.5 c 128,-1,32
 474 577 474 577 424 577 c 0,33,34
 336 577 336 577 277 523 c 0,35,36
 262 509 262 509 253 509 c 0,37,38
 237 509 237 509 237 525 c 0,39,40
 237 538 237 538 267 561 c 0,41,42
 340 618 340 618 433 618 c 0,43,44
 498 618 498 618 538.5 583.5 c 128,-1,45
 579 549 579 549 579 493 c 0,46,47
 579 440 579 440 543 396.5 c 128,-1,48
 507 353 507 353 444 328 c 1,0,1
EndSplineSet
EndChar

StartChar: four
Encoding: 52 52 23
Width: 600
GlyphClass: 2
Flags: W
LayerCount: 2
Fore
SplineSet
412 169 m 1,0,-1
 141 169 l 1,1,-1
 151 216 l 1,2,-1
 461 604 l 1,3,-1
 545 604 l 1,4,-1
 461 210 l 1,5,-1
 495 210 l 2,6,7
 518 210 518 210 518 194 c 0,8,9
 518 169 518 169 487 169 c 2,10,-1
 453 169 l 1,11,-1
 425 41 l 1,12,-1
 459 41 l 2,13,14
 483 41 483 41 483 25 c 0,15,16
 483 14 483 14 474 7 c 128,-1,17
 465 0 465 0 451 0 c 2,18,-1
 300 0 l 2,19,20
 277 0 277 0 277 16 c 0,21,22
 277 41 277 41 309 41 c 2,23,-1
 385 41 l 1,24,-1
 412 169 l 1,0,-1
420 210 m 1,25,-1
 495 563 l 1,26,-1
 472 563 l 1,27,-1
 189 210 l 1,28,-1
 420 210 l 1,25,-1
EndSplineSet
EndChar

StartChar: five
Encoding: 53 53 24
Width: 600
GlyphClass: 2
Flags: W
LayerCount: 2
Fore
SplineSet
310 563 m 1,0,-1
 268 365 l 1,1,2
 348 395 348 395 405 395 c 0,3,4
 470 395 470 395 509 355.5 c 128,-1,5
 548 316 548 316 548 250 c 0,6,7
 548 144 548 144 471.5 64.5 c 128,-1,8
 395 -15 395 -15 292 -15 c 0,9,10
 221 -15 221 -15 165 23 c 0,11,12
 113 59 113 59 113 78 c 0,13,14
 113 87 113 87 120.5 94.5 c 128,-1,15
 128 102 128 102 138 102 c 0,16,17
 145 102 145 102 153 93 c 0,18,19
 212 26 212 26 299 26 c 0,20,21
 405 26 405 26 466 118 c 0,22,23
 506 180 506 180 506 242 c 0,24,25
 506 294 506 294 475.5 324 c 128,-1,26
 445 354 445 354 392 354 c 0,27,28
 331 354 331 354 259 321 c 0,29,30
 242 313 242 313 235 313 c 0,31,32
 222 313 222 313 220 328 c 0,33,34
 220 333 220 333 221 335 c 1,35,-1
 278 604 l 1,36,-1
 560 604 l 2,37,38
 584 604 584 604 584 588 c 0,39,40
 584 563 584 563 552 563 c 2,41,-1
 310 563 l 1,0,-1
EndSplineSet
EndChar

StartChar: six
Encoding: 54 54 25
Width: 600
GlyphClass: 2
Flags: W
LayerCount: 2
Fore
SplineSet
228 242 m 1,0,1
 316 364 316 364 420 364 c 0,2,3
 478 364 478 364 515 323.5 c 128,-1,4
 552 283 552 283 552 219 c 0,5,6
 552 129 552 129 484.5 57 c 128,-1,7
 417 -15 417 -15 333 -15 c 0,8,9
 265 -15 265 -15 224.5 37.5 c 128,-1,10
 184 90 184 90 184 179 c 0,11,12
 184 276 184 276 220 365 c 128,-1,13
 256 454 256 454 319 513 c 0,14,15
 430 618 430 618 560 618 c 0,16,17
 589 618 589 618 610 609 c 128,-1,18
 631 600 631 600 631 587 c 0,19,20
 631 578 631 578 624 570.5 c 128,-1,21
 617 563 617 563 608 563 c 0,22,23
 601 563 601 563 591 569 c 0,24,25
 577 577 577 577 546 577 c 0,26,27
 480 577 480 577 407 532.5 c 128,-1,28
 334 488 334 488 290 420 c 0,29,30
 243 348 243 348 228 242 c 1,0,1
222 188 m 1,31,32
 224 150 224 150 230 123 c 0,33,34
 254 26 254 26 343 26 c 0,35,36
 408 26 408 26 459 83 c 128,-1,37
 510 140 510 140 510 212 c 0,38,39
 510 259 510 259 482 291 c 128,-1,40
 454 323 454 323 412 323 c 0,41,42
 351 323 351 323 289 266 c 0,43,44
 268 247 268 247 222 188 c 1,31,32
EndSplineSet
EndChar

StartChar: seven
Encoding: 55 55 26
Width: 600
GlyphClass: 2
Flags: W
LayerCount: 2
Fore
SplineSet
553 545 m 1,0,-1
 557 563 l 1,1,-1
 265 563 l 1,2,-1
 258 528 l 2,3,4
 252 500 252 500 231 500 c 0,5,6
 225 500 225 500 220 504.5 c 128,-1,7
 215 509 215 509 215 515 c 0,8,9
 215 518 215 518 217 528 c 2,10,-1
 233 604 l 1,11,-1
 606 604 l 1,12,-1
 592 539 l 1,13,-1
 319 20 l 2,14,15
 308 -1 308 -1 294 -1 c 0,16,17
 287 -1 287 -1 282.5 3.5 c 128,-1,18
 278 8 278 8 278 14 c 128,-1,19
 278 20 278 20 284 32 c 2,20,-1
 553 545 l 1,0,-1
EndSplineSet
EndChar

StartChar: eight
Encoding: 56 56 27
Width: 600
GlyphClass: 2
Flags: W
LayerCount: 2
Fore
SplineSet
441 313 m 1,0,1
 524 271 524 271 524 192 c 128,-1,2
 524 113 524 113 453.5 49 c 128,-1,3
 383 -15 383 -15 296 -15 c 0,4,5
 229 -15 229 -15 186 25.5 c 128,-1,6
 143 66 143 66 143 128 c 0,7,8
 143 187 143 187 182 235.5 c 128,-1,9
 221 284 221 284 291 313 c 1,10,11
 251 336 251 336 233.5 362 c 128,-1,12
 216 388 216 388 216 424 c 0,13,14
 216 497 216 497 283 557.5 c 128,-1,15
 350 618 350 618 432 618 c 0,16,17
 494 618 494 618 535 579.5 c 128,-1,18
 576 541 576 541 576 483 c 0,19,20
 576 408 576 408 510 353 c 0,21,22
 483 331 483 331 441 313 c 1,0,1
422 577 m 0,23,24
 359 577 359 577 308 531 c 128,-1,25
 257 485 257 485 257 429 c 0,26,27
 257 388 257 388 289 360.5 c 128,-1,28
 321 333 321 333 370 333 c 0,29,30
 435 333 435 333 484.5 375 c 128,-1,31
 534 417 534 417 534 473 c 0,32,33
 534 520 534 520 503 548.5 c 128,-1,34
 472 577 472 577 422 577 c 0,23,24
361 293 m 0,35,36
 291 293 291 293 238 245.5 c 128,-1,37
 185 198 185 198 185 135 c 0,38,39
 185 87 185 87 218.5 56.5 c 128,-1,40
 252 26 252 26 305 26 c 0,41,42
 373 26 373 26 427.5 74.5 c 128,-1,43
 482 123 482 123 482 184 c 0,44,45
 482 233 482 233 449 263 c 128,-1,46
 416 293 416 293 361 293 c 0,35,36
EndSplineSet
EndChar

StartChar: nine
Encoding: 57 57 28
Width: 600
GlyphClass: 2
Flags: W
LayerCount: 2
Fore
SplineSet
545 361 m 1,0,1
 459 239 459 239 353 239 c 0,2,3
 295 239 295 239 258 279.5 c 128,-1,4
 221 320 221 320 221 384 c 0,5,6
 221 474 221 474 288.5 546 c 128,-1,7
 356 618 356 618 440 618 c 0,8,9
 508 618 508 618 548.5 565.5 c 128,-1,10
 589 513 589 513 589 424 c 0,11,12
 589 327 589 327 553 238 c 128,-1,13
 517 149 517 149 454 90 c 0,14,15
 343 -15 343 -15 213 -15 c 0,16,17
 184 -15 184 -15 163 -6 c 128,-1,18
 142 3 142 3 142 16 c 0,19,20
 142 25 142 25 149 32.5 c 128,-1,21
 156 40 156 40 165 40 c 0,22,23
 172 40 172 40 182 34 c 0,24,25
 196 26 196 26 227 26 c 0,26,27
 293 26 293 26 366 70.5 c 128,-1,28
 439 115 439 115 483 183 c 128,-1,29
 527 251 527 251 541 334 c 0,30,31
 542 340 542 340 545 361 c 1,0,1
551 415 m 1,32,33
 549 455 549 455 543 480 c 0,34,35
 519 577 519 577 430 577 c 0,36,37
 365 577 365 577 314 520 c 128,-1,38
 263 463 263 463 263 391 c 0,39,40
 263 344 263 344 291 312 c 128,-1,41
 319 280 319 280 361 280 c 0,42,43
 422 280 422 280 484 337 c 0,44,45
 505 356 505 356 551 415 c 1,32,33
EndSplineSet
EndChar

StartChar: colon
Encoding: 58 58 29
Width: 600
GlyphClass: 2
Flags: W
LayerCount: 2
Fore
SplineSet
319 116 m 2,0,-1
 330 116 l 2,1,2
 355 116 355 116 370.5 102 c 128,-1,3
 386 88 386 88 386 65 c 0,4,5
 386 33 386 33 360.5 9 c 128,-1,6
 335 -15 335 -15 302 -15 c 2,7,-1
 291 -15 l 2,8,9
 266 -15 266 -15 250.5 -0.5 c 128,-1,10
 235 14 235 14 235 37 c 0,11,12
 235 68 235 68 260.5 92 c 128,-1,13
 286 116 286 116 319 116 c 2,0,-1
383 417 m 2,14,-1
 394 417 l 2,15,16
 419 417 419 417 434.5 402.5 c 128,-1,17
 450 388 450 388 450 365 c 0,18,19
 450 334 450 334 424.5 309.5 c 128,-1,20
 399 285 399 285 366 285 c 2,21,-1
 355 285 l 2,22,23
 330 285 330 285 314.5 299.5 c 128,-1,24
 299 314 299 314 299 337 c 0,25,26
 299 368 299 368 324.5 392.5 c 128,-1,27
 350 417 350 417 383 417 c 2,14,-1
EndSplineSet
EndChar

StartChar: semicolon
Encoding: 59 59 30
Width: 600
GlyphClass: 2
Flags: W
LayerCount: 2
Fore
SplineSet
242 145 m 1,0,-1
 375 145 l 1,1,-1
 174 -120 l 2,2,3
 154 -145 154 -145 138 -145 c 0,4,5
 128 -145 128 -145 121 -138.5 c 128,-1,6
 114 -132 114 -132 114 -122 c 0,7,8
 114 -115 114 -115 119 -105 c 2,9,-1
 242 145 l 1,0,-1
359 417 m 2,10,-1
 370 417 l 2,11,12
 395 417 395 417 410.5 402.5 c 128,-1,13
 426 388 426 388 426 365 c 0,14,15
 426 334 426 334 400.5 309.5 c 128,-1,16
 375 285 375 285 342 285 c 2,17,-1
 331 285 l 2,18,19
 306 285 306 285 290.5 299.5 c 128,-1,20
 275 314 275 314 275 337 c 0,21,22
 275 368 275 368 300.5 392.5 c 128,-1,23
 326 417 326 417 359 417 c 2,10,-1
EndSplineSet
EndChar

StartChar: less
Encoding: 60 60 31
Width: 600
GlyphClass: 2
Flags: W
LayerCount: 2
Fore
SplineSet
131 281 m 1,0,-1
 598 513 l 2,1,2
 608 518 608 518 611 518 c 0,3,4
 622 518 622 518 625 508 c 2,5,-1
 626 505 l 2,6,7
 627 503 627 503 627 499 c 0,8,9
 627 487 627 487 610 478 c 2,10,-1
 213 281 l 1,11,-1
 526 84 l 2,12,13
 535 78 535 78 535 70 c 0,14,15
 535 64 535 64 530 57 c 2,16,-1
 528 54 l 2,17,18
 521 44 521 44 511 44 c 0,19,20
 506 44 506 44 498 49 c 2,21,-1
 131 281 l 1,0,-1
EndSplineSet
EndChar

StartChar: equal
Encoding: 61 61 32
Width: 600
GlyphClass: 2
Flags: W
LayerCount: 2
Fore
SplineSet
593 334 m 2,0,-1
 149 334 l 2,1,2
 126 334 126 334 126 350 c 0,3,4
 126 375 126 375 158 375 c 2,5,-1
 602 375 l 2,6,7
 625 375 625 375 625 359 c 0,8,9
 625 334 625 334 593 334 c 2,0,-1
562 190 m 2,10,-1
 118 190 l 2,11,12
 95 190 95 190 95 206 c 0,13,14
 95 231 95 231 127 231 c 2,15,-1
 571 231 l 2,16,17
 594 231 594 231 594 215 c 0,18,19
 594 190 594 190 562 190 c 2,10,-1
EndSplineSet
EndChar

StartChar: greater
Encoding: 62 62 33
Width: 600
GlyphClass: 2
Flags: W
LayerCount: 2
Fore
SplineSet
588 281 m 1,0,-1
 121 49 l 2,1,2
 111 44 111 44 108 44 c 0,3,4
 97 44 97 44 94 54 c 2,5,-1
 93 57 l 2,6,7
 92 59 92 59 92 63 c 0,8,9
 92 75 92 75 109 84 c 2,10,-1
 506 281 l 1,11,-1
 193 478 l 2,12,13
 184 484 184 484 184 492 c 128,-1,14
 184 500 184 500 189 505 c 1,15,-1
 191 508 l 2,16,17
 199 518 199 518 208 518 c 0,18,19
 213 518 213 518 221 513 c 2,20,-1
 588 281 l 1,0,-1
EndSplineSet
EndChar

StartChar: question
Encoding: 63 63 34
Width: 600
GlyphClass: 2
Flags: W
LayerCount: 2
Fore
SplineSet
375 247 m 1,0,-1
 366 206 l 2,1,2
 362 179 362 179 340 179 c 0,3,4
 333 179 333 179 328.5 183.5 c 128,-1,5
 324 188 324 188 324 194 c 2,6,-1
 325 206 l 1,7,-1
 340 274 l 1,8,9
 446 314 446 314 492.5 354 c 128,-1,10
 539 394 539 394 539 444 c 0,11,12
 539 486 539 486 506.5 511 c 128,-1,13
 474 536 474 536 419 536 c 0,14,15
 358 536 358 536 282 502 c 1,16,-1
 274 461 l 2,17,18
 268 434 268 434 248 434 c 0,19,20
 231 434 231 434 231 450 c 0,21,22
 231 451 231 451 233 461 c 2,23,-1
 247 529 l 1,24,25
 259 533 259 533 279 541 c 0,26,27
 368 577 368 577 433 577 c 0,28,29
 502 577 502 577 541.5 544.5 c 128,-1,30
 581 512 581 512 581 455 c 0,31,32
 581 376 581 376 515 323 c 0,33,34
 469 288 469 288 375 247 c 1,0,-1
305 85 m 2,35,-1
 333 85 l 2,36,37
 380 85 380 85 380 45 c 0,38,39
 380 20 380 20 360 2.5 c 128,-1,40
 340 -15 340 -15 312 -15 c 2,41,-1
 284 -15 l 2,42,43
 262 -15 262 -15 249.5 -4.5 c 128,-1,44
 237 6 237 6 237 24 c 0,45,46
 237 49 237 49 257 67 c 128,-1,47
 277 85 277 85 305 85 c 2,35,-1
EndSplineSet
EndChar

StartChar: at
Encoding: 64 64 35
Width: 600
GlyphClass: 2
Flags: W
LayerCount: 2
Fore
SplineSet
449 145 m 1,0,-1
 450 150 l 1,1,2
 420 147 420 147 408 147 c 0,3,4
 359 147 359 147 328 174.5 c 128,-1,5
 297 202 297 202 297 245 c 0,6,7
 297 298 297 298 336.5 344 c 128,-1,8
 376 390 376 390 438 408 c 0,9,10
 469 416 469 416 506 416 c 1,11,-1
 516 463 l 2,12,13
 519 476 519 476 519 490 c 0,14,15
 519 533 519 533 493.5 558 c 128,-1,16
 468 583 468 583 425 583 c 0,17,18
 357 583 357 583 300 520 c 128,-1,19
 243 457 243 457 222 358 c 2,20,-1
 188 198 l 2,21,22
 181 160 181 160 181 131 c 0,23,24
 181 51 181 51 218 9 c 0,25,26
 245 -21 245 -21 301 -21 c 0,27,28
 372 -21 372 -21 412 9 c 0,29,30
 426 20 426 20 434 20 c 0,31,32
 441 20 441 20 445.5 15.5 c 128,-1,33
 450 11 450 11 450 5 c 0,34,35
 450 -19 450 -19 397.5 -40.5 c 128,-1,36
 345 -62 345 -62 286 -62 c 0,37,38
 214 -62 214 -62 178 -13 c 0,39,40
 139 41 139 41 139 121 c 0,41,42
 139 156 139 156 147 198 c 2,43,-1
 182 361 l 2,44,45
 206 475 206 475 277 549.5 c 128,-1,46
 348 624 348 624 433 624 c 0,47,48
 491 624 491 624 526 589.5 c 128,-1,49
 561 555 561 555 561 499 c 0,50,51
 561 479 561 479 557 463 c 2,52,-1
 498 186 l 1,53,54
 514 183 514 183 514 170 c 0,55,56
 514 145 514 145 482 145 c 2,57,-1
 449 145 l 1,0,-1
459 192 m 1,58,-1
 498 376 l 1,59,60
 432 376 432 376 385.5 340.5 c 128,-1,61
 339 305 339 305 339 255 c 0,62,63
 339 224 339 224 361 206 c 128,-1,64
 383 188 383 188 420 188 c 0,65,66
 442 188 442 188 459 192 c 1,58,-1
EndSplineSet
EndChar

StartChar: A
Encoding: 65 65 36
Width: 600
GlyphClass: 2
Flags: W
LayerCount: 2
Fore
SplineSet
468 188 m 1,0,-1
 203 188 l 1,1,-1
 117 41 l 1,2,-1
 196 41 l 2,3,4
 219 41 219 41 219 25 c 0,5,6
 219 14 219 14 210 7 c 128,-1,7
 201 0 201 0 187 0 c 2,8,-1
 36 0 l 2,9,10
 13 0 13 0 13 17 c 0,11,12
 13 41 13 41 45 41 c 2,13,-1
 76 41 l 1,14,-1
 357 522 l 1,15,-1
 237 522 l 2,16,17
 214 522 214 522 214 538 c 0,18,19
 214 563 214 563 246 563 c 2,20,-1
 449 563 l 1,21,-1
 536 41 l 1,22,-1
 573 41 l 2,23,24
 596 41 596 41 596 25 c 0,25,26
 596 0 596 0 564 0 c 2,27,-1
 408 0 l 2,28,29
 385 0 385 0 385 16 c 0,30,31
 385 41 385 41 417 41 c 2,32,-1
 493 41 l 1,33,-1
 468 188 l 1,0,-1
462 229 m 1,34,-1
 412 522 l 1,35,-1
 397 522 l 1,36,-1
 227 229 l 1,37,-1
 462 229 l 1,34,-1
EndSplineSet
EndChar

StartChar: B
Encoding: 66 66 37
Width: 600
GlyphClass: 2
Flags: W
LayerCount: 2
Fore
SplineSet
133 41 m 1,0,-1
 235 522 l 1,1,-1
 181 522 l 2,2,3
 158 522 158 522 158 539 c 0,4,5
 158 563 158 563 190 563 c 2,6,-1
 448 563 l 2,7,8
 512 563 512 563 551.5 530.5 c 128,-1,9
 591 498 591 498 591 445 c 0,10,11
 591 353 591 353 477 298 c 1,12,13
 577 261 577 261 577 181 c 0,14,15
 577 111 577 111 515.5 55.5 c 128,-1,16
 454 0 454 0 377 0 c 2,17,-1
 70 0 l 2,18,19
 47 0 47 0 47 17 c 0,20,21
 47 41 47 41 79 41 c 2,22,-1
 133 41 l 1,0,-1
232 313 m 1,23,-1
 379 313 l 2,24,25
 450 313 450 313 499.5 349 c 128,-1,26
 549 385 549 385 549 437 c 0,27,28
 549 470 549 470 521 496 c 0,29,30
 492 522 492 522 440 522 c 2,31,-1
 276 522 l 1,32,-1
 232 313 l 1,23,-1
174 41 m 1,33,-1
 382 41 l 2,34,35
 443 41 443 41 489 81.5 c 128,-1,36
 535 122 535 122 535 175 c 0,37,38
 535 217 535 217 493 246 c 0,39,40
 455 272 455 272 372 272 c 2,41,-1
 223 272 l 1,42,-1
 174 41 l 1,33,-1
EndSplineSet
EndChar

StartChar: C
Encoding: 67 67 38
Width: 600
GlyphClass: 2
Flags: W
LayerCount: 2
Fore
SplineSet
586 507 m 1,0,-1
 592 536 l 2,1,2
 598 563 598 563 618 563 c 0,3,4
 635 563 635 563 635 548 c 0,5,6
 635 546 635 546 633 536 c 2,7,-1
 609 424 l 2,8,9
 604 396 604 396 583 396 c 0,10,11
 574 396 574 396 566 408 c 1,12,-1
 570 446 l 2,13,14
 570 448 570 448 557 468 c 128,-1,15
 544 488 544 488 538 494 c 0,16,17
 521 512 521 512 487 524 c 128,-1,18
 453 536 453 536 419 536 c 0,19,20
 336 536 336 536 263.5 472 c 128,-1,21
 191 408 191 408 172 319 c 2,22,-1
 157 248 l 2,23,24
 152 223 152 223 152 203 c 0,25,26
 152 126 152 126 202 75.5 c 128,-1,27
 252 25 252 25 328 25 c 0,28,29
 426 25 426 25 522 115 c 0,30,31
 532 125 532 125 542 125 c 0,32,33
 558 125 558 125 558 111 c 128,-1,34
 558 97 558 97 524 67 c 0,35,36
 425 -16 425 -16 319 -16 c 0,37,38
 230 -16 230 -16 170 45 c 128,-1,39
 110 106 110 106 110 196 c 0,40,41
 110 217 110 217 115 242 c 2,42,-1
 132 325 l 2,43,44
 142 371 142 371 171.5 419 c 128,-1,45
 201 467 201 467 242 502 c 0,46,47
 325 576 325 576 428 576 c 0,48,49
 529 576 529 576 586 507 c 1,0,-1
EndSplineSet
EndChar

StartChar: D
Encoding: 68 68 39
Width: 600
GlyphClass: 2
Flags: W
LayerCount: 2
Fore
SplineSet
113 41 m 1,0,-1
 215 522 l 1,1,-1
 181 522 l 2,2,3
 158 522 158 522 158 538 c 0,4,5
 158 563 158 563 190 563 c 2,6,-1
 410 563 l 2,7,8
 492 563 492 563 542 509 c 128,-1,9
 592 455 592 455 592 368 c 0,10,11
 592 338 592 338 586 310 c 2,12,-1
 574 254 l 2,13,14
 551 147 551 147 469 73.5 c 128,-1,15
 387 0 387 0 290 0 c 2,16,-1
 70 0 l 2,17,18
 47 0 47 0 47 16 c 0,19,20
 47 41 47 41 79 41 c 2,21,-1
 113 41 l 1,0,-1
154 41 m 1,22,-1
 303 41 l 2,23,24
 375 41 375 41 444.5 103 c 128,-1,25
 514 165 514 165 531 245 c 2,26,-1
 547 318 l 2,27,28
 551 346 551 346 551 357 c 0,29,30
 551 423 551 423 514 472 c 0,31,32
 477 522 477 522 399 522 c 2,33,-1
 256 522 l 1,34,-1
 154 41 l 1,22,-1
EndSplineSet
EndChar

StartChar: E
Encoding: 69 69 40
Width: 600
GlyphClass: 2
Flags: W
LayerCount: 2
Fore
SplineSet
223 272 m 1,0,-1
 174 41 l 1,1,-1
 488 41 l 1,2,-1
 513 160 l 2,3,4
 519 187 519 187 540 187 c 0,5,6
 547 187 547 187 551.5 182.5 c 128,-1,7
 556 178 556 178 556 172 c 0,8,9
 556 170 556 170 554 160 c 2,10,-1
 520 0 l 1,11,-1
 70 0 l 2,12,13
 47 0 47 0 47 17 c 0,14,15
 47 41 47 41 79 41 c 2,16,-1
 133 41 l 1,17,-1
 235 522 l 1,18,-1
 181 522 l 2,19,20
 158 522 158 522 158 539 c 0,21,22
 158 563 158 563 190 563 c 2,23,-1
 619 563 l 1,24,-1
 589 424 l 2,25,26
 584 397 584 397 563 397 c 0,27,28
 556 397 556 397 551.5 401.5 c 128,-1,29
 547 406 547 406 547 412 c 2,30,-1
 548 424 l 1,31,-1
 569 522 l 1,32,-1
 276 522 l 1,33,-1
 232 313 l 1,34,-1
 377 313 l 1,35,-1
 386 358 l 2,36,37
 392 385 392 385 412 385 c 0,38,39
 429 385 429 385 429 370 c 0,40,41
 429 366 429 366 427 358 c 2,42,-1
 399 227 l 2,43,44
 394 200 394 200 373 200 c 0,45,46
 366 200 366 200 361.5 204.5 c 128,-1,47
 357 209 357 209 357 215 c 2,48,-1
 358 227 l 1,49,-1
 368 272 l 1,50,-1
 223 272 l 1,0,-1
EndSplineSet
EndChar

StartChar: F
Encoding: 70 70 41
Width: 600
GlyphClass: 2
Flags: W
LayerCount: 2
Fore
SplineSet
223 272 m 1,0,-1
 174 41 l 1,1,-1
 312 41 l 2,2,3
 336 41 336 41 336 25 c 0,4,5
 336 14 336 14 327 7 c 128,-1,6
 318 0 318 0 304 0 c 2,7,-1
 70 0 l 2,8,9
 47 0 47 0 47 16 c 0,10,11
 47 41 47 41 79 41 c 2,12,-1
 133 41 l 1,13,-1
 235 522 l 1,14,-1
 181 522 l 2,15,16
 158 522 158 522 158 538 c 0,17,18
 158 563 158 563 190 563 c 2,19,-1
 640 563 l 1,20,-1
 610 424 l 2,21,22
 606 397 606 397 584 397 c 0,23,24
 578 397 578 397 573 401.5 c 128,-1,25
 568 406 568 406 568 412 c 2,26,-1
 569 424 l 1,27,-1
 590 522 l 1,28,-1
 276 522 l 1,29,-1
 232 313 l 1,30,-1
 377 313 l 1,31,-1
 386 358 l 2,32,33
 392 385 392 385 412 385 c 0,34,35
 429 385 429 385 429 370 c 0,36,37
 429 366 429 366 427 358 c 2,38,-1
 399 227 l 2,39,40
 394 200 394 200 373 200 c 0,41,42
 366 200 366 200 361.5 204.5 c 128,-1,43
 357 209 357 209 357 215 c 2,44,-1
 358 227 l 1,45,-1
 368 272 l 1,46,-1
 223 272 l 1,0,-1
EndSplineSet
EndChar

StartChar: G
Encoding: 71 71 42
Width: 600
GlyphClass: 2
Flags: W
LayerCount: 2
Fore
SplineSet
565 209 m 1,0,-1
 528 36 l 1,1,2
 427 -16 427 -16 330 -16 c 0,3,4
 227 -16 227 -16 167.5 36.5 c 128,-1,5
 108 89 108 89 108 179 c 0,6,7
 108 213 108 213 115 244 c 2,8,-1
 131 318 l 2,9,10
 154 427 154 427 242 501.5 c 128,-1,11
 330 576 330 576 436 576 c 0,12,13
 534 576 534 576 590 522 c 1,14,-1
 593 536 l 2,15,16
 599 563 599 563 619 563 c 0,17,18
 636 563 636 563 636 548 c 0,19,20
 636 544 636 544 634 536 c 2,21,-1
 615 445 l 2,22,23
 609 417 609 417 588 417 c 0,24,25
 581 417 581 417 572 429 c 1,26,-1
 575 465 l 2,27,28
 576 470 576 470 562 485.5 c 128,-1,29
 548 501 548 501 537 508 c 0,30,31
 497 536 497 536 428 536 c 0,32,33
 342 536 342 536 266.5 471.5 c 128,-1,34
 191 407 191 407 172 317 c 2,35,-1
 156 244 l 2,36,37
 150 214 150 214 150 187 c 0,38,39
 150 111 150 111 201 68 c 128,-1,40
 252 25 252 25 341 25 c 0,41,42
 411 25 411 25 492 59 c 1,43,-1
 524 209 l 1,44,-1
 385 209 l 2,45,46
 362 209 362 209 362 225 c 0,47,48
 362 250 362 250 394 250 c 2,49,-1
 588 250 l 2,50,51
 612 250 612 250 612 234 c 0,52,53
 612 209 612 209 579 209 c 2,54,-1
 565 209 l 1,0,-1
EndSplineSet
EndChar

StartChar: H
Encoding: 72 72 43
Width: 600
GlyphClass: 2
Flags: W
LayerCount: 2
Fore
SplineSet
495 272 m 1,0,-1
 225 272 l 1,1,-1
 176 41 l 1,2,-1
 230 41 l 2,3,4
 253 41 253 41 253 25 c 0,5,6
 253 14 253 14 244 7 c 128,-1,7
 235 0 235 0 221 0 c 2,8,-1
 81 0 l 2,9,10
 57 0 57 0 57 16 c 0,11,12
 57 41 57 41 89 41 c 2,13,-1
 135 41 l 1,14,-1
 237 522 l 1,15,-1
 212 522 l 2,16,17
 189 522 189 522 189 538 c 0,18,19
 189 563 189 563 221 563 c 2,20,-1
 341 563 l 2,21,22
 364 563 364 563 364 547 c 0,23,24
 364 522 364 522 332 522 c 2,25,-1
 278 522 l 1,26,-1
 234 313 l 1,27,-1
 504 313 l 1,28,-1
 548 522 l 1,29,-1
 494 522 l 2,30,31
 471 522 471 522 471 538 c 0,32,33
 471 563 471 563 503 563 c 2,34,-1
 623 563 l 2,35,36
 646 563 646 563 646 547 c 0,37,38
 646 522 646 522 614 522 c 2,39,-1
 589 522 l 1,40,-1
 487 41 l 1,41,-1
 532 41 l 2,42,43
 556 41 556 41 556 25 c 0,44,45
 556 14 556 14 547 7 c 128,-1,46
 538 0 538 0 524 0 c 2,47,-1
 383 0 l 2,48,49
 360 0 360 0 360 16 c 0,50,51
 360 41 360 41 392 41 c 2,52,-1
 446 41 l 1,53,-1
 495 272 l 1,0,-1
EndSplineSet
EndChar

StartChar: I
Encoding: 73 73 44
Width: 600
GlyphClass: 2
Flags: W
LayerCount: 2
Fore
SplineSet
431 522 m 1,0,-1
 329 41 l 1,1,-1
 468 41 l 2,2,3
 492 41 492 41 492 25 c 0,4,5
 492 14 492 14 483 7 c 128,-1,6
 474 0 474 0 460 0 c 2,7,-1
 140 0 l 2,8,9
 117 0 117 0 117 16 c 0,10,11
 117 41 117 41 148 41 c 2,12,-1
 288 41 l 1,13,-1
 390 522 l 1,14,-1
 251 522 l 2,15,16
 228 522 228 522 228 538 c 0,17,18
 228 563 228 563 259 563 c 2,19,-1
 579 563 l 2,20,21
 603 563 603 563 603 547 c 0,22,23
 603 536 603 536 594 529 c 128,-1,24
 585 522 585 522 571 522 c 2,25,-1
 431 522 l 1,0,-1
EndSplineSet
EndChar

StartChar: J
Encoding: 74 74 45
Width: 600
GlyphClass: 2
Flags: W
LayerCount: 2
Fore
SplineSet
571 522 m 1,0,-1
 495 165 l 2,1,2
 479 91 479 91 412 37.5 c 128,-1,3
 345 -16 345 -16 269 -16 c 0,4,5
 221 -16 221 -16 182 4.5 c 128,-1,6
 143 25 143 25 100 74 c 1,7,-1
 132 223 l 2,8,9
 138 250 138 250 158 250 c 0,10,11
 165 250 165 250 169.5 245.5 c 128,-1,12
 174 241 174 241 174 235 c 2,13,-1
 173 223 l 1,14,-1
 145 93 l 1,15,16
 206 25 206 25 278 25 c 0,17,18
 340 25 340 25 391 66 c 128,-1,19
 442 107 442 107 454 165 c 2,20,-1
 530 522 l 1,21,-1
 372 522 l 2,22,23
 348 522 348 522 348 538 c 0,24,25
 348 563 348 563 380 563 c 2,26,-1
 676 563 l 2,27,28
 699 563 699 563 699 547 c 0,29,30
 699 522 699 522 667 522 c 2,31,-1
 571 522 l 1,0,-1
EndSplineSet
EndChar

StartChar: K
Encoding: 75 75 46
Width: 600
GlyphClass: 2
Flags: W
LayerCount: 2
Fore
SplineSet
212 221 m 1,0,-1
 174 41 l 1,1,-1
 248 41 l 2,2,3
 272 41 272 41 272 25 c 0,4,5
 272 14 272 14 263 7 c 128,-1,6
 254 0 254 0 240 0 c 2,7,-1
 70 0 l 2,8,9
 47 0 47 0 47 17 c 0,10,11
 47 41 47 41 79 41 c 2,12,-1
 133 41 l 1,13,-1
 235 522 l 1,14,-1
 181 522 l 2,15,16
 158 522 158 522 158 539 c 0,17,18
 158 563 158 563 190 563 c 2,19,-1
 359 563 l 2,20,21
 383 563 383 563 383 547 c 0,22,23
 383 522 383 522 351 522 c 2,24,-1
 276 522 l 1,25,-1
 223 273 l 1,26,-1
 556 522 l 1,27,-1
 511 522 l 2,28,29
 487 522 487 522 487 538 c 0,30,31
 487 563 487 563 519 563 c 2,32,-1
 638 563 l 2,33,34
 662 563 662 563 662 547 c 0,35,36
 662 522 662 522 630 522 c 2,37,-1
 613 522 l 1,38,-1
 349 324 l 1,39,40
 415 294 415 294 444 239.5 c 128,-1,41
 473 185 473 185 498 41 c 1,42,-1
 554 41 l 2,43,44
 577 41 577 41 577 25 c 0,45,46
 577 14 577 14 568 7 c 128,-1,47
 559 0 559 0 545 0 c 2,48,-1
 459 0 l 1,49,50
 436 152 436 152 405.5 211.5 c 128,-1,51
 375 271 375 271 309 294 c 1,52,-1
 212 221 l 1,0,-1
EndSplineSet
EndChar

StartChar: L
Encoding: 76 76 47
Width: 600
GlyphClass: 2
Flags: W
LayerCount: 2
Fore
SplineSet
338 522 m 1,0,-1
 236 41 l 1,1,-1
 508 41 l 1,2,-1
 542 201 l 2,3,4
 548 228 548 228 568 228 c 0,5,6
 585 228 585 228 585 214 c 0,7,8
 585 211 585 211 583 201 c 2,9,-1
 541 0 l 1,10,-1
 90 0 l 2,11,12
 67 0 67 0 67 16 c 0,13,14
 67 41 67 41 99 41 c 2,15,-1
 195 41 l 1,16,-1
 297 522 l 1,17,-1
 201 522 l 2,18,19
 178 522 178 522 178 539 c 0,20,21
 178 563 178 563 209 563 c 2,22,-1
 443 563 l 2,23,24
 466 563 466 563 466 547 c 0,25,26
 466 522 466 522 434 522 c 2,27,-1
 338 522 l 1,0,-1
EndSplineSet
EndChar

StartChar: M
Encoding: 77 77 48
Width: 600
GlyphClass: 2
Flags: W
LayerCount: 2
Fore
SplineSet
362 169 m 1,0,-1
 316 169 l 1,1,-1
 232 522 l 1,2,-1
 224 522 l 1,3,-1
 122 41 l 1,4,-1
 196 41 l 2,5,6
 220 41 220 41 220 25 c 0,7,8
 220 14 220 14 211 7 c 128,-1,9
 202 0 202 0 188 0 c 2,10,-1
 38 0 l 2,11,12
 15 0 15 0 15 17 c 0,13,14
 15 41 15 41 47 41 c 2,15,-1
 81 41 l 1,16,-1
 183 522 l 1,17,-1
 158 522 l 2,18,19
 135 522 135 522 135 539 c 0,20,21
 135 563 135 563 167 563 c 2,22,-1
 266 563 l 1,23,-1
 349 215 l 1,24,-1
 577 563 l 1,25,-1
 677 563 l 2,26,27
 700 563 700 563 700 547 c 0,28,29
 700 522 700 522 668 522 c 2,30,-1
 643 522 l 1,31,-1
 541 41 l 1,32,-1
 575 41 l 2,33,34
 598 41 598 41 598 25 c 0,35,36
 598 14 598 14 589 7 c 128,-1,37
 580 0 580 0 566 0 c 2,38,-1
 417 0 l 2,39,40
 394 0 394 0 394 17 c 0,41,42
 394 41 394 41 425 41 c 2,43,-1
 500 41 l 1,44,-1
 602 522 l 1,45,-1
 594 522 l 1,46,-1
 362 169 l 1,0,-1
EndSplineSet
EndChar

StartChar: N
Encoding: 78 78 49
Width: 600
GlyphClass: 2
Flags: W
LayerCount: 2
Fore
SplineSet
501 0 m 1,0,-1
 449 0 l 1,1,-1
 251 504 l 1,2,-1
 153 41 l 1,3,-1
 227 41 l 2,4,5
 251 41 251 41 251 25 c 0,6,7
 251 14 251 14 242 7 c 128,-1,8
 233 0 233 0 219 0 c 2,9,-1
 69 0 l 2,10,11
 46 0 46 0 46 17 c 0,12,13
 46 41 46 41 78 41 c 2,14,-1
 112 41 l 1,15,-1
 214 522 l 1,16,-1
 160 522 l 2,17,18
 137 522 137 522 137 539 c 0,19,20
 137 563 137 563 169 563 c 2,21,-1
 275 563 l 1,22,-1
 473 59 l 1,23,-1
 571 522 l 1,24,-1
 497 522 l 2,25,26
 473 522 473 522 473 538 c 0,27,28
 473 563 473 563 505 563 c 2,29,-1
 655 563 l 2,30,31
 678 563 678 563 678 547 c 0,32,33
 678 522 678 522 646 522 c 2,34,-1
 612 522 l 1,35,-1
 501 0 l 1,0,-1
EndSplineSet
EndChar

StartChar: O
Encoding: 79 79 50
Width: 600
GlyphClass: 2
Flags: W
LayerCount: 2
Fore
SplineSet
422 576 m 0,0,1
 508 576 508 576 562 515 c 128,-1,2
 616 454 616 454 616 357 c 0,3,4
 616 263 616 263 571 176 c 128,-1,5
 526 89 526 89 451.5 36.5 c 128,-1,6
 377 -16 377 -16 296 -16 c 0,7,8
 210 -16 210 -16 156 45.5 c 128,-1,9
 102 107 102 107 102 207 c 0,10,11
 102 300 102 300 147.5 385.5 c 128,-1,12
 193 471 193 471 267.5 523.5 c 128,-1,13
 342 576 342 576 422 576 c 0,0,1
415 535 m 0,14,15
 312 535 312 535 228 436.5 c 128,-1,16
 144 338 144 338 144 216 c 0,17,18
 144 133 144 133 189 79 c 128,-1,19
 234 25 234 25 302 25 c 0,20,21
 406 25 406 25 490 123.5 c 128,-1,22
 574 222 574 222 574 345 c 0,23,24
 574 427 574 427 529 481 c 128,-1,25
 484 535 484 535 415 535 c 0,14,15
EndSplineSet
EndChar

StartChar: P
Encoding: 80 80 51
Width: 600
GlyphClass: 2
Flags: W
LayerCount: 2
Fore
SplineSet
214 231 m 1,0,-1
 174 41 l 1,1,-1
 312 41 l 2,2,3
 336 41 336 41 336 25 c 0,4,5
 336 0 336 0 303 0 c 2,6,-1
 70 0 l 2,7,8
 47 0 47 0 47 17 c 0,9,10
 47 41 47 41 79 41 c 2,11,-1
 133 41 l 1,12,-1
 235 522 l 1,13,-1
 181 522 l 2,14,15
 158 522 158 522 158 539 c 0,16,17
 158 563 158 563 190 563 c 2,18,-1
 430 563 l 2,19,20
 499 563 499 563 543 526 c 128,-1,21
 587 489 587 489 587 431 c 0,22,23
 587 351 587 351 514.5 291 c 128,-1,24
 442 231 442 231 346 231 c 2,25,-1
 214 231 l 1,0,-1
223 272 m 1,26,-1
 357 272 l 2,27,28
 431 272 431 272 488 317.5 c 128,-1,29
 545 363 545 363 545 421 c 0,30,31
 545 465 545 465 511 493.5 c 128,-1,32
 477 522 477 522 425 522 c 2,33,-1
 276 522 l 1,34,-1
 223 272 l 1,26,-1
EndSplineSet
EndChar

StartChar: Q
Encoding: 81 81 52
Width: 600
GlyphClass: 2
Flags: W
LayerCount: 2
Fore
SplineSet
301 -16 m 1,0,-1
 238 -56 l 1,1,2
 281 -48 281 -48 307 -48 c 0,3,4
 349 -48 349 -48 386 -63 c 0,5,6
 414 -74 414 -74 429 -74 c 0,7,8
 455 -74 455 -74 504 -47 c 0,9,10
 511 -43 511 -43 517 -43 c 0,11,12
 533 -43 533 -43 533 -59 c 0,13,14
 533 -72 533 -72 510 -86 c 0,15,16
 458 -115 458 -115 418 -115 c 0,17,18
 399 -115 399 -115 364 -102 c 0,19,20
 332 -89 332 -89 298 -89 c 0,21,22
 243 -89 243 -89 153 -112 c 0,23,24
 145 -114 145 -114 143 -114 c 0,25,26
 127 -114 127 -114 127 -97 c 0,27,28
 127 -84 127 -84 142 -75 c 2,29,-1
 246 -10 l 1,30,31
 182 5 182 5 142 64.5 c 128,-1,32
 102 124 102 124 102 206 c 0,33,34
 102 348 102 348 200.5 462 c 128,-1,35
 299 576 299 576 422 576 c 0,36,37
 508 576 508 576 562 514.5 c 128,-1,38
 616 453 616 453 616 354 c 0,39,40
 616 213 616 213 520 100.5 c 128,-1,41
 424 -12 424 -12 301 -16 c 1,0,-1
415 535 m 0,42,43
 311 535 311 535 227.5 436.5 c 128,-1,44
 144 338 144 338 144 216 c 0,45,46
 144 133 144 133 189 79 c 128,-1,47
 234 25 234 25 302 25 c 0,48,49
 406 25 406 25 490 123.5 c 128,-1,50
 574 222 574 222 574 346 c 0,51,52
 574 428 574 428 529 481.5 c 128,-1,53
 484 535 484 535 415 535 c 0,42,43
EndSplineSet
EndChar

StartChar: R
Encoding: 82 82 53
Width: 600
GlyphClass: 2
Flags: W
LayerCount: 2
Fore
SplineSet
218 251 m 1,0,-1
 174 41 l 1,1,-1
 248 41 l 2,2,3
 272 41 272 41 272 25 c 0,4,5
 272 14 272 14 263 7 c 128,-1,6
 254 0 254 0 240 0 c 2,7,-1
 70 0 l 2,8,9
 47 0 47 0 47 17 c 0,10,11
 47 41 47 41 79 41 c 2,12,-1
 133 41 l 1,13,-1
 235 522 l 1,14,-1
 181 522 l 2,15,16
 158 522 158 522 158 539 c 0,17,18
 158 563 158 563 189 563 c 2,19,-1
 438 563 l 2,20,21
 501 563 501 563 544 526 c 128,-1,22
 587 489 587 489 587 434 c 0,23,24
 587 318 587 318 414 262 c 1,25,26
 455 229 455 229 478.5 187.5 c 128,-1,27
 502 146 502 146 540 41 c 1,28,-1
 570 41 l 2,29,30
 594 41 594 41 594 25 c 0,31,32
 594 14 594 14 585 7 c 128,-1,33
 576 0 576 0 562 0 c 2,34,-1
 505 0 l 1,35,36
 465 122 465 122 433.5 173.5 c 128,-1,37
 402 225 402 225 351 251 c 1,38,-1
 218 251 l 1,0,-1
227 292 m 1,39,-1
 341 292 l 2,40,41
 421 292 421 292 483 332.5 c 128,-1,42
 545 373 545 373 545 425 c 0,43,44
 545 465 545 465 511 493.5 c 128,-1,45
 477 522 477 522 429 522 c 2,46,-1
 276 522 l 1,47,-1
 227 292 l 1,39,-1
EndSplineSet
EndChar

StartChar: S
Encoding: 83 83 54
Width: 600
GlyphClass: 2
Flags: W
LayerCount: 2
Fore
SplineSet
555 517 m 1,0,-1
 559 536 l 2,1,2
 565 563 565 563 586 563 c 0,3,4
 593 563 593 563 597.5 558.5 c 128,-1,5
 602 554 602 554 602 548 c 0,6,7
 602 543 602 543 600 536 c 2,8,-1
 578 433 l 2,9,10
 573 405 573 405 553 405 c 0,11,12
 544 405 544 405 536 417 c 1,13,-1
 539 459 l 2,14,15
 539 463 539 463 527 481 c 128,-1,16
 515 499 515 499 508 506 c 0,17,18
 495 519 495 519 468.5 527.5 c 128,-1,19
 442 536 442 536 416 536 c 0,20,21
 349 536 349 536 297.5 494.5 c 128,-1,22
 246 453 246 453 246 399 c 0,23,24
 246 365 246 365 272 344 c 0,25,26
 300 322 300 322 378 309 c 0,27,28
 472 293 472 293 505 269 c 0,29,30
 522 256 522 256 533.5 232.5 c 128,-1,31
 545 209 545 209 545 185 c 0,32,33
 545 149 545 149 528 112.5 c 128,-1,34
 511 76 511 76 482 50 c 0,35,36
 448 20 448 20 398 1.5 c 128,-1,37
 348 -17 348 -17 301 -17 c 0,38,39
 193 -17 193 -17 145 56 c 1,40,-1
 139 27 l 2,41,42
 133 0 133 0 112 0 c 0,43,44
 105 0 105 0 100.5 4.5 c 128,-1,45
 96 9 96 9 96 15 c 0,46,47
 96 19 96 19 98 27 c 2,48,-1
 121 139 l 2,49,50
 127 167 127 167 148 167 c 0,51,52
 156 167 156 167 164 155 c 1,53,-1
 160 109 l 2,54,55
 160 104 160 104 176 83 c 128,-1,56
 192 62 192 62 201 55 c 0,57,58
 217 42 217 42 247 33 c 128,-1,59
 277 24 277 24 307 24 c 0,60,61
 384 24 384 24 442 70 c 128,-1,62
 500 116 500 116 500 177 c 0,63,64
 500 214 500 214 470 237 c 0,65,66
 455 249 455 249 434 255.5 c 128,-1,67
 413 262 413 262 361 271 c 0,68,69
 268 287 268 287 234 317 c 0,70,71
 201 345 201 345 201 392 c 0,72,73
 201 465 201 465 267.5 521 c 128,-1,74
 334 577 334 577 420 577 c 0,75,76
 508 577 508 577 555 517 c 1,0,-1
EndSplineSet
EndChar

StartChar: T
Encoding: 84 84 55
Width: 600
GlyphClass: 2
Flags: W
LayerCount: 2
Fore
SplineSet
330 41 m 1,0,-1
 435 41 l 2,1,2
 458 41 458 41 458 25 c 0,3,4
 458 14 458 14 449 7 c 128,-1,5
 440 0 440 0 426 0 c 2,6,-1
 175 0 l 2,7,8
 152 0 152 0 152 17 c 0,9,10
 152 41 152 41 184 41 c 2,11,-1
 289 41 l 1,12,-1
 391 522 l 1,13,-1
 224 522 l 1,14,-1
 209 449 l 2,15,16
 203 422 203 422 182 422 c 0,17,18
 175 422 175 422 170.5 426.5 c 128,-1,19
 166 431 166 431 166 437 c 2,20,-1
 167 449 l 1,21,-1
 192 563 l 1,22,-1
 648 563 l 1,23,-1
 624 449 l 2,24,25
 618 421 618 421 598 421 c 0,26,27
 593 421 593 421 588 425.5 c 128,-1,28
 583 430 583 430 582 435 c 1,29,30
 582 447 582 447 583 449 c 1,31,-1
 598 522 l 1,32,-1
 432 522 l 1,33,-1
 330 41 l 1,0,-1
EndSplineSet
EndChar

StartChar: U
Encoding: 85 85 56
Width: 600
GlyphClass: 2
Flags: W
LayerCount: 2
Fore
SplineSet
610 522 m 1,0,-1
 539 185 l 2,1,2
 521 100 521 100 451 42 c 128,-1,3
 381 -16 381 -16 297 -16 c 0,4,5
 225 -16 225 -16 180.5 27 c 128,-1,6
 136 70 136 70 136 140 c 0,7,8
 136 160 136 160 141 185 c 2,9,-1
 212 522 l 1,10,-1
 179 522 l 2,11,12
 155 522 155 522 155 538 c 0,13,14
 155 563 155 563 187 563 c 2,15,-1
 337 563 l 2,16,17
 359 563 359 563 359 547 c 0,18,19
 359 522 359 522 328 522 c 2,20,-1
 253 522 l 1,21,-1
 182 185 l 2,22,23
 178 169 178 169 178 151 c 0,24,25
 178 95 178 95 213.5 60 c 128,-1,26
 249 25 249 25 305 25 c 0,27,28
 372 25 372 25 428 71.5 c 128,-1,29
 484 118 484 118 498 185 c 2,30,-1
 569 522 l 1,31,-1
 495 522 l 2,32,33
 472 522 472 522 472 539 c 0,34,35
 472 563 472 563 504 563 c 2,36,-1
 653 563 l 2,37,38
 676 563 676 563 676 547 c 0,39,40
 676 522 676 522 644 522 c 2,41,-1
 610 522 l 1,0,-1
EndSplineSet
EndChar

StartChar: V
Encoding: 86 86 57
Width: 600
GlyphClass: 2
Flags: W
LayerCount: 2
Fore
SplineSet
268 0 m 1,0,-1
 178 522 l 1,1,-1
 147 522 l 2,2,3
 124 522 124 522 124 538 c 0,4,5
 124 563 124 563 156 563 c 2,6,-1
 306 563 l 2,7,8
 330 563 330 563 330 547 c 0,9,10
 330 522 330 522 298 522 c 2,11,-1
 222 522 l 1,12,-1
 305 41 l 1,13,-1
 307 41 l 1,14,-1
 604 522 l 1,15,-1
 525 522 l 2,16,17
 502 522 502 522 502 538 c 0,18,19
 502 563 502 563 533 563 c 2,20,-1
 684 563 l 2,21,22
 707 563 707 563 707 547 c 0,23,24
 707 522 707 522 675 522 c 2,25,-1
 644 522 l 1,26,-1
 324 0 l 1,27,-1
 268 0 l 1,0,-1
EndSplineSet
EndChar

StartChar: W
Encoding: 87 87 58
Width: 600
GlyphClass: 2
Flags: W
LayerCount: 2
Fore
SplineSet
122 0 m 1,0,-1
 173 522 l 1,1,-1
 158 522 l 2,2,3
 135 522 135 522 135 538 c 0,4,5
 135 563 135 563 167 563 c 2,6,-1
 316 563 l 2,7,8
 340 563 340 563 340 547 c 0,9,10
 340 522 340 522 308 522 c 2,11,-1
 214 522 l 1,12,-1
 169 46 l 1,13,-1
 364 438 l 1,14,-1
 426 438 l 1,15,-1
 452 46 l 1,16,-1
 610 522 l 1,17,-1
 514 522 l 2,18,19
 491 522 491 522 491 538 c 0,20,21
 491 563 491 563 523 563 c 2,22,-1
 673 563 l 2,23,24
 696 563 696 563 696 547 c 0,25,26
 696 522 696 522 664 522 c 2,27,-1
 649 522 l 1,28,-1
 476 0 l 1,29,-1
 412 0 l 1,30,-1
 385 400 l 1,31,-1
 185 0 l 1,32,-1
 122 0 l 1,0,-1
EndSplineSet
EndChar

StartChar: X
Encoding: 88 88 59
Width: 600
GlyphClass: 2
Flags: W
LayerCount: 2
Fore
SplineSet
386 288 m 1,0,-1
 525 41 l 1,1,-1
 542 41 l 2,2,3
 565 41 565 41 565 25 c 0,4,5
 565 14 565 14 556 7 c 128,-1,6
 547 0 547 0 533 0 c 2,7,-1
 401 0 l 2,8,9
 378 0 378 0 378 16 c 0,10,11
 378 41 378 41 410 41 c 2,12,-1
 472 41 l 1,13,-1
 352 255 l 1,14,-1
 142 41 l 1,15,-1
 207 41 l 2,16,17
 230 41 230 41 230 25 c 0,18,19
 230 0 230 0 198 0 c 2,20,-1
 67 0 l 2,21,22
 44 0 44 0 44 16 c 0,23,24
 44 41 44 41 76 41 c 2,25,-1
 93 41 l 1,26,-1
 334 288 l 1,27,-1
 204 522 l 1,28,-1
 189 522 l 2,29,30
 166 522 166 522 166 538 c 0,31,32
 166 563 166 563 197 563 c 2,33,-1
 308 563 l 2,34,35
 331 563 331 563 331 547 c 0,36,37
 331 522 331 522 299 522 c 2,38,-1
 256 522 l 1,39,-1
 368 321 l 1,40,-1
 565 522 l 1,41,-1
 519 522 l 2,42,43
 496 522 496 522 496 538 c 0,44,45
 496 563 496 563 528 563 c 2,46,-1
 639 563 l 2,47,48
 662 563 662 563 662 547 c 0,49,50
 662 522 662 522 630 522 c 2,51,-1
 615 522 l 1,52,-1
 386 288 l 1,0,-1
EndSplineSet
EndChar

StartChar: Y
Encoding: 89 89 60
Width: 600
GlyphClass: 2
Flags: W
LayerCount: 2
Fore
SplineSet
376 254 m 1,0,-1
 331 41 l 1,1,-1
 436 41 l 2,2,3
 459 41 459 41 459 25 c 0,4,5
 459 0 459 0 427 0 c 2,6,-1
 176 0 l 2,7,8
 153 0 153 0 153 16 c 0,9,10
 153 41 153 41 185 41 c 2,11,-1
 290 41 l 1,12,-1
 335 254 l 1,13,-1
 213 522 l 1,14,-1
 189 522 l 2,15,16
 166 522 166 522 166 538 c 0,17,18
 166 563 166 563 198 563 c 2,19,-1
 309 563 l 2,20,21
 332 563 332 563 332 547 c 0,22,23
 332 522 332 522 300 522 c 2,24,-1
 262 522 l 1,25,-1
 366 295 l 1,26,-1
 564 522 l 1,27,-1
 523 522 l 2,28,29
 499 522 499 522 499 538 c 0,30,31
 499 563 499 563 532 563 c 2,32,-1
 642 563 l 2,33,34
 665 563 665 563 665 546 c 0,35,36
 665 535 665 535 656 528.5 c 128,-1,37
 647 522 647 522 633 522 c 2,38,-1
 610 522 l 1,39,-1
 376 254 l 1,0,-1
EndSplineSet
EndChar

StartChar: Z
Encoding: 90 90 61
Width: 600
GlyphClass: 2
Flags: W
LayerCount: 2
Fore
SplineSet
497 0 m 1,0,-1
 103 0 l 1,1,-1
 116 59 l 1,2,-1
 541 519 l 1,3,-1
 542 522 l 1,4,-1
 273 522 l 1,5,-1
 248 404 l 2,6,7
 242 376 242 376 221 376 c 0,8,9
 205 376 205 376 205 392 c 0,10,11
 205 396 205 396 207 404 c 2,12,-1
 241 563 l 1,13,-1
 590 563 l 1,14,-1
 578 505 l 1,15,-1
 151 45 l 1,16,-1
 150 41 l 1,17,-1
 465 41 l 1,18,-1
 495 182 l 2,19,20
 501 209 501 209 521 209 c 0,21,22
 538 209 538 209 538 194 c 0,23,24
 538 189 538 189 537 186 c 2,25,-1
 536 182 l 1,26,-1
 497 0 l 1,0,-1
EndSplineSet
EndChar

StartChar: bracketleft
Encoding: 91 91 62
Width: 600
GlyphClass: 2
Flags: W
LayerCount: 2
Fore
SplineSet
441 563 m 1,0,-1
 304 -83 l 1,1,-1
 401 -83 l 2,2,3
 424 -83 424 -83 424 -99 c 0,4,5
 424 -124 424 -124 392 -124 c 2,6,-1
 254 -124 l 1,7,-1
 409 604 l 1,8,-1
 547 604 l 2,9,10
 570 604 570 604 570 588 c 0,11,12
 570 563 570 563 538 563 c 2,13,-1
 441 563 l 1,0,-1
EndSplineSet
EndChar

StartChar: backslash
Encoding: 92 92 63
Width: 600
GlyphClass: 2
Flags: W
LayerCount: 2
Fore
SplineSet
292 650 m 2,0,-1
 472 -46 l 2,1,2
 474 -54 474 -54 474 -57 c 0,3,4
 474 -66 474 -66 466.5 -73.5 c 128,-1,5
 459 -81 459 -81 449 -81 c 0,6,7
 436 -81 436 -81 432 -63 c 2,8,-1
 252 633 l 2,9,10
 250 641 250 641 250 644 c 0,11,12
 250 653 250 653 257.5 660.5 c 128,-1,13
 265 668 265 668 275 668 c 0,14,15
 288 668 288 668 292 650 c 2,0,-1
EndSplineSet
EndChar

StartChar: bracketright
Encoding: 93 93 64
Width: 600
GlyphClass: 2
Flags: W
LayerCount: 2
Fore
SplineSet
261 -83 m 1,0,-1
 398 563 l 1,1,-1
 301 563 l 2,2,3
 278 563 278 563 278 579 c 0,4,5
 278 604 278 604 310 604 c 2,6,-1
 448 604 l 1,7,-1
 293 -124 l 1,8,-1
 155 -124 l 2,9,10
 132 -124 132 -124 132 -108 c 0,11,12
 132 -83 132 -83 164 -83 c 2,13,-1
 261 -83 l 1,0,-1
EndSplineSet
EndChar

StartChar: asciicircum
Encoding: 94 94 65
Width: 600
GlyphClass: 2
Flags: W
LayerCount: 2
Fore
SplineSet
430 615 m 1,0,-1
 562 392 l 2,1,2
 567 384 567 384 567 378 c 0,3,4
 567 369 567 369 559 361.5 c 128,-1,5
 551 354 551 354 542 354 c 0,6,7
 532 354 532 354 524 367 c 2,8,-1
 417 552 l 1,9,-1
 231 367 l 2,10,11
 218 354 218 354 208 354 c 0,12,13
 192 354 192 354 192 370 c 0,14,15
 192 379 192 379 205 392 c 2,16,-1
 430 615 l 1,0,-1
EndSplineSet
EndChar

StartChar: underscore
Encoding: 95 95 66
Width: 600
GlyphClass: 2
Flags: W
LayerCount: 2
Fore
SplineSet
564 -75 m 1,0,-1
 564 -125 l 1,1,-1
 -61 -125 l 1,2,-1
 -61 -75 l 1,3,-1
 564 -75 l 1,0,-1
EndSplineSet
EndChar

StartChar: quoteleft
Encoding: 8216 8216 67
Width: 600
GlyphClass: 2
Flags: W
LayerCount: 2
Fore
SplineSet
522 604 m 1,0,-1
 544 379 l 1,1,-1
 544 376 l 2,2,3
 544 363 544 363 533 353 c 128,-1,4
 522 343 522 343 508 343 c 0,5,6
 491 343 491 343 482 365 c 2,7,-1
 388 604 l 1,8,-1
 522 604 l 1,0,-1
EndSplineSet
EndChar

StartChar: a
Encoding: 97 97 68
Width: 600
GlyphClass: 2
Flags: W
LayerCount: 2
Fore
SplineSet
419 0 m 1,0,-1
 433 67 l 1,1,2
 327 -16 327 -16 225 -16 c 0,3,4
 163 -16 163 -16 128 11.5 c 128,-1,5
 93 39 93 39 93 87 c 0,6,7
 93 160 93 160 163.5 209 c 128,-1,8
 234 258 234 258 338 258 c 0,9,10
 396 258 396 258 470 237 c 1,11,-1
 485 308 l 2,12,13
 486 313 486 313 486 322 c 0,14,15
 486 353 486 353 457 371.5 c 128,-1,16
 428 390 428 390 379 390 c 0,17,18
 331 390 331 390 231 360 c 0,19,20
 221 358 221 358 220 358 c 0,21,22
 214 358 214 358 209.5 362.5 c 128,-1,23
 205 367 205 367 205 374 c 0,24,25
 205 390 205 390 223 397 c 0,26,27
 250 408 250 408 306 419.5 c 128,-1,28
 362 431 362 431 391 431 c 0,29,30
 452 431 452 431 490 403 c 128,-1,31
 528 375 528 375 528 331 c 0,32,33
 528 324 528 324 526 308 c 2,34,-1
 469 41 l 1,35,-1
 523 41 l 2,36,37
 546 41 546 41 546 25 c 0,38,39
 546 0 546 0 514 0 c 2,40,-1
 419 0 l 1,0,-1
443 112 m 1,41,-1
 462 202 l 1,42,43
 404 217 404 217 337 217 c 0,44,45
 251 217 251 217 193 182.5 c 128,-1,46
 135 148 135 148 135 96 c 0,47,48
 135 62 135 62 160 43.5 c 128,-1,49
 185 25 185 25 231 25 c 0,50,51
 285 25 285 25 333 44.5 c 128,-1,52
 381 64 381 64 443 112 c 1,41,-1
EndSplineSet
EndChar

StartChar: b
Encoding: 98 98 69
Width: 600
GlyphClass: 2
Flags: W
LayerCount: 2
Fore
SplineSet
272 604 m 1,0,-1
 214 328 l 1,1,2
 308 431 308 431 416 431 c 0,3,4
 493 431 493 431 542 382.5 c 128,-1,5
 591 334 591 334 591 258 c 0,6,7
 591 152 591 152 507.5 68 c 128,-1,8
 424 -16 424 -16 319 -16 c 0,9,10
 211 -16 211 -16 163 88 c 1,11,-1
 144 0 l 1,12,-1
 49 0 l 2,13,14
 26 0 26 0 26 17 c 0,15,16
 26 41 26 41 58 41 c 2,17,-1
 112 41 l 1,18,-1
 223 563 l 1,19,-1
 169 563 l 2,20,21
 146 563 146 563 146 580 c 0,22,23
 146 604 146 604 177 604 c 2,24,-1
 272 604 l 1,0,-1
404 390 m 0,25,26
 319 390 319 390 251.5 321.5 c 128,-1,27
 184 253 184 253 184 167 c 0,28,29
 184 106 184 106 224.5 65.5 c 128,-1,30
 265 25 265 25 326 25 c 0,31,32
 412 25 412 25 480.5 93 c 128,-1,33
 549 161 549 161 549 247 c 0,34,35
 549 309 549 309 508 349.5 c 128,-1,36
 467 390 467 390 404 390 c 0,25,26
EndSplineSet
EndChar

StartChar: c
Encoding: 99 99 70
Width: 600
GlyphClass: 2
Flags: W
LayerCount: 2
Fore
SplineSet
551 376 m 1,0,-1
 554 389 l 2,1,2
 558 417 558 417 580 417 c 0,3,4
 587 417 587 417 591.5 412.5 c 128,-1,5
 596 408 596 408 596 402 c 0,6,7
 596 401 596 401 594 389 c 2,8,-1
 575 298 l 2,9,10
 569 270 569 270 549 270 c 0,11,12
 539 270 539 270 532 282 c 1,13,-1
 535 318 l 2,14,15
 535 322 535 322 521 338.5 c 128,-1,16
 507 355 507 355 498 362 c 0,17,18
 462 391 462 391 393 391 c 0,19,20
 282 391 282 391 216 306 c 0,21,22
 163 239 163 239 163 162 c 0,23,24
 163 101 163 101 205 62.5 c 128,-1,25
 247 24 247 24 312 24 c 0,26,27
 427 24 427 24 519 97 c 0,28,29
 532 108 532 108 539 108 c 0,30,31
 544 108 544 108 549.5 102.5 c 128,-1,32
 555 97 555 97 555 91 c 0,33,34
 555 72 555 72 501 39 c 0,35,36
 409 -17 409 -17 301 -17 c 0,37,38
 222 -17 222 -17 171.5 30.5 c 128,-1,39
 121 78 121 78 121 152 c 0,40,41
 121 264 121 264 205.5 348 c 128,-1,42
 290 432 290 432 403 432 c 0,43,44
 498 432 498 432 551 376 c 1,0,-1
EndSplineSet
EndChar

StartChar: d
Encoding: 100 100 71
Width: 600
GlyphClass: 2
Flags: W
LayerCount: 2
Fore
SplineSet
630 604 m 1,0,-1
 510 41 l 1,1,-1
 565 41 l 2,2,3
 587 41 587 41 587 25 c 0,4,5
 587 0 587 0 556 0 c 2,6,-1
 461 0 l 1,7,-1
 480 89 l 1,8,9
 387 -16 387 -16 274 -16 c 0,10,11
 200 -16 200 -16 151 33.5 c 128,-1,12
 102 83 102 83 102 157 c 0,13,14
 102 263 102 263 184.5 347 c 128,-1,15
 267 431 267 431 371 431 c 0,16,17
 480 431 480 431 530 327 c 1,18,-1
 580 563 l 1,19,-1
 526 563 l 2,20,21
 503 563 503 563 503 580 c 0,22,23
 503 604 503 604 535 604 c 2,24,-1
 630 604 l 1,0,-1
365 390 m 0,25,26
 279 390 279 390 211.5 322.5 c 128,-1,27
 144 255 144 255 144 169 c 0,28,29
 144 105 144 105 184 65 c 128,-1,30
 224 25 224 25 287 25 c 0,31,32
 374 25 374 25 441.5 93 c 128,-1,33
 509 161 509 161 509 248 c 0,34,35
 509 310 509 310 469 350 c 128,-1,36
 429 390 429 390 365 390 c 0,25,26
EndSplineSet
EndChar

StartChar: e
Encoding: 101 101 72
Width: 600
GlyphClass: 2
Flags: W
LayerCount: 2
Fore
SplineSet
562 199 m 1,0,-1
 146 199 l 1,1,2
 145 189 145 189 145 177 c 0,3,4
 145 110 145 110 191 67.5 c 128,-1,5
 237 25 237 25 310 25 c 0,6,7
 357 25 357 25 409.5 40 c 128,-1,8
 462 55 462 55 498 79 c 0,9,10
 511 86 511 86 516 86 c 0,11,12
 531 86 531 86 531 70 c 0,13,14
 531 53 531 53 491 32 c 0,15,16
 405 -16 405 -16 300 -16 c 0,17,18
 213 -16 213 -16 158.5 36 c 128,-1,19
 104 88 104 88 104 171 c 0,20,21
 104 274 104 274 188 352.5 c 128,-1,22
 272 431 272 431 383 431 c 0,23,24
 465 431 465 431 517.5 383.5 c 128,-1,25
 570 336 570 336 570 262 c 0,26,27
 570 239 570 239 562 199 c 1,0,-1
155 240 m 1,28,-1
 529 240 l 1,29,30
 530 245 530 245 530 252 c 0,31,32
 530 313 530 313 486.5 351.5 c 128,-1,33
 443 390 443 390 375 390 c 0,34,35
 302 390 302 390 242.5 349.5 c 128,-1,36
 183 309 183 309 155 240 c 1,28,-1
EndSplineSet
EndChar

StartChar: f
Encoding: 102 102 73
Width: 600
GlyphClass: 2
Flags: W
LayerCount: 2
Fore
SplineSet
351 376 m 1,0,-1
 280 41 l 1,1,-1
 457 41 l 2,2,3
 481 41 481 41 481 25 c 0,4,5
 481 14 481 14 472 7 c 128,-1,6
 463 0 463 0 449 0 c 2,7,-1
 132 0 l 2,8,9
 109 0 109 0 109 17 c 0,10,11
 109 41 109 41 141 41 c 2,12,-1
 239 41 l 1,13,-1
 310 376 l 1,14,-1
 222 376 l 2,15,16
 199 376 199 376 199 393 c 0,17,18
 199 417 199 417 231 417 c 2,19,-1
 319 417 l 1,20,-1
 332 478 l 2,21,22
 343 533 343 533 394 568.5 c 128,-1,23
 445 604 445 604 512 604 c 0,24,25
 580 604 580 604 649 591 c 0,26,27
 663 588 663 588 663 576 c 0,28,29
 663 566 663 566 655.5 558.5 c 128,-1,30
 648 551 648 551 637 551 c 0,31,32
 635 551 635 551 589 557 c 128,-1,33
 543 563 543 563 502 563 c 0,34,35
 452 563 452 563 416 539.5 c 128,-1,36
 380 516 380 516 373 478 c 2,37,-1
 360 417 l 1,38,-1
 549 417 l 2,39,40
 572 417 572 417 572 401 c 0,41,42
 572 376 572 376 540 376 c 2,43,-1
 351 376 l 1,0,-1
EndSplineSet
EndChar

StartChar: g
Encoding: 103 103 74
Width: 600
GlyphClass: 2
Flags: W
LayerCount: 2
Fore
SplineSet
511 334 m 1,0,-1
 529 417 l 1,1,-1
 624 417 l 2,2,3
 647 417 647 417 647 401 c 0,4,5
 647 376 647 376 615 376 c 2,6,-1
 561 376 l 1,7,-1
 475 -28 l 2,8,9
 462 -87 462 -87 410 -132 c 0,10,11
 349 -186 349 -186 277 -186 c 2,12,-1
 162 -186 l 2,13,14
 139 -186 139 -186 139 -170 c 0,15,16
 139 -145 139 -145 171 -145 c 2,17,-1
 287 -145 l 2,18,19
 338 -145 338 -145 381 -109 c 128,-1,20
 424 -73 424 -73 435 -22 c 2,21,-1
 463 107 l 1,22,23
 376 10 376 10 271 10 c 0,24,25
 198 10 198 10 151.5 57 c 128,-1,26
 105 104 105 104 105 177 c 0,27,28
 105 274 105 274 184 352.5 c 128,-1,29
 263 431 263 431 361 431 c 0,30,31
 466 431 466 431 511 334 c 1,0,-1
354 390 m 0,32,33
 274 390 274 390 210.5 327.5 c 128,-1,34
 147 265 147 265 147 186 c 0,35,36
 147 126 147 126 184.5 88.5 c 128,-1,37
 222 51 222 51 282 51 c 0,38,39
 364 51 364 51 427.5 114 c 128,-1,40
 491 177 491 177 491 258 c 0,41,42
 491 317 491 317 453 353.5 c 128,-1,43
 415 390 415 390 354 390 c 0,32,33
EndSplineSet
EndChar

StartChar: h
Encoding: 104 104 75
Width: 600
GlyphClass: 2
Flags: W
LayerCount: 2
Fore
SplineSet
293 604 m 1,0,-1
 239 347 l 1,1,2
 287 393 287 393 326 412 c 128,-1,3
 365 431 365 431 411 431 c 0,4,5
 471 431 471 431 507 400.5 c 128,-1,6
 543 370 543 370 543 319 c 0,7,8
 543 306 543 306 540 291 c 2,9,-1
 487 41 l 1,10,-1
 532 41 l 2,11,12
 556 41 556 41 556 25 c 0,13,14
 556 14 556 14 547 7 c 128,-1,15
 538 0 538 0 524 0 c 2,16,-1
 392 0 l 2,17,18
 369 0 369 0 369 17 c 0,19,20
 369 41 369 41 400 41 c 2,21,-1
 446 41 l 1,22,-1
 498 288 l 2,23,24
 501 298 501 298 501 309 c 0,25,26
 501 342 501 342 477 364 c 0,27,28
 451 390 451 390 396 390 c 0,29,30
 355 390 355 390 323.5 373.5 c 128,-1,31
 292 357 292 357 241 309 c 2,32,-1
 228 296 l 1,33,-1
 174 41 l 1,34,-1
 219 41 l 2,35,36
 243 41 243 41 243 25 c 0,37,38
 243 0 243 0 210 0 c 2,39,-1
 78 0 l 2,40,41
 55 0 55 0 55 17 c 0,42,43
 55 41 55 41 87 41 c 2,44,-1
 133 41 l 1,45,-1
 244 563 l 1,46,-1
 189 563 l 2,47,48
 167 563 167 563 167 580 c 0,49,50
 167 604 167 604 198 604 c 2,51,-1
 293 604 l 1,0,-1
EndSplineSet
EndChar

StartChar: i
Encoding: 105 105 76
Width: 600
GlyphClass: 2
Flags: W
LayerCount: 2
Fore
SplineSet
409 417 m 1,0,-1
 329 41 l 1,1,-1
 489 41 l 2,2,3
 513 41 513 41 513 25 c 0,4,5
 513 14 513 14 504 7 c 128,-1,6
 495 0 495 0 481 0 c 2,7,-1
 119 0 l 2,8,9
 96 0 96 0 96 16 c 0,10,11
 96 41 96 41 127 41 c 2,12,-1
 288 41 l 1,13,-1
 359 376 l 1,14,-1
 241 376 l 2,15,16
 218 376 218 376 218 393 c 0,17,18
 218 417 218 417 250 417 c 2,19,-1
 409 417 l 1,0,-1
451 624 m 1,20,-1
 429 520 l 1,21,-1
 370 520 l 1,22,-1
 392 624 l 1,23,-1
 451 624 l 1,20,-1
EndSplineSet
EndChar

StartChar: j
Encoding: 106 106 77
Width: 600
GlyphClass: 2
Flags: W
LayerCount: 2
Fore
SplineSet
497 376 m 1,0,-1
 257 376 l 2,1,2
 233 376 233 376 233 392 c 0,3,4
 233 417 233 417 266 417 c 2,5,-1
 547 417 l 1,6,-1
 452 -28 l 2,7,8
 438 -98 438 -98 385 -142 c 128,-1,9
 332 -186 332 -186 264 -186 c 2,10,-1
 135 -186 l 2,11,12
 112 -186 112 -186 112 -170 c 0,13,14
 112 -145 112 -145 144 -145 c 2,15,-1
 272 -145 l 2,16,17
 322 -145 322 -145 361.5 -112 c 128,-1,18
 401 -79 401 -79 411 -28 c 2,19,-1
 497 376 l 1,0,-1
547 624 m 1,20,-1
 525 520 l 1,21,-1
 466 520 l 1,22,-1
 488 624 l 1,23,-1
 547 624 l 1,20,-1
EndSplineSet
EndChar

StartChar: k
Encoding: 107 107 78
Width: 600
GlyphClass: 2
Flags: W
LayerCount: 2
Fore
SplineSet
223 180 m 1,0,-1
 185 0 l 1,1,-1
 90 0 l 2,2,3
 67 0 67 0 67 17 c 0,4,5
 67 41 67 41 99 41 c 2,6,-1
 153 41 l 1,7,-1
 264 563 l 1,8,-1
 210 563 l 2,9,10
 187 563 187 563 187 580 c 0,11,12
 187 604 187 604 218 604 c 2,13,-1
 314 604 l 1,14,-1
 234 229 l 1,15,-1
 438 376 l 1,16,-1
 416 376 l 2,17,18
 393 376 393 376 393 393 c 0,19,20
 393 417 393 417 425 417 c 2,21,-1
 554 417 l 2,22,23
 578 417 578 417 578 400 c 0,24,25
 578 389 578 389 569 382.5 c 128,-1,26
 560 376 560 376 546 376 c 2,27,-1
 499 376 l 1,28,-1
 314 245 l 1,29,-1
 478 41 l 1,30,-1
 523 41 l 2,31,32
 546 41 546 41 546 25 c 0,33,34
 546 14 546 14 537 7 c 128,-1,35
 528 0 528 0 514 0 c 2,36,-1
 383 0 l 2,37,38
 360 0 360 0 360 17 c 0,39,40
 360 41 360 41 392 41 c 2,41,-1
 420 41 l 1,42,-1
 278 219 l 1,43,-1
 223 180 l 1,0,-1
EndSplineSet
EndChar

StartChar: l
Encoding: 108 108 79
Width: 600
GlyphClass: 2
Flags: W
LayerCount: 2
Fore
SplineSet
449 604 m 1,0,-1
 329 41 l 1,1,-1
 489 41 l 2,2,3
 513 41 513 41 513 25 c 0,4,5
 513 14 513 14 504 7 c 128,-1,6
 495 0 495 0 481 0 c 2,7,-1
 119 0 l 2,8,9
 96 0 96 0 96 16 c 0,10,11
 96 41 96 41 127 41 c 2,12,-1
 288 41 l 1,13,-1
 399 563 l 1,14,-1
 282 563 l 2,15,16
 259 563 259 563 259 579 c 0,17,18
 259 604 259 604 291 604 c 2,19,-1
 449 604 l 1,0,-1
EndSplineSet
EndChar

StartChar: m
Encoding: 109 109 80
Width: 600
GlyphClass: 2
Flags: W
LayerCount: 2
Fore
SplineSet
201 417 m 1,0,-1
 190 365 l 1,1,2
 250 431 250 431 309 431 c 0,3,4
 373 431 373 431 391 360 c 1,5,6
 461 431 461 431 519 431 c 0,7,8
 556 431 556 431 579.5 407 c 128,-1,9
 603 383 603 383 603 345 c 0,10,11
 603 335 603 335 600 323 c 2,12,-1
 541 41 l 1,13,-1
 575 41 l 2,14,15
 598 41 598 41 598 25 c 0,16,17
 598 14 598 14 589 7 c 128,-1,18
 580 0 580 0 566 0 c 2,19,-1
 492 0 l 1,20,-1
 560 319 l 2,21,22
 561 324 561 324 561 333 c 0,23,24
 561 357 561 357 546 373.5 c 128,-1,25
 531 390 531 390 509 390 c 0,26,27
 458 390 458 390 387 308 c 1,28,-1
 331 41 l 1,29,-1
 365 41 l 2,30,31
 388 41 388 41 388 25 c 0,32,33
 388 0 388 0 356 0 c 2,34,-1
 282 0 l 1,35,-1
 349 316 l 2,36,37
 351 328 351 328 351 332 c 0,38,39
 351 356 351 356 336 373 c 128,-1,40
 321 390 321 390 300 390 c 0,41,42
 249 390 249 390 178 308 c 1,43,-1
 121 41 l 1,44,-1
 155 41 l 2,45,46
 178 41 178 41 178 25 c 0,47,48
 178 14 178 14 169 7 c 128,-1,49
 160 0 160 0 146 0 c 2,50,-1
 37 0 l 2,51,52
 15 0 15 0 15 16 c 0,53,54
 15 41 15 41 47 41 c 2,55,-1
 81 41 l 1,56,-1
 152 376 l 1,57,-1
 118 376 l 2,58,59
 95 376 95 376 95 392 c 0,60,61
 95 417 95 417 127 417 c 2,62,-1
 201 417 l 1,0,-1
EndSplineSet
EndChar

StartChar: n
Encoding: 110 110 81
Width: 600
GlyphClass: 2
Flags: W
LayerCount: 2
Fore
SplineSet
256 417 m 1,0,-1
 241 348 l 1,1,2
 295 396 295 396 331.5 413.5 c 128,-1,3
 368 431 368 431 414 431 c 0,4,5
 473 431 473 431 509 400.5 c 128,-1,6
 545 370 545 370 545 319 c 0,7,8
 545 311 545 311 543 295 c 2,9,-1
 489 41 l 1,10,-1
 523 41 l 2,11,12
 546 41 546 41 546 25 c 0,13,14
 546 14 546 14 537 7 c 128,-1,15
 528 0 528 0 514 0 c 2,16,-1
 405 0 l 2,17,18
 382 0 382 0 382 16 c 0,19,20
 382 41 382 41 414 41 c 2,21,-1
 448 41 l 1,22,-1
 500 288 l 2,23,24
 502 295 502 295 502 308 c 0,25,26
 502 340 502 340 478 364 c 0,27,28
 452 390 452 390 403 390 c 0,29,30
 355 390 355 390 322 371.5 c 128,-1,31
 289 353 289 353 230 294 c 1,32,-1
 176 41 l 1,33,-1
 221 41 l 2,34,35
 244 41 244 41 244 25 c 0,36,37
 244 0 244 0 212 0 c 2,38,-1
 81 0 l 2,39,40
 57 0 57 0 57 16 c 0,41,42
 57 41 57 41 89 41 c 2,43,-1
 135 41 l 1,44,-1
 206 376 l 1,45,-1
 172 376 l 2,46,47
 149 376 149 376 149 392 c 0,48,49
 149 417 149 417 181 417 c 2,50,-1
 256 417 l 1,0,-1
EndSplineSet
EndChar

StartChar: o
Encoding: 111 111 82
Width: 600
GlyphClass: 2
Flags: W
LayerCount: 2
Fore
SplineSet
391 431 m 0,0,1
 474 431 474 431 525.5 381 c 128,-1,2
 577 331 577 331 577 252 c 0,3,4
 577 148 577 148 491 66 c 128,-1,5
 405 -16 405 -16 296 -16 c 0,6,7
 214 -16 214 -16 162.5 34 c 128,-1,8
 111 84 111 84 111 162 c 0,9,10
 111 266 111 266 197 348.5 c 128,-1,11
 283 431 283 431 391 431 c 0,0,1
382 390 m 0,12,13
 293 390 293 390 223 323 c 128,-1,14
 153 256 153 256 153 171 c 0,15,16
 153 107 153 107 195.5 66 c 128,-1,17
 238 25 238 25 305 25 c 0,18,19
 394 25 394 25 464.5 92 c 128,-1,20
 535 159 535 159 535 244 c 0,21,22
 535 309 535 309 492.5 349.5 c 128,-1,23
 450 390 450 390 382 390 c 0,12,13
EndSplineSet
EndChar

StartChar: p
Encoding: 112 112 83
Width: 600
GlyphClass: 2
Flags: W
LayerCount: 2
Fore
SplineSet
233 417 m 1,0,-1
 216 335 l 1,1,2
 266 387 266 387 312 409 c 128,-1,3
 358 431 358 431 415 431 c 0,4,5
 496 431 496 431 544.5 385.5 c 128,-1,6
 593 340 593 340 593 264 c 0,7,8
 593 164 593 164 512 87 c 128,-1,9
 431 10 431 10 326 10 c 0,10,11
 214 10 214 10 167 106 c 1,12,-1
 114 -145 l 1,13,-1
 211 -145 l 2,14,15
 235 -145 235 -145 235 -161 c 0,16,17
 235 -186 235 -186 203 -186 c 2,18,-1
 10 -186 l 2,19,20
 -13 -186 -13 -186 -13 -170 c 0,21,22
 -13 -145 -13 -145 19 -145 c 2,23,-1
 73 -145 l 1,24,-1
 183 376 l 1,25,-1
 129 376 l 2,26,27
 106 376 106 376 106 392 c 0,28,29
 106 417 106 417 138 417 c 2,30,-1
 233 417 l 1,0,-1
405 390 m 0,31,32
 320 390 320 390 254 328 c 128,-1,33
 188 266 188 266 188 187 c 0,34,35
 188 127 188 127 228.5 89 c 128,-1,36
 269 51 269 51 333 51 c 0,37,38
 418 51 418 51 484.5 113 c 128,-1,39
 551 175 551 175 551 255 c 0,40,41
 551 315 551 315 510.5 352.5 c 128,-1,42
 470 390 470 390 405 390 c 0,31,32
EndSplineSet
EndChar

StartChar: q
Encoding: 113 113 84
Width: 600
GlyphClass: 2
Flags: W
LayerCount: 2
Fore
SplineSet
532 335 m 1,0,-1
 550 417 l 1,1,-1
 645 417 l 2,2,3
 668 417 668 417 668 401 c 0,4,5
 668 376 668 376 636 376 c 2,6,-1
 582 376 l 1,7,-1
 471 -145 l 1,8,-1
 525 -145 l 2,9,10
 549 -145 549 -145 549 -161 c 0,11,12
 549 -172 549 -172 540 -179 c 128,-1,13
 531 -186 531 -186 517 -186 c 2,14,-1
 324 -186 l 2,15,16
 300 -186 300 -186 300 -170 c 0,17,18
 300 -145 300 -145 332 -145 c 2,19,-1
 430 -145 l 1,20,-1
 484 106 l 1,21,22
 395 10 395 10 284 10 c 0,23,24
 204 10 204 10 154.5 56.5 c 128,-1,25
 105 103 105 103 105 178 c 0,26,27
 105 278 105 278 186.5 354.5 c 128,-1,28
 268 431 268 431 374 431 c 0,29,30
 485 431 485 431 532 335 c 1,0,-1
365 390 m 0,31,32
 279 390 279 390 213 328 c 128,-1,33
 147 266 147 266 147 186 c 0,34,35
 147 127 147 127 188 89 c 128,-1,36
 229 51 229 51 293 51 c 0,37,38
 379 51 379 51 445.5 113 c 128,-1,39
 512 175 512 175 512 254 c 0,40,41
 512 315 512 315 471 352.5 c 128,-1,42
 430 390 430 390 365 390 c 0,31,32
EndSplineSet
EndChar

StartChar: r
Encoding: 114 114 85
Width: 600
GlyphClass: 2
Flags: W
LayerCount: 2
Fore
SplineSet
337 417 m 1,0,-1
 315 315 l 1,1,2
 399 379 399 379 446 403 c 128,-1,3
 493 427 493 427 532 427 c 0,4,5
 567 427 567 427 595 403 c 0,6,7
 619 381 619 381 619 369 c 0,8,9
 619 360 619 360 610.5 352 c 128,-1,10
 602 344 602 344 592 344 c 0,11,12
 585 344 585 344 578 352 c 0,13,14
 551 386 551 386 520 386 c 0,15,16
 486 386 486 386 444 362 c 128,-1,17
 402 338 402 338 304 262 c 1,18,-1
 257 41 l 1,19,-1
 436 41 l 2,20,21
 459 41 459 41 459 24 c 0,22,23
 459 13 459 13 450 6.5 c 128,-1,24
 441 0 441 0 427 0 c 2,25,-1
 111 0 l 2,26,27
 88 0 88 0 88 17 c 0,28,29
 88 28 88 28 97 34.5 c 128,-1,30
 106 41 106 41 120 41 c 2,31,-1
 216 41 l 1,32,-1
 287 376 l 1,33,-1
 213 376 l 2,34,35
 190 376 190 376 190 393 c 0,36,37
 190 403 190 403 198.5 410 c 128,-1,38
 207 417 207 417 221 417 c 2,39,-1
 337 417 l 1,0,-1
EndSplineSet
EndChar

StartChar: s
Encoding: 115 115 86
Width: 600
GlyphClass: 2
Flags: W
LayerCount: 2
Fore
SplineSet
110 27 m 2,0,-1
 127 110 l 2,1,2
 133 137 133 137 154 137 c 0,3,4
 161 137 161 137 165.5 132.5 c 128,-1,5
 170 128 170 128 170 122 c 0,6,7
 170 117 170 117 169 115 c 1,8,9
 167 101 167 101 167 99 c 0,10,11
 167 67 167 67 206 46 c 128,-1,12
 245 25 245 25 305 25 c 0,13,14
 377 25 377 25 428 56 c 128,-1,15
 479 87 479 87 479 130 c 0,16,17
 479 159 479 159 447 180 c 0,18,19
 415 199 415 199 344 207 c 0,20,21
 252 217 252 217 221 239 c 128,-1,22
 190 261 190 261 190 298 c 0,23,24
 190 353 190 353 247 392 c 128,-1,25
 304 431 304 431 386 431 c 0,26,27
 472 431 472 431 515 385 c 1,28,29
 521 417 521 417 542 417 c 0,30,31
 549 417 549 417 553.5 412.5 c 128,-1,32
 558 408 558 408 558 402 c 0,33,34
 558 399 558 399 556 389 c 2,35,-1
 542 320 l 2,36,37
 536 292 536 292 515 292 c 0,38,39
 506 292 506 292 499 304 c 1,40,-1
 502 335 l 2,41,42
 502 338 502 338 490.5 351.5 c 128,-1,43
 479 365 479 365 472 370 c 0,44,45
 439 391 439 391 382 391 c 0,46,47
 324 391 324 391 279.5 365.5 c 128,-1,48
 235 340 235 340 235 307 c 0,49,50
 235 295 235 295 246 282 c 128,-1,51
 257 269 257 269 273 262 c 0,52,53
 293 253 293 253 370 245 c 0,54,55
 455 235 455 235 491 206 c 0,56,57
 525 179 525 179 525 138 c 0,58,59
 525 75 525 75 458.5 29 c 128,-1,60
 392 -17 392 -17 300 -17 c 0,61,62
 204 -17 204 -17 153 38 c 1,63,-1
 150 27 l 2,64,65
 144 0 144 0 124 0 c 0,66,67
 118 0 118 0 113 4.5 c 128,-1,68
 108 9 108 9 108 15 c 128,-1,69
 108 21 108 21 110 27 c 2,0,-1
EndSplineSet
EndChar

StartChar: t
Encoding: 116 116 87
Width: 600
GlyphClass: 2
Flags: W
LayerCount: 2
Fore
SplineSet
275 417 m 1,0,-1
 495 417 l 2,1,2
 518 417 518 417 518 401 c 0,3,4
 518 390 518 390 509 383 c 128,-1,5
 500 376 500 376 486 376 c 2,6,-1
 266 376 l 1,7,-1
 209 109 l 2,8,9
 207 95 207 95 207 91 c 0,10,11
 207 61 207 61 233 43 c 128,-1,12
 259 25 259 25 303 25 c 0,13,14
 345 25 345 25 395.5 36.5 c 128,-1,15
 446 48 446 48 478 65 c 0,16,17
 490 71 490 71 496 71 c 0,18,19
 511 71 511 71 511 54 c 0,20,21
 511 38 511 38 471 20 c 0,22,23
 389 -16 389 -16 296 -16 c 0,24,25
 237 -16 237 -16 201 10 c 128,-1,26
 165 36 165 36 165 79 c 0,27,28
 165 92 165 92 168 107 c 2,29,-1
 225 376 l 1,30,-1
 151 376 l 2,31,32
 127 376 127 376 127 392 c 0,33,34
 127 417 127 417 159 417 c 2,35,-1
 234 417 l 1,36,-1
 259 536 l 2,37,38
 265 563 265 563 285 563 c 0,39,40
 302 563 302 563 302 548 c 0,41,42
 302 544 302 544 300 536 c 2,43,-1
 275 417 l 1,0,-1
EndSplineSet
EndChar

StartChar: u
Encoding: 117 117 88
Width: 600
GlyphClass: 2
Flags: W
LayerCount: 2
Fore
SplineSet
439 0 m 1,0,-1
 453 66 l 1,1,2
 355 -16 355 -16 253 -16 c 0,3,4
 203 -16 203 -16 174 10.5 c 128,-1,5
 145 37 145 37 145 82 c 0,6,7
 145 100 145 100 149 115 c 2,8,-1
 204 376 l 1,9,-1
 150 376 l 2,10,11
 127 376 127 376 127 392 c 0,12,13
 127 417 127 417 159 417 c 2,14,-1
 254 417 l 1,15,-1
 190 115 l 2,16,17
 188 109 188 109 188 97 c 0,18,19
 188 65 188 65 208.5 45 c 128,-1,20
 229 25 229 25 261 25 c 0,21,22
 362 25 362 25 464 115 c 1,23,-1
 519 376 l 1,24,-1
 445 376 l 2,25,26
 421 376 421 376 421 392 c 0,27,28
 421 417 421 417 454 417 c 2,29,-1
 569 417 l 1,30,-1
 489 41 l 1,31,-1
 523 41 l 2,32,33
 546 41 546 41 546 25 c 0,34,35
 546 0 546 0 514 0 c 2,36,-1
 439 0 l 1,0,-1
EndSplineSet
EndChar

StartChar: v
Encoding: 118 118 89
Width: 600
GlyphClass: 2
Flags: W
LayerCount: 2
Fore
SplineSet
336 0 m 1,0,-1
 266 0 l 1,1,-1
 178 376 l 1,2,-1
 137 376 l 2,3,4
 114 376 114 376 114 392 c 0,5,6
 114 417 114 417 146 417 c 2,7,-1
 297 417 l 2,8,9
 321 417 321 417 321 401 c 0,10,11
 321 376 321 376 289 376 c 2,12,-1
 223 376 l 1,13,-1
 302 41 l 1,14,-1
 321 41 l 1,15,-1
 540 376 l 1,16,-1
 471 376 l 2,17,18
 448 376 448 376 448 392 c 0,19,20
 448 417 448 417 480 417 c 2,21,-1
 632 417 l 2,22,23
 655 417 655 417 655 401 c 0,24,25
 655 376 655 376 623 376 c 2,26,-1
 582 376 l 1,27,-1
 336 0 l 1,0,-1
EndSplineSet
EndChar

StartChar: w
Encoding: 119 119 90
Width: 600
GlyphClass: 2
Flags: W
LayerCount: 2
Fore
SplineSet
442 0 m 1,0,-1
 391 0 l 1,1,-1
 356 259 l 1,2,-1
 211 0 l 1,3,-1
 160 0 l 1,4,-1
 156 376 l 1,5,-1
 137 376 l 2,6,7
 114 376 114 376 114 392 c 0,8,9
 114 417 114 417 146 417 c 2,10,-1
 257 417 l 2,11,12
 280 417 280 417 280 401 c 0,13,14
 280 376 280 376 248 376 c 2,15,-1
 195 376 l 1,16,-1
 199 56 l 1,17,-1
 339 311 l 1,18,-1
 391 311 l 1,19,-1
 425 56 l 1,20,-1
 562 376 l 1,21,-1
 512 376 l 2,22,23
 489 376 489 376 489 392 c 0,24,25
 489 417 489 417 521 417 c 2,26,-1
 632 417 l 2,27,28
 655 417 655 417 655 401 c 0,29,30
 655 376 655 376 623 376 c 2,31,-1
 604 376 l 1,32,-1
 442 0 l 1,0,-1
EndSplineSet
EndChar

StartChar: x
Encoding: 120 120 91
Width: 600
GlyphClass: 2
Flags: W
LayerCount: 2
Fore
SplineSet
375 219 m 1,0,-1
 521 41 l 1,1,-1
 531 41 l 2,2,3
 554 41 554 41 554 25 c 0,4,5
 554 14 554 14 545 7 c 128,-1,6
 536 0 536 0 522 0 c 2,7,-1
 390 0 l 2,8,9
 367 0 367 0 367 16 c 0,10,11
 367 41 367 41 399 41 c 2,12,-1
 463 41 l 1,13,-1
 340 190 l 1,14,-1
 152 41 l 1,15,-1
 220 41 l 2,16,17
 243 41 243 41 243 25 c 0,18,19
 243 14 243 14 234 7 c 128,-1,20
 225 0 225 0 211 0 c 2,21,-1
 78 0 l 2,22,23
 55 0 55 0 55 16 c 0,24,25
 55 41 55 41 87 41 c 2,26,-1
 96 41 l 1,27,-1
 318 219 l 1,28,-1
 188 376 l 1,29,-1
 181 376 l 2,30,31
 158 376 158 376 158 392 c 0,32,33
 158 417 158 417 190 417 c 2,34,-1
 301 417 l 2,35,36
 324 417 324 417 324 401 c 0,37,38
 324 376 324 376 292 376 c 2,39,-1
 246 376 l 1,40,-1
 352 246 l 1,41,-1
 517 376 l 1,42,-1
 469 376 l 2,43,44
 446 376 446 376 446 392 c 0,45,46
 446 417 446 417 478 417 c 2,47,-1
 588 417 l 2,48,49
 611 417 611 417 611 401 c 0,50,51
 611 376 611 376 579 376 c 2,52,-1
 573 376 l 1,53,-1
 375 219 l 1,0,-1
EndSplineSet
EndChar

StartChar: y
Encoding: 121 121 92
Width: 600
GlyphClass: 2
Flags: W
LayerCount: 2
Fore
SplineSet
282 0 m 1,0,-1
 175 376 l 1,1,-1
 159 376 l 2,2,3
 135 376 135 376 135 392 c 0,4,5
 135 417 135 417 167 417 c 2,6,-1
 282 417 l 2,7,8
 305 417 305 417 305 401 c 0,9,10
 305 376 305 376 273 376 c 2,11,-1
 221 376 l 1,12,-1
 315 45 l 1,13,-1
 546 376 l 1,14,-1
 492 376 l 2,15,16
 469 376 469 376 469 393 c 0,17,18
 469 417 469 417 501 417 c 2,19,-1
 611 417 l 2,20,21
 634 417 634 417 634 401 c 0,22,23
 634 376 634 376 602 376 c 2,24,-1
 589 376 l 1,25,-1
 222 -145 l 1,26,-1
 286 -145 l 2,27,28
 310 -145 310 -145 310 -161 c 0,29,30
 310 -172 310 -172 301 -179 c 128,-1,31
 292 -186 292 -186 278 -186 c 2,32,-1
 45 -186 l 2,33,34
 22 -186 22 -186 22 -170 c 0,35,36
 22 -145 22 -145 54 -145 c 2,37,-1
 180 -145 l 1,38,-1
 282 0 l 1,0,-1
EndSplineSet
EndChar

StartChar: z
Encoding: 122 122 93
Width: 600
GlyphClass: 2
Flags: W
LayerCount: 2
Fore
SplineSet
563 417 m 1,0,-1
 555 381 l 1,1,-1
 180 41 l 1,2,-1
 457 41 l 1,3,-1
 469 97 l 2,4,5
 475 124 475 124 496 124 c 0,6,7
 503 124 503 124 507.5 119.5 c 128,-1,8
 512 115 512 115 512 109 c 0,9,10
 512 104 512 104 511 101 c 2,11,-1
 510 97 l 1,12,-1
 489 0 l 1,13,-1
 115 0 l 1,14,-1
 123 36 l 1,15,-1
 497 376 l 1,16,-1
 245 376 l 1,17,-1
 233 321 l 2,18,19
 227 294 227 294 207 294 c 0,20,21
 201 294 201 294 196 298.5 c 128,-1,22
 191 303 191 303 191 309 c 2,23,-1
 192 321 l 1,24,-1
 213 417 l 1,25,-1
 563 417 l 1,0,-1
EndSplineSet
EndChar

StartChar: braceleft
Encoding: 123 123 94
Width: 600
GlyphClass: 2
Flags: W
LayerCount: 2
Fore
SplineSet
428 499 m 2,0,-1
 392 326 l 2,1,2
 380 270 380 270 329 240 c 1,3,4
 359 215 359 215 359 184 c 0,5,6
 359 169 359 169 355 154 c 2,7,-1
 319 -19 l 1,8,9
 317 -24 317 -24 317 -35 c 0,10,11
 317 -54 317 -54 329 -67.5 c 128,-1,12
 341 -81 341 -81 360 -83 c 0,13,14
 373 -85 373 -85 377.5 -88 c 128,-1,15
 382 -91 382 -91 382 -100 c 0,16,17
 382 -110 382 -110 373.5 -117 c 128,-1,18
 365 -124 365 -124 353 -124 c 0,19,20
 319 -124 319 -124 297 -101 c 128,-1,21
 275 -78 275 -78 275 -43 c 0,22,23
 275 -31 275 -31 278 -19 c 2,24,-1
 314 154 l 2,25,26
 316 164 316 164 316 170 c 0,27,28
 316 191 316 191 303 204.5 c 128,-1,29
 290 218 290 218 268 219 c 0,30,31
 248 219 248 219 248 235 c 0,32,33
 248 259 248 259 277 261 c 0,34,35
 304 263 304 263 324.5 280.5 c 128,-1,36
 345 298 345 298 351 326 c 2,37,-1
 388 499 l 2,38,39
 397 543 397 543 432 573.5 c 128,-1,40
 467 604 467 604 509 604 c 0,41,42
 528 604 528 604 528 588 c 0,43,44
 528 566 528 566 497 563 c 0,45,46
 472 560 472 560 453 542.5 c 128,-1,47
 434 525 434 525 428 499 c 2,0,-1
EndSplineSet
EndChar

StartChar: bar
Encoding: 124 124 95
Width: 600
GlyphClass: 2
Flags: W
LayerCount: 2
Fore
SplineSet
442 577 m 2,0,-1
 299 -97 l 2,1,2
 293 -124 293 -124 273 -124 c 0,3,4
 266 -124 266 -124 261.5 -119.5 c 128,-1,5
 257 -115 257 -115 257 -109 c 0,6,7
 257 -105 257 -105 259 -97 c 2,8,-1
 402 577 l 2,9,10
 408 604 408 604 428 604 c 0,11,12
 435 604 435 604 439.5 599.5 c 128,-1,13
 444 595 444 595 444 589 c 0,14,15
 444 585 444 585 442 577 c 2,0,-1
EndSplineSet
EndChar

StartChar: braceright
Encoding: 125 125 96
Width: 600
GlyphClass: 2
Flags: W
LayerCount: 2
Fore
SplineSet
275 -19 m 2,0,-1
 311 154 l 2,1,2
 323 210 323 210 374 240 c 1,3,4
 344 265 344 265 344 296 c 0,5,6
 344 311 344 311 348 326 c 2,7,-1
 384 499 l 1,8,9
 386 504 386 504 386 515 c 0,10,11
 386 534 386 534 374 547.5 c 128,-1,12
 362 561 362 561 343 563 c 0,13,14
 330 565 330 565 325.5 568 c 128,-1,15
 321 571 321 571 321 580 c 0,16,17
 321 590 321 590 329.5 597 c 128,-1,18
 338 604 338 604 350 604 c 0,19,20
 384 604 384 604 406 581.5 c 128,-1,21
 428 559 428 559 428 524 c 0,22,23
 428 511 428 511 425 499 c 2,24,-1
 389 326 l 2,25,26
 387 316 387 316 387 311 c 0,27,28
 387 289 387 289 400 275.5 c 128,-1,29
 413 262 413 262 435 261 c 0,30,31
 455 261 455 261 455 245 c 0,32,33
 455 221 455 221 426 219 c 0,34,35
 399 217 399 217 378.5 199.5 c 128,-1,36
 358 182 358 182 352 154 c 2,37,-1
 315 -19 l 2,38,39
 306 -63 306 -63 271 -93.5 c 128,-1,40
 236 -124 236 -124 194 -124 c 0,41,42
 175 -124 175 -124 175 -108 c 0,43,44
 175 -86 175 -86 206 -83 c 0,45,46
 231 -80 231 -80 250 -62.5 c 128,-1,47
 269 -45 269 -45 275 -19 c 2,0,-1
EndSplineSet
EndChar

StartChar: asciitilde
Encoding: 126 126 97
Width: 600
GlyphClass: 2
Flags: W
LayerCount: 2
Fore
SplineSet
558 330 m 0,0,1
 565 330 565 330 570 325.5 c 128,-1,2
 575 321 575 321 575 315 c 0,3,4
 575 302 575 302 541 271 c 0,5,6
 479 212 479 212 433 212 c 0,7,8
 410 212 410 212 390 224.5 c 128,-1,9
 370 237 370 237 332 277 c 0,10,11
 302 307 302 307 278 307 c 0,12,13
 258 307 258 307 241.5 296 c 128,-1,14
 225 285 225 285 183 242 c 0,15,16
 170 230 170 230 161 230 c 0,17,18
 154 230 154 230 149.5 234.5 c 128,-1,19
 145 239 145 239 145 245 c 0,20,21
 145 257 145 257 183 294 c 0,22,23
 243 348 243 348 287 348 c 0,24,25
 317 348 317 348 349 323 c 2,26,-1
 372 301 l 2,27,28
 376 296 376 296 391 282 c 0,29,30
 422 253 422 253 440 253 c 0,31,32
 476 253 476 253 524 305 c 0,33,34
 547 330 547 330 558 330 c 0,0,1
EndSplineSet
EndChar

StartChar: exclamdown
Encoding: 161 161 98
Width: 600
GlyphClass: 2
Flags: W
LayerCount: 2
Fore
SplineSet
227 -161 m 2,0,-1
 315 165 l 2,1,2
 322 193 322 193 342 193 c 0,3,4
 348 193 348 193 352.5 188.5 c 128,-1,5
 357 184 357 184 357 178 c 0,6,7
 357 171 357 171 356 165 c 2,8,-1
 305 -161 l 2,9,10
 296 -216 296 -216 254 -216 c 0,11,12
 241 -216 241 -216 231.5 -207.5 c 128,-1,13
 222 -199 222 -199 222 -187 c 0,14,15
 222 -181 222 -181 227 -161 c 2,0,-1
374 317 m 2,16,-1
 362 317 l 2,17,18
 342 317 342 317 329 328 c 128,-1,19
 316 339 316 339 316 357 c 0,20,21
 316 381 316 381 336 399 c 128,-1,22
 356 417 356 417 383 417 c 2,23,-1
 395 417 l 2,24,25
 414 417 414 417 426.5 406 c 128,-1,26
 439 395 439 395 439 378 c 0,27,28
 439 353 439 353 419.5 335 c 128,-1,29
 400 317 400 317 374 317 c 2,16,-1
EndSplineSet
EndChar

StartChar: cent
Encoding: 162 162 99
Width: 600
GlyphClass: 2
Flags: W
LayerCount: 2
Fore
SplineSet
385 496 m 1,0,-1
 408 603 l 2,1,2
 414 630 414 630 434 630 c 0,3,4
 451 630 451 630 451 614 c 0,5,6
 451 611 451 611 449 603 c 2,7,-1
 427 497 l 1,8,9
 490 497 490 497 523 461 c 1,10,11
 532 478 532 478 546 478 c 0,12,13
 563 478 563 478 563 461 c 0,14,15
 563 456 563 456 562 453 c 2,16,-1
 549 392 l 2,17,18
 543 363 543 363 523 363 c 0,19,20
 519 363 519 363 513 367.5 c 128,-1,21
 507 372 507 372 507 375 c 2,22,-1
 509 404 l 2,23,24
 509 408 509 408 500 420.5 c 128,-1,25
 491 433 491 433 484 438 c 0,26,27
 458 459 458 459 407 459 c 0,28,29
 330 459 330 459 273 404.5 c 128,-1,30
 216 350 216 350 216 277 c 0,31,32
 216 229 216 229 251.5 196.5 c 128,-1,33
 287 164 287 164 339 164 c 0,34,35
 416 164 416 164 477 207 c 0,36,37
 490 216 490 216 496 216 c 0,38,39
 501 216 501 216 506.5 211.5 c 128,-1,40
 512 207 512 207 512 202 c 0,41,42
 512 181 512 181 474 163 c 0,43,44
 408 130 408 130 348 127 c 1,45,-1
 324 14 l 2,46,47
 318 -13 318 -13 297 -13 c 0,48,49
 291 -13 291 -13 286 -8.5 c 128,-1,50
 281 -4 281 -4 281 2 c 0,51,52
 281 7 281 7 282 10 c 2,53,-1
 283 14 l 1,54,-1
 307 127 l 1,55,56
 247 135 247 135 211 174.5 c 128,-1,57
 175 214 175 214 175 273 c 0,58,59
 175 317 175 317 197 361.5 c 128,-1,60
 219 406 219 406 256 437 c 0,61,62
 304 478 304 478 385 496 c 1,0,-1
EndSplineSet
EndChar

StartChar: sterling
Encoding: 163 163 100
Width: 600
GlyphClass: 2
Flags: W
LayerCount: 2
Fore
SplineSet
191 41 m 1,0,-1
 443 41 l 2,1,2
 483 41 483 41 499 92 c 0,3,4
 506 115 506 115 525 115 c 0,5,6
 532 115 532 115 536.5 110.5 c 128,-1,7
 541 106 541 106 541 100 c 0,8,9
 541 73 541 73 514 41 c 0,10,11
 481 0 481 0 436 0 c 2,12,-1
 113 0 l 2,13,14
 90 0 90 0 90 17 c 0,15,16
 90 27 90 27 97.5 33.5 c 128,-1,17
 105 40 105 40 117 40 c 0,18,19
 161 41 161 41 205 117 c 128,-1,20
 249 193 249 193 252 273 c 1,21,-1
 148 273 l 2,22,23
 125 273 125 273 125 290 c 0,24,25
 125 314 125 314 157 314 c 2,26,-1
 251 314 l 1,27,28
 245 361 245 361 245 393 c 0,29,30
 245 468 245 468 297.5 523 c 128,-1,31
 350 578 350 578 421 578 c 0,32,33
 475 578 475 578 511 539 c 0,34,35
 533 515 533 515 533 499 c 0,36,37
 533 491 533 491 525 483.5 c 128,-1,38
 517 476 517 476 508 476 c 0,39,40
 500 476 500 476 493 488 c 0,41,42
 464 537 464 537 413 537 c 0,43,44
 363 537 363 537 323 495 c 0,45,46
 287 455 287 455 287 396 c 0,47,48
 287 379 287 379 291 328 c 2,49,-1
 292 314 l 1,50,-1
 391 314 l 2,51,52
 414 314 414 314 414 298 c 0,53,54
 414 273 414 273 382 273 c 2,55,-1
 292 273 l 1,56,57
 290 210 290 210 262 145.5 c 128,-1,58
 234 81 234 81 191 41 c 1,0,-1
EndSplineSet
EndChar

StartChar: fraction
Encoding: 8260 8260 101
Width: 600
GlyphClass: 2
Flags: W
LayerCount: 2
Fore
SplineSet
625 430 m 2,0,-1
 119 146 l 1,1,-1
 114 143 l 2,2,3
 106 138 106 138 100 138 c 0,4,5
 93 138 93 138 88.5 143 c 128,-1,6
 84 148 84 148 84 155 c 0,7,8
 84 169 84 169 104 180 c 2,9,-1
 610 464 l 2,10,11
 620 470 620 470 629 470 c 0,12,13
 635 470 635 470 640 465.5 c 128,-1,14
 645 461 645 461 645 454 c 0,15,16
 645 441 645 441 625 430 c 2,0,-1
EndSplineSet
EndChar

StartChar: yen
Encoding: 165 165 102
Width: 600
GlyphClass: 2
Flags: W
LayerCount: 2
Fore
SplineSet
372 238 m 1,0,-1
 359 178 l 1,1,-1
 490 178 l 2,2,3
 508 178 508 178 508 167 c 0,4,5
 508 141 508 141 482 141 c 2,6,-1
 351 141 l 1,7,-1
 330 41 l 1,8,-1
 416 41 l 2,9,10
 439 41 439 41 439 25 c 0,11,12
 439 14 439 14 430 7 c 128,-1,13
 421 0 421 0 407 0 c 2,14,-1
 194 0 l 2,15,16
 171 0 171 0 171 16 c 0,17,18
 171 41 171 41 203 41 c 2,19,-1
 289 41 l 1,20,-1
 310 141 l 1,21,-1
 180 141 l 2,22,23
 161 141 161 141 161 153 c 0,24,25
 161 178 161 178 187 178 c 2,26,-1
 318 178 l 1,27,-1
 331 238 l 1,28,-1
 200 238 l 2,29,30
 182 238 182 238 182 250 c 0,31,32
 182 275 182 275 208 275 c 2,33,-1
 324 275 l 1,34,-1
 213 522 l 1,35,-1
 189 522 l 2,36,37
 166 522 166 522 166 538 c 0,38,39
 166 563 166 563 198 563 c 2,40,-1
 308 563 l 2,41,42
 331 563 331 563 331 547 c 0,43,44
 331 522 331 522 299 522 c 2,45,-1
 260 522 l 1,46,-1
 363 295 l 1,47,-1
 562 522 l 1,48,-1
 523 522 l 2,49,50
 500 522 500 522 500 539 c 0,51,52
 500 563 500 563 532 563 c 2,53,-1
 642 563 l 2,54,55
 665 563 665 563 665 546 c 0,56,57
 665 522 665 522 633 522 c 2,58,-1
 609 522 l 1,59,-1
 392 275 l 1,60,-1
 510 275 l 2,61,62
 529 275 529 275 529 264 c 0,63,64
 529 238 529 238 503 238 c 2,65,-1
 372 238 l 1,0,-1
EndSplineSet
EndChar

StartChar: florin
Encoding: 402 402 103
Width: 600
GlyphClass: 2
Flags: W
LayerCount: 2
Fore
SplineSet
401 375 m 1,0,-1
 497 375 l 2,1,2
 520 375 520 375 520 359 c 0,3,4
 520 334 520 334 488 334 c 2,5,-1
 392 334 l 1,6,-1
 333 58 l 2,7,8
 319 -5 319 -5 267 -49 c 128,-1,9
 215 -93 215 -93 154 -93 c 0,10,11
 122 -93 122 -93 98 -84 c 128,-1,12
 74 -75 74 -75 74 -63 c 0,13,14
 74 -54 74 -54 81 -46.5 c 128,-1,15
 88 -39 88 -39 97 -39 c 0,16,17
 101 -39 101 -39 127 -47 c 0,18,19
 140 -52 140 -52 163 -52 c 0,20,21
 209 -52 209 -52 246 -19.5 c 128,-1,22
 283 13 283 13 294 64 c 2,23,-1
 351 334 l 1,24,-1
 255 334 l 2,25,26
 232 334 232 334 232 351 c 0,27,28
 232 375 232 375 263 375 c 2,29,-1
 360 375 l 1,30,-1
 378 462 l 2,31,32
 392 527 392 527 445.5 572.5 c 128,-1,33
 499 618 499 618 562 618 c 0,34,35
 605 618 605 618 633 604 c 0,36,37
 643 600 643 600 643 591 c 0,38,39
 643 581 643 581 635.5 573.5 c 128,-1,40
 628 566 628 566 620 566 c 0,41,42
 615 566 615 566 595 572 c 0,43,44
 582 577 582 577 559 577 c 0,45,46
 507 577 507 577 468.5 545.5 c 128,-1,47
 430 514 430 514 419 462 c 2,48,-1
 401 375 l 1,0,-1
EndSplineSet
EndChar

StartChar: section
Encoding: 167 167 104
Width: 600
GlyphClass: 2
Flags: W
LayerCount: 2
Fore
SplineSet
624 603 m 1,0,-1
 601 494 l 2,1,2
 595 469 595 469 575 469 c 0,3,4
 567 469 567 469 562 473.5 c 128,-1,5
 557 478 557 478 558 484 c 2,6,-1
 560 494 l 1,7,-1
 574 563 l 1,8,-1
 406 563 l 2,9,10
 365 563 365 563 331.5 535.5 c 128,-1,11
 298 508 298 508 298 474 c 0,12,13
 298 451 298 451 324 426.5 c 128,-1,14
 350 402 350 402 421 358 c 2,15,-1
 470 327 l 2,16,17
 526 293 526 293 550.5 263.5 c 128,-1,18
 575 234 575 234 575 202 c 0,19,20
 575 160 575 160 538 132 c 0,21,22
 508 108 508 108 453 101 c 1,23,24
 458 88 458 88 458 75 c 0,25,26
 458 20 458 20 410.5 -21 c 128,-1,27
 363 -62 363 -62 298 -62 c 2,28,-1
 91 -62 l 1,29,-1
 115 49 l 2,30,31
 120 73 120 73 140 73 c 0,32,33
 157 73 157 73 157 58 c 2,34,-1
 156 49 l 1,35,-1
 141 -22 l 1,36,-1
 306 -22 l 2,37,38
 350 -22 350 -22 383 4.5 c 128,-1,39
 416 31 416 31 416 65 c 0,40,41
 416 88 416 88 391 113.5 c 128,-1,42
 366 139 366 139 309 175 c 2,43,-1
 252 211 l 2,44,45
 140 281 140 281 140 345 c 0,46,47
 140 382 140 382 175 409.5 c 128,-1,48
 210 437 210 437 262 441 c 1,49,50
 257 454 257 454 257 468 c 0,51,52
 257 519 257 519 305 561 c 128,-1,53
 353 603 353 603 412 603 c 2,54,-1
 624 603 l 1,0,-1
445 290 m 2,55,-1
 388 326 l 2,56,57
 314 372 314 372 286 403 c 1,58,59
 282 402 282 402 275 402 c 2,60,-1
 268 402 l 2,61,62
 233 402 233 402 208.5 387 c 128,-1,63
 184 372 184 372 184 350 c 0,64,65
 184 307 184 307 285 243 c 2,66,-1
 340 208 l 2,67,68
 407 166 407 166 429 139 c 1,69,70
 433 141 433 141 447 142 c 0,71,72
 485 143 485 143 508 156.5 c 128,-1,73
 531 170 531 170 531 192 c 0,74,75
 531 213 531 213 508 239.5 c 128,-1,76
 485 266 485 266 445 290 c 2,55,-1
EndSplineSet
EndChar

StartChar: currency
Encoding: 164 164 105
Width: 600
GlyphClass: 2
Flags: W
LayerCount: 2
Fore
SplineSet
233 162 m 1,0,-1
 165 106 l 2,1,2
 151 95 151 95 144 95 c 0,3,4
 127 95 127 95 127 111 c 0,5,6
 127 121 127 121 142 135 c 2,7,-1
 210 191 l 1,8,9
 193 227 193 227 193 259 c 0,10,11
 193 293 193 293 209.5 330 c 128,-1,12
 226 367 226 367 253 394 c 1,13,-1
 209 450 l 2,14,15
 202 458 202 458 202 465 c 0,16,17
 202 474 202 474 210 481.5 c 128,-1,18
 218 489 218 489 227 489 c 0,19,20
 237 489 237 489 244 478 c 2,21,-1
 288 423 l 1,22,23
 341 458 341 458 399 458 c 0,24,25
 455 458 455 458 492 423 c 1,26,-1
 559 478 l 2,27,28
 571 489 571 489 580 489 c 0,29,30
 597 489 597 489 597 473 c 0,31,32
 597 461 597 461 582 450 c 2,33,-1
 515 394 l 1,34,35
 532 364 532 364 532 327 c 0,36,37
 532 252 532 252 471 191 c 1,38,-1
 515 135 l 2,39,40
 516 134 516 134 521 119 c 1,41,42
 521 111 521 111 513 103 c 128,-1,43
 505 95 505 95 495 95 c 0,44,45
 487 95 487 95 479 106 c 2,46,-1
 436 162 l 1,47,48
 384 127 384 127 326 127 c 0,49,50
 273 127 273 127 233 162 c 1,0,-1
388 417 m 0,51,52
 329 417 329 417 282 371 c 128,-1,53
 235 325 235 325 235 267 c 0,54,55
 235 224 235 224 263 196 c 128,-1,56
 291 168 291 168 334 168 c 0,57,58
 394 168 394 168 441.5 214 c 128,-1,59
 489 260 489 260 489 318 c 0,60,61
 489 361 489 361 460.5 389 c 128,-1,62
 432 417 432 417 388 417 c 0,51,52
EndSplineSet
EndChar

StartChar: quotesingle
Encoding: 39 39 106
Width: 600
GlyphClass: 2
Flags: W
LayerCount: 2
Fore
SplineSet
364 604 m 1,0,-1
 492 604 l 1,1,-1
 405 351 l 2,2,3
 392 315 392 315 367 315 c 0,4,5
 344 315 344 315 344 341 c 2,6,-1
 344 351 l 1,7,-1
 364 604 l 1,0,-1
EndSplineSet
EndChar

StartChar: quotedblleft
Encoding: 8220 8220 107
Width: 600
GlyphClass: 2
Flags: W
LayerCount: 2
Fore
SplineSet
564 604 m 1,0,-1
 586 379 l 1,1,-1
 586 376 l 2,2,3
 586 363 586 363 575 353 c 128,-1,4
 564 343 564 343 550 343 c 0,5,6
 532 343 532 343 524 365 c 2,7,-1
 438 604 l 1,8,-1
 564 604 l 1,0,-1
347 604 m 1,9,-1
 369 379 l 1,10,-1
 369 376 l 2,11,12
 369 363 369 363 358 353 c 128,-1,13
 347 343 347 343 333 343 c 0,14,15
 315 343 315 343 307 365 c 2,16,-1
 221 604 l 1,17,-1
 347 604 l 1,9,-1
EndSplineSet
EndChar

StartChar: guillemotleft
Encoding: 171 171 108
Width: 600
GlyphClass: 2
Flags: W
LayerCount: 2
Fore
SplineSet
108 209 m 1,0,-1
 358 406 l 2,1,2
 372 417 372 417 381 417 c 0,3,4
 397 417 397 417 397 401 c 0,5,6
 397 391 397 391 382 377 c 2,7,-1
 203 209 l 1,8,-1
 310 40 l 2,9,10
 317 31 317 31 317 25 c 0,11,12
 317 15 317 15 309.5 7.5 c 128,-1,13
 302 0 302 0 292 0 c 0,14,15
 283 0 283 0 274 11 c 2,16,-1
 108 209 l 1,0,-1
337 209 m 1,17,-1
 586 406 l 2,18,19
 601 417 601 417 610 417 c 0,20,21
 626 417 626 417 626 401 c 0,22,23
 626 391 626 391 611 377 c 2,24,-1
 432 209 l 1,25,-1
 539 40 l 2,26,27
 546 31 546 31 546 25 c 0,28,29
 546 15 546 15 538.5 7.5 c 128,-1,30
 531 0 531 0 521 0 c 0,31,32
 512 0 512 0 503 11 c 2,33,-1
 337 209 l 1,17,-1
EndSplineSet
EndChar

StartChar: guilsinglleft
Encoding: 8249 8249 109
Width: 600
GlyphClass: 2
Flags: W
LayerCount: 2
Fore
SplineSet
108 209 m 1,0,-1
 357 406 l 2,1,2
 372 417 372 417 381 417 c 0,3,4
 397 417 397 417 397 401 c 0,5,6
 397 391 397 391 382 377 c 2,7,-1
 203 209 l 1,8,-1
 310 40 l 2,9,10
 317 31 317 31 317 25 c 0,11,12
 317 15 317 15 309.5 7.5 c 128,-1,13
 302 0 302 0 292 0 c 0,14,15
 283 0 283 0 274 11 c 2,16,-1
 108 209 l 1,0,-1
EndSplineSet
EndChar

StartChar: guilsinglright
Encoding: 8250 8250 110
Width: 600
GlyphClass: 2
Flags: W
LayerCount: 2
Fore
SplineSet
585 208 m 1,0,-1
 337 11 l 2,1,2
 323 0 323 0 313 0 c 0,3,4
 297 0 297 0 297 16 c 0,5,6
 297 26 297 26 312 40 c 2,7,-1
 490 208 l 1,8,-1
 384 377 l 2,9,10
 377 386 377 386 377 392 c 0,11,12
 377 402 377 402 384.5 409.5 c 128,-1,13
 392 417 392 417 402 417 c 0,14,15
 411 417 411 417 420 406 c 2,16,-1
 585 208 l 1,0,-1
EndSplineSet
EndChar

StartChar: fi
Encoding: 64257 64257 111
Width: 600
GlyphClass: 3
Flags: W
LayerCount: 2
Fore
SplineSet
241 376 m 1,0,-1
 170 41 l 1,1,-1
 241 41 l 2,2,3
 265 41 265 41 265 25 c 0,4,5
 265 14 265 14 256 7 c 128,-1,6
 247 0 247 0 233 0 c 2,7,-1
 37 0 l 2,8,9
 14 0 14 0 14 16 c 0,10,11
 14 41 14 41 46 41 c 2,12,-1
 129 41 l 1,13,-1
 200 376 l 1,14,-1
 123 376 l 2,15,16
 100 376 100 376 100 393 c 0,17,18
 100 417 100 417 131 417 c 2,19,-1
 209 417 l 1,20,-1
 221 476 l 2,21,22
 233 530 233 530 272 567 c 128,-1,23
 311 604 311 604 357 604 c 0,24,25
 394 604 394 604 428 589 c 0,26,27
 440 584 440 584 440 573 c 0,28,29
 440 564 440 564 433 556.5 c 128,-1,30
 426 549 426 549 417 549 c 0,31,32
 414 549 414 549 404 552 c 0,33,34
 371 563 371 563 348 563 c 0,35,36
 319 563 319 563 294.5 538 c 128,-1,37
 270 513 270 513 262 476 c 2,38,-1
 250 417 l 1,39,-1
 321 417 l 2,40,41
 345 417 345 417 345 401 c 0,42,43
 345 390 345 390 336 383 c 128,-1,44
 327 376 327 376 313 376 c 2,45,-1
 241 376 l 1,0,-1
572 417 m 1,46,-1
 492 41 l 1,47,-1
 567 41 l 2,48,49
 590 41 590 41 590 25 c 0,50,51
 590 14 590 14 581 7 c 128,-1,52
 572 0 572 0 558 0 c 2,53,-1
 365 0 l 2,54,55
 342 0 342 0 342 16 c 0,56,57
 342 41 342 41 374 41 c 2,58,-1
 451 41 l 1,59,-1
 522 376 l 1,60,-1
 465 376 l 2,61,62
 442 376 442 376 442 392 c 0,63,64
 442 417 442 417 474 417 c 2,65,-1
 572 417 l 1,46,-1
615 624 m 1,66,-1
 593 520 l 1,67,-1
 534 520 l 1,68,-1
 556 624 l 1,69,-1
 615 624 l 1,66,-1
EndSplineSet
LCarets2: 1 0 
Ligature2: "'liga' Standard Ligatures in Latin lookup 0 subtable" f i
EndChar

StartChar: fl
Encoding: 64258 64258 112
Width: 600
GlyphClass: 3
Flags: W
LayerCount: 2
Fore
SplineSet
241 376 m 1,0,-1
 170 41 l 1,1,-1
 241 41 l 2,2,3
 265 41 265 41 265 25 c 0,4,5
 265 0 265 0 232 0 c 2,6,-1
 37 0 l 2,7,8
 14 0 14 0 14 16 c 0,9,10
 14 41 14 41 46 41 c 2,11,-1
 129 41 l 1,12,-1
 200 376 l 1,13,-1
 123 376 l 2,14,15
 100 376 100 376 100 393 c 0,16,17
 100 417 100 417 131 417 c 2,18,-1
 209 417 l 1,19,-1
 221 476 l 2,20,21
 232 529 232 529 271.5 566.5 c 128,-1,22
 311 604 311 604 356 604 c 0,23,24
 393 604 393 604 427 589 c 0,25,26
 439 584 439 584 439 573 c 0,27,28
 439 564 439 564 432 556.5 c 128,-1,29
 425 549 425 549 416 549 c 0,30,31
 413 549 413 549 403 552 c 0,32,33
 367 563 367 563 347 563 c 0,34,35
 319 563 319 563 294.5 538 c 128,-1,36
 270 513 270 513 262 476 c 2,37,-1
 250 417 l 1,38,-1
 321 417 l 2,39,40
 345 417 345 417 345 401 c 0,41,42
 345 376 345 376 312 376 c 2,43,-1
 241 376 l 1,0,-1
611 604 m 1,44,-1
 491 41 l 1,45,-1
 569 41 l 2,46,47
 591 41 591 41 591 25 c 0,48,49
 591 0 591 0 560 0 c 2,50,-1
 365 0 l 2,51,52
 342 0 342 0 342 16 c 0,53,54
 342 41 342 41 373 41 c 2,55,-1
 450 41 l 1,56,-1
 561 563 l 1,57,-1
 504 563 l 2,58,59
 481 563 481 563 481 580 c 0,60,61
 481 604 481 604 513 604 c 2,62,-1
 611 604 l 1,44,-1
EndSplineSet
Ligature2: "'liga' Standard Ligatures in Latin lookup 0 subtable" f l
EndChar

StartChar: endash
Encoding: 8211 8211 113
Width: 600
GlyphClass: 2
Flags: W
LayerCount: 2
Fore
SplineSet
556 261 m 2,0,-1
 154 261 l 2,1,2
 131 261 131 261 131 277 c 0,3,4
 131 302 131 302 163 302 c 2,5,-1
 565 302 l 2,6,7
 588 302 588 302 588 286 c 0,8,9
 588 261 588 261 556 261 c 2,0,-1
EndSplineSet
EndChar

StartChar: dagger
Encoding: 8224 8224 114
Width: 600
GlyphClass: 2
Flags: W
LayerCount: 2
Fore
SplineSet
400 376 m 1,0,-1
 313 -36 l 2,1,2
 307 -63 307 -63 286 -63 c 0,3,4
 279 -63 279 -63 274.5 -58.5 c 128,-1,5
 270 -54 270 -54 270 -48 c 128,-1,6
 270 -42 270 -42 272 -36 c 2,7,-1
 359 376 l 1,8,-1
 231 376 l 2,9,10
 208 376 208 376 208 392 c 0,11,12
 208 405 208 405 222 414 c 0,13,14
 223 415 223 415 233 417 c 0,15,16
 235 417 235 417 240 418 c 1,17,-1
 368 418 l 1,18,-1
 402 577 l 2,19,20
 406 604 406 604 428 604 c 0,21,22
 435 604 435 604 439.5 599.5 c 128,-1,23
 444 595 444 595 444 589 c 2,24,-1
 443 577 l 1,25,-1
 409 417 l 1,26,-1
 537 417 l 2,27,28
 561 417 561 417 561 401 c 0,29,30
 561 376 561 376 529 376 c 2,31,-1
 400 376 l 1,0,-1
EndSplineSet
EndChar

StartChar: daggerdbl
Encoding: 8225 8225 115
Width: 600
GlyphClass: 2
Flags: W
LayerCount: 2
Fore
SplineSet
400 376 m 1,0,-1
 355 165 l 1,1,-1
 483 165 l 2,2,3
 507 165 507 165 507 149 c 0,4,5
 507 124 507 124 475 124 c 2,6,-1
 346 124 l 1,7,-1
 312 -35 l 2,8,9
 308 -62 308 -62 286 -62 c 0,10,11
 279 -62 279 -62 274.5 -57.5 c 128,-1,12
 270 -53 270 -53 270 -47 c 2,13,-1
 271 -35 l 1,14,-1
 305 124 l 1,15,-1
 177 124 l 2,16,17
 154 124 154 124 154 140 c 0,18,19
 154 165 154 165 186 165 c 2,20,-1
 314 165 l 1,21,-1
 359 376 l 1,22,-1
 231 376 l 2,23,24
 208 376 208 376 208 392 c 0,25,26
 208 405 208 405 222 414 c 0,27,28
 223 415 223 415 233 417 c 0,29,30
 235 417 235 417 239 418 c 1,31,-1
 368 418 l 1,32,-1
 402 577 l 2,33,34
 406 604 406 604 428 604 c 0,35,36
 444 604 444 604 444 588 c 2,37,-1
 443 577 l 1,38,-1
 409 417 l 1,39,-1
 537 417 l 2,40,41
 561 417 561 417 561 401 c 0,42,43
 561 376 561 376 529 376 c 2,44,-1
 400 376 l 1,0,-1
EndSplineSet
EndChar

StartChar: periodcentered
Encoding: 183 183 116
Width: 600
GlyphClass: 2
Flags: W
LayerCount: 2
Fore
SplineSet
369 348 m 2,0,-1
 380 348 l 2,1,2
 405 348 405 348 420.5 333.5 c 128,-1,3
 436 319 436 319 436 296 c 0,4,5
 436 265 436 265 410.5 241 c 128,-1,6
 385 217 385 217 352 217 c 2,7,-1
 341 217 l 2,8,9
 316 217 316 217 300.5 231.5 c 128,-1,10
 285 246 285 246 285 269 c 0,11,12
 285 300 285 300 310.5 324 c 128,-1,13
 336 348 336 348 369 348 c 2,0,-1
EndSplineSet
EndChar

StartChar: paragraph
Encoding: 182 182 117
Width: 600
GlyphClass: 2
Flags: W
LayerCount: 2
Fore
SplineSet
557 563 m 1,0,-1
 433 -21 l 1,1,-1
 495 -21 l 2,2,3
 517 -21 517 -21 517 -37 c 0,4,5
 517 -62 517 -62 487 -62 c 2,6,-1
 388 -62 l 2,7,8
 367 -62 367 -62 367 -45 c 0,9,10
 367 -36 367 -36 374.5 -29 c 128,-1,11
 382 -22 382 -22 393 -21 c 1,12,-1
 517 563 l 1,13,-1
 445 563 l 1,14,-1
 321 -21 l 1,15,16
 338 -23 338 -23 338 -37 c 0,17,18
 338 -62 338 -62 308 -62 c 2,19,-1
 174 -62 l 2,20,21
 152 -62 152 -62 152 -46 c 0,22,23
 152 -21 152 -21 182 -21 c 2,24,-1
 280 -21 l 1,25,-1
 340 260 l 1,26,27
 275 264 275 264 234 284 c 0,28,29
 163 320 163 320 163 386 c 0,30,31
 163 396 163 396 166 406 c 2,32,-1
 176 453 l 2,33,34
 190 520 190 520 259.5 562 c 128,-1,35
 329 604 329 604 427 604 c 2,36,-1
 627 604 l 2,37,38
 648 604 648 604 648 588 c 0,39,40
 648 563 648 563 618 563 c 2,41,-1
 557 563 l 1,0,-1
350 307 m 1,42,-1
 403 558 l 1,43,44
 347 554 347 554 301 523 c 128,-1,45
 255 492 255 492 245 451 c 2,46,-1
 237 414 l 2,47,48
 235 402 235 402 235 400 c 0,49,50
 233 366 233 366 266 339 c 128,-1,51
 299 312 299 312 350 307 c 1,42,-1
EndSplineSet
EndChar

StartChar: bullet
Encoding: 8226 8226 118
Width: 600
GlyphClass: 2
Flags: W
LayerCount: 2
Fore
SplineSet
353 337 m 0,0,1
 392 337 392 337 420.5 308 c 128,-1,2
 449 279 449 279 449 239 c 0,3,4
 449 198 449 198 420.5 169.5 c 128,-1,5
 392 141 392 141 351 141 c 128,-1,6
 310 141 310 141 281.5 170 c 128,-1,7
 253 199 253 199 253 240 c 128,-1,8
 253 281 253 281 282 309 c 128,-1,9
 311 337 311 337 353 337 c 0,0,1
EndSplineSet
EndChar

StartChar: quotesinglbase
Encoding: 8218 8218 119
Width: 600
GlyphClass: 2
Flags: W
LayerCount: 2
Fore
SplineSet
238 145 m 1,0,-1
 371 145 l 1,1,-1
 170 -120 l 2,2,3
 150 -145 150 -145 133 -145 c 0,4,5
 123 -145 123 -145 116.5 -138.5 c 128,-1,6
 110 -132 110 -132 110 -122 c 0,7,8
 110 -115 110 -115 115 -105 c 2,9,-1
 238 145 l 1,0,-1
EndSplineSet
EndChar

StartChar: quotedblbase
Encoding: 8222 8222 120
Width: 600
GlyphClass: 2
Flags: W
LayerCount: 2
Fore
SplineSet
195 145 m 1,0,-1
 321 145 l 1,1,-1
 133 -94 l 2,2,3
 115 -116 115 -116 97 -116 c 0,4,5
 87 -116 87 -116 80 -110 c 128,-1,6
 73 -104 73 -104 73 -95 c 0,7,8
 73 -90 73 -90 77 -80 c 2,9,-1
 195 145 l 1,0,-1
412 145 m 1,10,-1
 538 145 l 1,11,-1
 350 -94 l 2,12,13
 332 -116 332 -116 315 -116 c 0,14,15
 304 -116 304 -116 297 -110 c 128,-1,16
 290 -104 290 -104 290 -95 c 0,17,18
 290 -88 290 -88 294 -80 c 2,19,-1
 412 145 l 1,10,-1
EndSplineSet
EndChar

StartChar: quotedblright
Encoding: 8221 8221 121
Width: 600
GlyphClass: 2
Flags: W
LayerCount: 2
Fore
SplineSet
292 604 m 1,0,-1
 418 604 l 1,1,-1
 230 365 l 2,2,3
 212 343 212 343 194 343 c 0,4,5
 184 343 184 343 177 349 c 128,-1,6
 170 355 170 355 170 364 c 0,7,8
 170 369 170 369 174 379 c 2,9,-1
 292 604 l 1,0,-1
509 604 m 1,10,-1
 635 604 l 1,11,-1
 447 365 l 2,12,13
 429 343 429 343 412 343 c 0,14,15
 401 343 401 343 394 349 c 128,-1,16
 387 355 387 355 387 364 c 0,17,18
 387 371 387 371 391 379 c 2,19,-1
 509 604 l 1,10,-1
EndSplineSet
EndChar

StartChar: guillemotright
Encoding: 187 187 122
Width: 600
GlyphClass: 2
Flags: W
LayerCount: 2
Fore
SplineSet
355 208 m 1,0,-1
 107 11 l 2,1,2
 93 0 93 0 83 0 c 0,3,4
 67 0 67 0 67 16 c 0,5,6
 67 26 67 26 82 40 c 2,7,-1
 260 208 l 1,8,-1
 154 377 l 2,9,10
 147 388 147 388 147 392 c 0,11,12
 147 402 147 402 154.5 409.5 c 128,-1,13
 162 417 162 417 172 417 c 0,14,15
 181 417 181 417 190 406 c 2,16,-1
 355 208 l 1,0,-1
585 208 m 1,17,-1
 336 11 l 2,18,19
 322 0 322 0 313 0 c 0,20,21
 297 0 297 0 297 16 c 0,22,23
 297 25 297 25 312 40 c 2,24,-1
 490 208 l 1,25,-1
 384 377 l 2,26,27
 377 386 377 386 377 392 c 0,28,29
 377 402 377 402 384.5 409.5 c 128,-1,30
 392 417 392 417 402 417 c 0,31,32
 411 417 411 417 420 406 c 2,33,-1
 585 208 l 1,17,-1
EndSplineSet
EndChar

StartChar: ellipsis
Encoding: 8230 8230 123
Width: 600
GlyphClass: 2
Flags: W
LayerCount: 2
Fore
SplineSet
118 84 m 0,0,1
 135 84 135 84 146.5 73 c 128,-1,2
 158 62 158 62 158 45 c 0,3,4
 158 22 158 22 139 3.5 c 128,-1,5
 120 -15 120 -15 96 -15 c 0,6,7
 80 -15 80 -15 68.5 -3.5 c 128,-1,8
 57 8 57 8 57 24 c 0,9,10
 57 47 57 47 76 65.5 c 128,-1,11
 95 84 95 84 118 84 c 0,0,1
317 84 m 0,12,13
 334 84 334 84 345.5 73 c 128,-1,14
 357 62 357 62 357 45 c 0,15,16
 357 22 357 22 338 3.5 c 128,-1,17
 319 -15 319 -15 295 -15 c 0,18,19
 278 -15 278 -15 267 -3.5 c 128,-1,20
 256 8 256 8 256 24 c 0,21,22
 256 47 256 47 275 65.5 c 128,-1,23
 294 84 294 84 317 84 c 0,12,13
517 84 m 0,24,25
 534 84 534 84 545.5 73 c 128,-1,26
 557 62 557 62 557 45 c 0,27,28
 557 22 557 22 538 3.5 c 128,-1,29
 519 -15 519 -15 495 -15 c 0,30,31
 478 -15 478 -15 467 -3.5 c 128,-1,32
 456 8 456 8 456 25 c 0,33,34
 456 47 456 47 475 65.5 c 128,-1,35
 494 84 494 84 517 84 c 0,24,25
EndSplineSet
EndChar

StartChar: perthousand
Encoding: 8240 8240 124
Width: 600
GlyphClass: 2
Flags: W
LayerCount: 2
Fore
SplineSet
274 614 m 0,0,1
 313 614 313 614 338 589.5 c 128,-1,2
 363 565 363 565 363 525 c 0,3,4
 363 473 363 473 321 432 c 128,-1,5
 279 391 279 391 226 391 c 0,6,7
 188 391 188 391 163 416 c 128,-1,8
 138 441 138 441 138 479 c 0,9,10
 138 531 138 531 180 572.5 c 128,-1,11
 222 614 222 614 274 614 c 0,0,1
267 580 m 0,12,13
 231 580 231 580 202 551.5 c 128,-1,14
 173 523 173 523 173 487 c 0,15,16
 173 460 173 460 190 442.5 c 128,-1,17
 207 425 207 425 233 425 c 0,18,19
 270 425 270 425 299 453.5 c 128,-1,20
 328 482 328 482 328 520 c 0,21,22
 328 546 328 546 311 563 c 128,-1,23
 294 580 294 580 267 580 c 0,12,13
578 388 m 2,24,-1
 178 266 l 2,25,26
 170 264 170 264 167 264 c 0,27,28
 162 264 162 264 158.5 268 c 128,-1,29
 155 272 155 272 155 277 c 0,30,31
 155 292 155 292 175 297 c 2,32,-1
 575 419 l 2,33,34
 583 421 583 421 586 421 c 0,35,36
 598 421 598 421 598 408 c 0,37,38
 598 394 598 394 578 388 c 2,24,-1
227 214 m 0,39,40
 267 214 267 214 291.5 189.5 c 128,-1,41
 316 165 316 165 316 125 c 0,42,43
 316 73 316 73 274 32 c 128,-1,44
 232 -9 232 -9 179 -9 c 0,45,46
 141 -9 141 -9 116 16 c 128,-1,47
 91 41 91 41 91 80 c 0,48,49
 91 131 91 131 133 172.5 c 128,-1,50
 175 214 175 214 227 214 c 0,39,40
220 180 m 0,51,52
 184 180 184 180 155 151 c 128,-1,53
 126 122 126 122 126 86 c 0,54,55
 126 60 126 60 143 42.5 c 128,-1,56
 160 25 160 25 186 25 c 0,57,58
 224 25 224 25 252.5 53.5 c 128,-1,59
 281 82 281 82 281 120 c 0,60,61
 281 146 281 146 264 163 c 128,-1,62
 247 180 247 180 220 180 c 0,51,52
499 214 m 0,63,64
 539 214 539 214 563.5 189.5 c 128,-1,65
 588 165 588 165 588 125 c 0,66,67
 588 73 588 73 546 32 c 128,-1,68
 504 -9 504 -9 451 -9 c 0,69,70
 413 -9 413 -9 388 16 c 128,-1,71
 363 41 363 41 363 80 c 0,72,73
 363 131 363 131 405 172.5 c 128,-1,74
 447 214 447 214 499 214 c 0,63,64
492 180 m 0,75,76
 456 180 456 180 427 151 c 128,-1,77
 398 122 398 122 398 86 c 0,78,79
 398 60 398 60 415 42.5 c 128,-1,80
 432 25 432 25 458 25 c 0,81,82
 496 25 496 25 524.5 53.5 c 128,-1,83
 553 82 553 82 553 120 c 0,84,85
 553 146 553 146 536 163 c 128,-1,86
 519 180 519 180 492 180 c 0,75,76
EndSplineSet
EndChar

StartChar: questiondown
Encoding: 191 191 125
Width: 600
GlyphClass: 2
Flags: W
LayerCount: 2
Fore
SplineSet
311 155 m 1,0,-1
 320 196 l 2,1,2
 326 223 326 223 346 223 c 0,3,4
 353 223 353 223 357.5 218.5 c 128,-1,5
 362 214 362 214 362 208 c 2,6,-1
 361 196 l 1,7,-1
 346 128 l 1,8,9
 239 87 239 87 193 47.5 c 128,-1,10
 147 8 147 8 147 -42 c 0,11,12
 147 -84 147 -84 179.5 -109 c 128,-1,13
 212 -134 212 -134 267 -134 c 0,14,15
 327 -134 327 -134 404 -100 c 1,16,-1
 412 -59 l 2,17,18
 418 -32 418 -32 438 -32 c 0,19,20
 455 -32 455 -32 455 -48 c 0,21,22
 455 -49 455 -49 453 -59 c 2,23,-1
 439 -126 l 1,24,25
 418 -135 418 -135 407 -139 c 0,26,27
 318 -175 318 -175 253 -175 c 0,28,29
 184 -175 184 -175 144.5 -142.5 c 128,-1,30
 105 -110 105 -110 105 -53 c 0,31,32
 105 26 105 26 171 79 c 0,33,34
 217 114 217 114 311 155 c 1,0,-1
381 317 m 2,35,-1
 353 317 l 2,36,37
 306 317 306 317 306 357 c 0,38,39
 306 382 306 382 326 399.5 c 128,-1,40
 346 417 346 417 374 417 c 2,41,-1
 402 417 l 2,42,43
 424 417 424 417 436.5 406.5 c 128,-1,44
 449 396 449 396 449 377 c 0,45,46
 449 352 449 352 429 334.5 c 128,-1,47
 409 317 409 317 381 317 c 2,35,-1
EndSplineSet
EndChar

StartChar: grave
Encoding: 96 96 126
Width: 600
GlyphClass: 2
Flags: W
LayerCount: 2
Fore
SplineSet
328 630 m 2,0,-1
 420 530 l 1,1,2
 422 529 422 529 425.5 522.5 c 128,-1,3
 429 516 429 516 429 514 c 0,4,5
 429 505 429 505 420.5 497.5 c 128,-1,6
 412 490 412 490 403 490 c 0,7,8
 396 490 396 490 387 499 c 2,9,-1
 294 599 l 2,10,11
 286 609 286 609 286 614 c 0,12,13
 286 624 286 624 294 631.5 c 128,-1,14
 302 639 302 639 312 639 c 0,15,16
 319 639 319 639 328 630 c 2,0,-1
EndSplineSet
EndChar

StartChar: acute
Encoding: 180 180 127
Width: 600
GlyphClass: 2
Flags: W
LayerCount: 2
Fore
SplineSet
560 599 m 2,0,-1
 425 499 l 2,1,2
 412 490 412 490 405 490 c 0,3,4
 388 490 388 490 388 506 c 0,5,6
 388 517 388 517 405 530 c 2,7,-1
 540 630 l 2,8,9
 553 639 553 639 561 639 c 0,10,11
 577 639 577 639 577 623 c 0,12,13
 577 611 577 611 560 599 c 2,0,-1
EndSplineSet
EndChar

StartChar: circumflex
Encoding: 710 710 128
Width: 600
GlyphClass: 2
Flags: W
LayerCount: 2
Fore
SplineSet
436 639 m 1,0,-1
 545 531 l 2,1,2
 554 521 554 521 554 515 c 0,3,4
 554 505 554 505 546.5 497.5 c 128,-1,5
 539 490 539 490 529 490 c 0,6,7
 523 490 523 490 513 498 c 2,8,-1
 425 586 l 1,9,-1
 298 498 l 2,10,11
 287 490 287 490 279 490 c 0,12,13
 263 490 263 490 263 506 c 0,14,15
 263 519 263 519 277 528 c 2,16,-1
 281 530 l 1,17,-1
 436 639 l 1,0,-1
EndSplineSet
EndChar

StartChar: tilde
Encoding: 732 732 129
Width: 600
GlyphClass: 2
Flags: W
LayerCount: 2
Fore
SplineSet
562 603 m 0,0,1
 569 603 569 603 574 598.5 c 128,-1,2
 579 594 579 594 579 587 c 0,3,4
 579 576 579 576 557 558 c 0,5,6
 508 516 508 516 473 516 c 0,7,8
 444 516 444 516 399 547 c 0,9,10
 375 564 375 564 359 564 c 0,11,12
 344 564 344 564 331.5 557 c 128,-1,13
 319 550 319 550 293 527 c 0,14,15
 285 519 285 519 274 519 c 0,16,17
 258 519 258 519 258 534 c 0,18,19
 258 546 258 546 284 568 c 0,20,21
 332 605 332 605 366 605 c 0,22,23
 390 605 390 605 426 582 c 0,24,25
 464 557 464 557 480 557 c 0,26,27
 500 557 500 557 545 595 c 0,28,29
 554 603 554 603 562 603 c 0,0,1
EndSplineSet
EndChar

StartChar: macron
Encoding: 175 175 130
Width: 600
GlyphClass: 2
Flags: W
LayerCount: 2
Fore
SplineSet
532 536 m 2,0,-1
 296 536 l 2,1,2
 273 536 273 536 273 552 c 0,3,4
 273 576 273 576 305 576 c 2,5,-1
 541 576 l 2,6,7
 564 576 564 576 564 560 c 0,8,9
 564 536 564 536 532 536 c 2,0,-1
EndSplineSet
EndChar

StartChar: breve
Encoding: 728 728 131
Width: 600
GlyphClass: 2
Flags: W
LayerCount: 2
Fore
SplineSet
324 610 m 1,0,-1
 322 581 l 2,1,2
 322 578 322 578 330.5 567 c 128,-1,3
 339 556 339 556 345 551 c 0,4,5
 371 530 371 530 414 530 c 0,6,7
 454 530 454 530 488.5 550 c 128,-1,8
 523 570 523 570 532 598 c 0,9,10
 540 621 540 621 557 621 c 0,11,12
 563 621 563 621 568.5 615.5 c 128,-1,13
 574 610 574 610 574 605 c 0,14,15
 574 592 574 592 560.5 570 c 128,-1,16
 547 548 547 548 532 534 c 0,17,18
 481 489 481 489 404 489 c 0,19,20
 350 489 350 489 315 515.5 c 128,-1,21
 280 542 280 542 280 584 c 0,22,23
 280 599 280 599 288 610 c 128,-1,24
 296 621 296 621 307 621 c 0,25,26
 315 621 315 621 324 610 c 1,0,-1
EndSplineSet
EndChar

StartChar: dotaccent
Encoding: 729 729 132
Width: 600
GlyphClass: 2
Flags: W
LayerCount: 2
Fore
SplineSet
429 611 m 0,0,1
 447 611 447 611 458.5 599.5 c 128,-1,2
 470 588 470 588 470 571 c 0,3,4
 470 548 470 548 451 529.5 c 128,-1,5
 432 511 432 511 408 511 c 0,6,7
 391 511 391 511 379.5 522.5 c 128,-1,8
 368 534 368 534 368 551 c 0,9,10
 368 574 368 574 387 592.5 c 128,-1,11
 406 611 406 611 429 611 c 0,0,1
EndSplineSet
EndChar

StartChar: dieresis
Encoding: 168 168 133
Width: 600
GlyphClass: 2
Flags: W
LayerCount: 2
Fore
SplineSet
319 611 m 0,0,1
 337 611 337 611 348.5 599.5 c 128,-1,2
 360 588 360 588 360 571 c 0,3,4
 360 548 360 548 341 529.5 c 128,-1,5
 322 511 322 511 298 511 c 0,6,7
 281 511 281 511 269.5 522.5 c 128,-1,8
 258 534 258 534 258 551 c 0,9,10
 258 574 258 574 277 592.5 c 128,-1,11
 296 611 296 611 319 611 c 0,0,1
540 611 m 0,12,13
 558 611 558 611 569.5 599.5 c 128,-1,14
 581 588 581 588 581 571 c 0,15,16
 581 548 581 548 562 529.5 c 128,-1,17
 543 511 543 511 519 511 c 0,18,19
 502 511 502 511 490.5 522.5 c 128,-1,20
 479 534 479 534 479 551 c 0,21,22
 479 574 479 574 498 592.5 c 128,-1,23
 517 611 517 611 540 611 c 0,12,13
EndSplineSet
EndChar

StartChar: ring
Encoding: 730 730 134
Width: 600
GlyphClass: 2
Flags: W
LayerCount: 2
Fore
SplineSet
440 661 m 0,0,1
 473 661 473 661 494.5 640.5 c 128,-1,2
 516 620 516 620 516 589 c 0,3,4
 516 547 516 547 481 513.5 c 128,-1,5
 446 480 446 480 402 480 c 0,6,7
 369 480 369 480 347.5 500.5 c 128,-1,8
 326 521 326 521 326 552 c 0,9,10
 326 594 326 594 361 627.5 c 128,-1,11
 396 661 396 661 440 661 c 0,0,1
433 628 m 0,12,13
 405 628 405 628 382.5 606.5 c 128,-1,14
 360 585 360 585 360 559 c 0,15,16
 360 539 360 539 374 526 c 128,-1,17
 388 513 388 513 409 513 c 0,18,19
 438 513 438 513 460 534 c 128,-1,20
 482 555 482 555 482 582 c 0,21,22
 482 602 482 602 468 615 c 128,-1,23
 454 628 454 628 433 628 c 0,12,13
EndSplineSet
EndChar

StartChar: cedilla
Encoding: 184 184 135
Width: 600
GlyphClass: 2
Flags: W
LayerCount: 2
Fore
SplineSet
274 0 m 1,0,-1
 312 0 l 1,1,-1
 302 -47 l 1,2,3
 356 -48 356 -48 356 -93 c 0,4,5
 356 -127 356 -127 329 -150 c 128,-1,6
 302 -173 302 -173 262 -173 c 0,7,8
 234 -173 234 -173 207.5 -161.5 c 128,-1,9
 181 -150 181 -150 181 -138 c 0,10,11
 181 -128 181 -128 188 -121 c 128,-1,12
 195 -114 195 -114 205 -114 c 0,13,14
 211 -114 211 -114 220 -119 c 0,15,16
 247 -135 247 -135 268 -135 c 0,17,18
 290 -135 290 -135 304.5 -125.5 c 128,-1,19
 319 -116 319 -116 319 -101 c 0,20,21
 319 -81 319 -81 278 -81 c 2,22,-1
 257 -81 l 1,23,-1
 274 0 l 1,0,-1
EndSplineSet
EndChar

StartChar: hungarumlaut
Encoding: 733 733 136
Width: 600
GlyphClass: 2
Flags: W
LayerCount: 2
Fore
SplineSet
417 593 m 2,0,-1
 300 499 l 2,1,2
 288 490 288 490 279 490 c 0,3,4
 263 490 263 490 263 506 c 0,5,6
 263 517 263 517 280 530 c 2,7,-1
 397 624 l 2,8,9
 409 633 409 633 418 633 c 0,10,11
 434 633 434 633 434 617 c 0,12,13
 434 606 434 606 417 593 c 2,0,-1
559 593 m 2,14,-1
 441 499 l 2,15,16
 429 490 429 490 420 490 c 0,17,18
 404 490 404 490 404 506 c 0,19,20
 404 518 404 518 417 527 c 2,21,-1
 421 530 l 1,22,-1
 539 624 l 2,23,24
 551 633 551 633 560 633 c 0,25,26
 576 633 576 633 576 617 c 0,27,28
 576 606 576 606 559 593 c 2,14,-1
EndSplineSet
EndChar

StartChar: ogonek
Encoding: 731 731 137
Width: 600
GlyphClass: 2
Flags: W
LayerCount: 2
Fore
SplineSet
404 0 m 1,0,-1
 374 -15 l 2,1,2
 298 -52 298 -52 298 -99 c 0,3,4
 298 -123 298 -123 336 -123 c 0,5,6
 359 -123 359 -123 388 -107 c 0,7,8
 393 -104 393 -104 397 -104 c 0,9,10
 408 -104 408 -104 408 -116 c 0,11,12
 408 -130 408 -130 380.5 -142.5 c 128,-1,13
 353 -155 353 -155 323 -155 c 0,14,15
 258 -155 258 -155 258 -109 c 0,16,17
 258 -43 258 -43 357 0 c 1,18,-1
 404 0 l 1,0,-1
EndSplineSet
EndChar

StartChar: caron
Encoding: 711 711 138
Width: 600
GlyphClass: 2
Flags: W
LayerCount: 2
Fore
SplineSet
404 490 m 1,0,-1
 296 599 l 2,1,2
 286 607 286 607 286 614 c 0,3,4
 286 624 286 624 293.5 631.5 c 128,-1,5
 301 639 301 639 311 639 c 0,6,7
 317 639 317 639 327 631 c 2,8,-1
 415 543 l 1,9,-1
 542 631 l 2,10,11
 553 639 553 639 561 639 c 0,12,13
 577 639 577 639 577 623 c 0,14,15
 577 611 577 611 559 598 c 2,16,-1
 404 490 l 1,0,-1
EndSplineSet
EndChar

StartChar: emdash
Encoding: 8212 8212 139
Width: 600
GlyphClass: 2
Flags: W
LayerCount: 2
Fore
SplineSet
627 261 m 2,0,-1
 83 261 l 2,1,2
 60 261 60 261 60 277 c 0,3,4
 60 302 60 302 92 302 c 2,5,-1
 636 302 l 2,6,7
 659 302 659 302 659 286 c 0,8,9
 659 261 659 261 627 261 c 2,0,-1
EndSplineSet
EndChar

StartChar: AE
Encoding: 198 198 140
Width: 600
GlyphClass: 2
Flags: W
LayerCount: 2
Fore
SplineSet
337 189 m 1,0,-1
 196 189 l 1,1,-1
 124 41 l 1,2,-1
 150 41 l 2,3,4
 173 41 173 41 173 25 c 0,5,6
 173 0 173 0 141 0 c 2,7,-1
 37 0 l 2,8,9
 14 0 14 0 14 16 c 0,10,11
 14 41 14 41 46 41 c 2,12,-1
 83 41 l 1,13,-1
 318 522 l 1,14,-1
 255 522 l 2,15,16
 232 522 232 522 232 538 c 0,17,18
 232 563 232 563 264 563 c 2,19,-1
 690 563 l 1,20,-1
 658 411 l 2,21,22
 652 384 652 384 631 384 c 0,23,24
 624 384 624 384 619.5 388.5 c 128,-1,25
 615 393 615 393 615 399 c 0,26,27
 615 403 615 403 617 411 c 2,28,-1
 640 522 l 1,29,-1
 449 522 l 1,30,-1
 405 314 l 1,31,-1
 483 314 l 1,32,-1
 489 342 l 2,33,34
 495 369 495 369 515 369 c 0,35,36
 522 369 522 369 526.5 364.5 c 128,-1,37
 531 360 531 360 531 354 c 0,38,39
 531 350 531 350 529 342 c 2,40,-1
 509 246 l 2,41,42
 503 219 503 219 483 219 c 0,43,44
 467 219 467 219 467 235 c 0,45,46
 467 241 467 241 469 246 c 1,47,-1
 474 273 l 1,48,-1
 396 273 l 1,49,-1
 347 41 l 1,50,-1
 558 41 l 1,51,-1
 578 134 l 2,52,53
 581 160 581 160 604 160 c 0,54,55
 620 160 620 160 620 144 c 2,56,-1
 619 134 l 1,57,-1
 590 0 l 1,58,-1
 245 0 l 2,59,60
 222 0 222 0 222 17 c 0,61,62
 222 41 222 41 254 41 c 2,63,-1
 306 41 l 1,64,-1
 337 189 l 1,0,-1
346 230 m 1,65,-1
 408 522 l 1,66,-1
 358 522 l 1,67,-1
 216 230 l 1,68,-1
 346 230 l 1,65,-1
EndSplineSet
EndChar

StartChar: ordfeminine
Encoding: 170 170 141
Width: 600
GlyphClass: 2
Flags: W
LayerCount: 2
Fore
SplineSet
421 282 m 1,0,-1
 426 308 l 1,1,2
 367 279 367 279 313 279 c 0,3,4
 274 279 274 279 251.5 296 c 128,-1,5
 229 313 229 313 229 343 c 0,6,7
 229 389 229 389 275 422 c 128,-1,8
 321 455 321 455 385 455 c 0,9,10
 412 455 412 455 456 446 c 1,11,-1
 465 490 l 2,12,13
 466 494 466 494 466 500 c 0,14,15
 466 516 466 516 450.5 526.5 c 128,-1,16
 435 537 435 537 410 537 c 0,17,18
 384 537 384 537 329 518 c 0,19,20
 319 514 319 514 315 514 c 0,21,22
 309 514 309 514 305 518.5 c 128,-1,23
 301 523 301 523 301 528 c 0,24,25
 301 543 301 543 317 550 c 0,26,27
 335 558 335 558 368 566 c 128,-1,28
 401 574 401 574 420 574 c 0,29,30
 458 574 458 574 481 555.5 c 128,-1,31
 504 537 504 537 504 506 c 0,32,33
 504 502 504 502 502 490 c 2,34,-1
 466 319 l 1,35,-1
 492 319 l 2,36,37
 511 319 511 319 511 305 c 0,38,39
 511 282 511 282 484 282 c 2,40,-1
 421 282 l 1,0,-1
435 350 m 1,41,-1
 448 409 l 1,42,43
 422 420 422 420 379 420 c 0,44,45
 333 420 333 420 299.5 398.5 c 128,-1,46
 266 377 266 377 266 348 c 0,47,48
 266 334 266 334 280.5 325 c 128,-1,49
 295 316 295 316 320 316 c 0,50,51
 377 316 377 316 435 350 c 1,41,-1
EndSplineSet
EndChar

StartChar: Lslash
Encoding: 321 321 142
Width: 600
GlyphClass: 2
Flags: W
LayerCount: 2
Fore
SplineSet
337 522 m 1,0,-1
 292 310 l 1,1,-1
 443 390 l 2,2,3
 456 395 456 395 462 395 c 0,4,5
 478 395 478 395 478 379 c 0,6,7
 478 366 478 366 461 357 c 2,8,-1
 456 355 l 1,9,-1
 282 263 l 1,10,-1
 235 41 l 1,11,-1
 509 41 l 1,12,-1
 543 202 l 2,13,14
 549 229 549 229 570 229 c 0,15,16
 577 229 577 229 581.5 224.5 c 128,-1,17
 586 220 586 220 586 214 c 0,18,19
 586 210 586 210 584 202 c 2,20,-1
 541 0 l 1,21,-1
 89 0 l 2,22,23
 66 0 66 0 66 16 c 0,24,25
 66 41 66 41 98 41 c 2,26,-1
 194 41 l 1,27,-1
 238 246 l 1,28,-1
 118 184 l 2,29,30
 104 178 104 178 100 178 c 0,31,32
 94 178 94 178 89.5 183 c 128,-1,33
 85 188 85 188 85 195 c 0,34,35
 85 210 85 210 105 219 c 2,36,-1
 248 293 l 1,37,-1
 296 522 l 1,38,-1
 200 522 l 2,39,40
 177 522 177 522 177 538 c 0,41,42
 177 563 177 563 209 563 c 2,43,-1
 442 563 l 2,44,45
 465 563 465 563 465 547 c 0,46,47
 465 522 465 522 434 522 c 2,48,-1
 337 522 l 1,0,-1
EndSplineSet
EndChar

StartChar: Oslash
Encoding: 216 216 143
Width: 600
GlyphClass: 2
Flags: W
LayerCount: 2
Fore
SplineSet
152 51 m 1,0,-1
 69 -31 l 2,1,2
 57 -43 57 -43 48 -43 c 0,3,4
 34 -43 34 -43 34 -29 c 0,5,6
 34 -21 34 -21 46 -9 c 2,7,-1
 134 78 l 1,8,9
 102 136 102 136 102 207 c 0,10,11
 102 349 102 349 201 462.5 c 128,-1,12
 300 576 300 576 423 576 c 0,13,14
 509 576 509 576 566 510 c 1,15,-1
 650 593 l 2,16,17
 662 605 662 605 670 605 c 0,18,19
 685 605 685 605 685 591 c 0,20,21
 685 583 685 583 673 571 c 2,22,-1
 585 483 l 1,23,24
 616 427 616 427 616 354 c 0,25,26
 616 212 616 212 517.5 98 c 128,-1,27
 419 -16 419 -16 296 -16 c 0,28,29
 205 -16 205 -16 152 51 c 1,0,-1
167 112 m 1,30,-1
 533 476 l 1,31,32
 486 535 486 535 416 535 c 0,33,34
 313 535 313 535 228.5 436.5 c 128,-1,35
 144 338 144 338 144 217 c 0,36,37
 144 159 144 159 167 112 c 1,30,-1
551 449 m 1,38,-1
 185 84 l 1,39,40
 232 25 232 25 302 25 c 0,41,42
 406 25 406 25 490 123.5 c 128,-1,43
 574 222 574 222 574 344 c 0,44,45
 574 401 574 401 551 449 c 1,38,-1
EndSplineSet
EndChar

StartChar: OE
Encoding: 338 338 144
Width: 600
GlyphClass: 2
Flags: W
LayerCount: 2
Fore
SplineSet
396 272 m 1,0,-1
 347 41 l 1,1,-1
 558 41 l 1,2,-1
 578 133 l 2,3,4
 582 160 582 160 604 160 c 0,5,6
 620 160 620 160 620 144 c 2,7,-1
 619 133 l 1,8,-1
 590 0 l 1,9,-1
 264 0 l 2,10,11
 171 0 171 0 120 49 c 0,12,13
 62 105 62 105 62 203 c 0,14,15
 62 351 62 351 154.5 457 c 128,-1,16
 247 563 247 563 376 563 c 2,17,-1
 690 563 l 1,18,-1
 657 409 l 2,19,20
 651 382 651 382 631 382 c 0,21,22
 624 382 624 382 619.5 386.5 c 128,-1,23
 615 391 615 391 615 397 c 2,24,-1
 616 409 l 1,25,-1
 640 522 l 1,26,-1
 449 522 l 1,27,-1
 405 313 l 1,28,-1
 483 313 l 1,29,-1
 489 340 l 2,30,31
 495 367 495 367 515 367 c 0,32,33
 532 367 532 367 532 352 c 0,34,35
 532 347 532 347 531 345 c 1,36,-1
 530 340 l 1,37,-1
 509 244 l 2,38,39
 503 217 503 217 483 217 c 0,40,41
 476 217 476 217 471.5 221.5 c 128,-1,42
 467 226 467 226 467 232 c 2,43,-1
 468 244 l 1,44,-1
 474 272 l 1,45,-1
 396 272 l 1,0,-1
408 522 m 1,46,-1
 376 522 l 2,47,48
 242 522 242 522 164 408 c 0,49,50
 104 321 104 321 104 210 c 0,51,52
 104 118 104 118 161 72 c 0,53,54
 201 41 201 41 274 41 c 2,55,-1
 306 41 l 1,56,-1
 408 522 l 1,46,-1
EndSplineSet
EndChar

StartChar: ordmasculine
Encoding: 186 186 145
Width: 600
GlyphClass: 2
Flags: W
LayerCount: 2
Fore
SplineSet
424 577 m 0,0,1
 477 577 477 577 510 544.5 c 128,-1,2
 543 512 543 512 543 460 c 0,3,4
 543 392 543 392 487 338 c 128,-1,5
 431 284 431 284 360 284 c 0,6,7
 310 284 310 284 276.5 317 c 128,-1,8
 243 350 243 350 243 400 c 0,9,10
 243 468 243 468 298.5 522.5 c 128,-1,11
 354 577 354 577 424 577 c 0,0,1
416 540 m 0,12,13
 364 540 364 540 322.5 499.5 c 128,-1,14
 281 459 281 459 281 408 c 0,15,16
 281 370 281 370 306 345.5 c 128,-1,17
 331 321 331 321 369 321 c 0,18,19
 422 321 422 321 463.5 361.5 c 128,-1,20
 505 402 505 402 505 453 c 0,21,22
 505 491 505 491 480 515.5 c 128,-1,23
 455 540 455 540 416 540 c 0,12,13
EndSplineSet
EndChar

StartChar: ae
Encoding: 230 230 146
Width: 600
GlyphClass: 2
Flags: W
LayerCount: 2
Fore
SplineSet
333 61 m 1,0,-1
 325 27 l 2,1,2
 320 0 320 0 300 0 c 0,3,4
 293 0 293 0 288.5 4.5 c 128,-1,5
 284 9 284 9 284 15 c 2,6,-1
 285 27 l 1,7,-1
 291 52 l 1,8,9
 220 -16 220 -16 156 -16 c 0,10,11
 101 -16 101 -16 68.5 15.5 c 128,-1,12
 36 47 36 47 36 99 c 0,13,14
 36 153 36 153 71 190 c 0,15,16
 100 220 100 220 149 238.5 c 128,-1,17
 198 257 198 257 249 257 c 0,18,19
 292 257 292 257 332 245 c 1,20,-1
 345 305 l 2,21,22
 347 317 347 317 347 322 c 0,23,24
 347 352 347 352 327 371 c 128,-1,25
 307 390 307 390 275 390 c 0,26,27
 228 390 228 390 185 365 c 0,28,29
 171 358 171 358 165 358 c 0,30,31
 160 358 160 358 155 363 c 128,-1,32
 150 368 150 368 150 374 c 0,33,34
 150 392 150 392 185 406 c 0,35,36
 245 431 245 431 290 431 c 0,37,38
 327 431 327 431 353.5 408 c 128,-1,39
 380 385 380 385 385 347 c 1,40,41
 412 386 412 386 448.5 408.5 c 128,-1,42
 485 431 485 431 521 431 c 0,43,44
 569 431 569 431 600 397 c 0,45,46
 630 364 630 364 630 296 c 0,47,48
 630 255 630 255 619 199 c 1,49,-1
 361 199 l 1,50,51
 358 172 358 172 358 154 c 0,52,53
 358 98 358 98 384 61.5 c 128,-1,54
 410 25 410 25 451 25 c 0,55,56
 473 25 473 25 496.5 37 c 128,-1,57
 520 49 520 49 563 82 c 0,58,59
 570 87 570 87 577 87 c 0,60,61
 593 87 593 87 593 70 c 0,62,63
 593 58 593 58 565 38 c 0,64,65
 493 -16 493 -16 441 -16 c 0,66,67
 368 -16 368 -16 333 61 c 1,0,-1
303 110 m 1,68,-1
 323 203 l 1,69,70
 281 216 281 216 246 216 c 0,71,72
 204 216 204 216 160 199 c 128,-1,73
 116 182 116 182 98 159 c 0,74,75
 80 134 80 134 80 100 c 128,-1,76
 80 66 80 66 103.5 45.5 c 128,-1,77
 127 25 127 25 165 25 c 0,78,79
 219 25 219 25 303 110 c 1,68,-1
370 240 m 1,80,-1
 586 240 l 1,81,82
 589 273 589 273 589 288 c 0,83,84
 589 390 589 390 512 390 c 0,85,86
 422 390 422 390 370 240 c 1,80,-1
EndSplineSet
EndChar

StartChar: dotlessi
Encoding: 305 305 147
Width: 600
GlyphClass: 2
Flags: W
LayerCount: 2
Fore
SplineSet
409 417 m 1,0,-1
 329 41 l 1,1,-1
 489 41 l 2,2,3
 513 41 513 41 513 25 c 0,4,5
 513 14 513 14 504 7 c 128,-1,6
 495 0 495 0 481 0 c 2,7,-1
 119 0 l 2,8,9
 96 0 96 0 96 16 c 0,10,11
 96 41 96 41 127 41 c 2,12,-1
 288 41 l 1,13,-1
 359 376 l 1,14,-1
 241 376 l 2,15,16
 218 376 218 376 218 393 c 0,17,18
 218 417 218 417 250 417 c 2,19,-1
 409 417 l 1,0,-1
EndSplineSet
EndChar

StartChar: lslash
Encoding: 322 322 148
Width: 600
GlyphClass: 2
Flags: W
LayerCount: 2
Fore
SplineSet
447 604 m 1,0,-1
 392 343 l 1,1,-1
 490 394 l 2,2,3
 504 400 504 400 509 400 c 0,4,5
 515 400 515 400 519.5 395.5 c 128,-1,6
 524 391 524 391 524 384 c 0,7,8
 524 369 524 369 503 359 c 2,9,-1
 382 297 l 1,10,-1
 328 41 l 1,11,-1
 490 41 l 2,12,13
 513 41 513 41 513 25 c 0,14,15
 513 14 513 14 504 7 c 128,-1,16
 495 0 495 0 481 0 c 2,17,-1
 119 0 l 2,18,19
 96 0 96 0 96 16 c 0,20,21
 96 41 96 41 128 41 c 2,22,-1
 287 41 l 1,23,-1
 337 280 l 1,24,-1
 240 230 l 2,25,26
 228 224 228 224 221 224 c 0,27,28
 215 224 215 224 210.5 228.5 c 128,-1,29
 206 233 206 233 206 240 c 0,30,31
 206 255 206 255 227 266 c 2,32,-1
 347 327 l 1,33,-1
 397 563 l 1,34,-1
 281 563 l 2,35,36
 258 563 258 563 258 580 c 0,37,38
 258 604 258 604 290 604 c 2,39,-1
 447 604 l 1,0,-1
EndSplineSet
EndChar

StartChar: oslash
Encoding: 248 248 149
Width: 600
GlyphClass: 2
Flags: W
LayerCount: 2
Fore
SplineSet
161 35 m 1,0,-1
 80 -33 l 2,1,2
 69 -43 69 -43 61 -43 c 0,3,4
 47 -43 47 -43 47 -29 c 0,5,6
 47 -21 47 -21 61 -8 c 2,7,-1
 141 59 l 1,8,9
 111 106 111 106 111 162 c 0,10,11
 111 267 111 267 196.5 349 c 128,-1,12
 282 431 282 431 392 431 c 0,13,14
 473 431 473 431 525 382 c 1,15,-1
 603 448 l 2,16,17
 616 458 616 458 623 458 c 0,18,19
 637 458 637 458 637 444 c 0,20,21
 637 436 637 436 623 423 c 2,22,-1
 545 358 l 1,23,24
 577 311 577 311 577 254 c 0,25,26
 577 148 577 148 491.5 66 c 128,-1,27
 406 -16 406 -16 296 -16 c 0,28,29
 215 -16 215 -16 161 35 c 1,0,-1
511 329 m 1,30,-1
 197 65 l 1,31,32
 239 25 239 25 305 25 c 0,33,34
 395 25 395 25 465 92 c 128,-1,35
 535 159 535 159 535 245 c 0,36,37
 535 292 535 292 511 329 c 1,30,-1
176 89 m 1,38,-1
 490 352 l 1,39,40
 448 390 448 390 383 390 c 0,41,42
 293 390 293 390 223 323.5 c 128,-1,43
 153 257 153 257 153 171 c 0,44,45
 153 126 153 126 176 89 c 1,38,-1
EndSplineSet
EndChar

StartChar: oe
Encoding: 339 339 150
Width: 600
GlyphClass: 2
Flags: W
LayerCount: 2
Fore
SplineSet
619 199 m 1,0,-1
 362 199 l 1,1,2
 359 175 359 175 359 163 c 0,3,4
 359 102 359 102 384.5 63.5 c 128,-1,5
 410 25 410 25 451 25 c 0,6,7
 473 25 473 25 496 37 c 128,-1,8
 519 49 519 49 562 82 c 0,9,10
 569 87 569 87 576 87 c 0,11,12
 592 87 592 87 592 70 c 0,13,14
 592 58 592 58 564 38 c 0,15,16
 492 -16 492 -16 440 -16 c 0,17,18
 396 -16 396 -16 363.5 16 c 128,-1,19
 331 48 331 48 321 103 c 1,20,21
 249 -16 249 -16 162 -16 c 0,22,23
 113 -16 113 -16 81.5 29.5 c 128,-1,24
 50 75 50 75 50 145 c 0,25,26
 50 252 50 252 115 341.5 c 128,-1,27
 180 431 180 431 258 431 c 0,28,29
 298 431 298 431 327.5 400 c 128,-1,30
 357 369 357 369 367 317 c 1,31,32
 400 371 400 371 429 394 c 0,33,34
 477 431 477 431 521 431 c 0,35,36
 569 431 569 431 600 397 c 0,37,38
 630 366 630 366 630 295 c 0,39,40
 630 255 630 255 619 199 c 1,0,-1
371 240 m 1,41,-1
 586 240 l 1,42,43
 589 273 589 273 589 287 c 0,44,45
 589 390 589 390 512 390 c 0,46,47
 422 390 422 390 371 240 c 1,41,-1
249 390 m 0,48,49
 223 392 223 392 190 366.5 c 128,-1,50
 157 341 157 341 134 302 c 0,51,52
 91 230 91 230 91 150 c 0,53,54
 91 98 91 98 114 61.5 c 128,-1,55
 137 25 137 25 170 25 c 0,56,57
 229 25 229 25 279.5 102 c 128,-1,58
 330 179 330 179 330 267 c 0,59,60
 330 319 330 319 307.5 353.5 c 128,-1,61
 285 388 285 388 249 390 c 0,48,49
EndSplineSet
EndChar

StartChar: germandbls
Encoding: 223 223 151
Width: 600
GlyphClass: 2
Flags: W
LayerCount: 2
Fore
SplineSet
133 41 m 1,0,-1
 225 476 l 2,1,2
 236 529 236 529 286.5 566.5 c 128,-1,3
 337 604 337 604 396 604 c 0,4,5
 448 604 448 604 480.5 571.5 c 128,-1,6
 513 539 513 539 513 487 c 0,7,8
 513 407 513 407 431 359 c 1,9,10
 539 310 539 310 539 206 c 0,11,12
 539 136 539 136 497 71 c 0,13,14
 441 -16 441 -16 361 -16 c 0,15,16
 321 -16 321 -16 299.5 8.5 c 128,-1,17
 278 33 278 33 278 79 c 0,18,19
 278 124 278 124 306 124 c 0,20,21
 322 124 322 124 322 109 c 0,22,23
 322 104 322 104 321 100 c 0,24,25
 320 95 320 95 320 83 c 0,26,27
 320 25 320 25 371 25 c 0,28,29
 418 25 418 25 457.5 80 c 128,-1,30
 497 135 497 135 497 200 c 0,31,32
 497 255 497 255 454 294.5 c 128,-1,33
 411 334 411 334 350 334 c 2,34,-1
 346 334 l 2,35,36
 322 334 322 334 322 350 c 0,37,38
 322 361 322 361 330 368 c 128,-1,39
 338 375 338 375 350 375 c 2,40,-1
 355 375 l 2,41,42
 390 375 390 375 424 398 c 0,43,44
 471 428 471 428 471 480 c 0,45,46
 471 516 471 516 447 539.5 c 128,-1,47
 423 563 423 563 386 563 c 0,48,49
 343 563 343 563 308.5 538 c 128,-1,50
 274 513 274 513 267 476 c 2,51,-1
 174 41 l 1,52,-1
 189 41 l 2,53,54
 212 41 212 41 212 25 c 0,55,56
 212 14 212 14 203 7 c 128,-1,57
 194 0 194 0 180 0 c 2,58,-1
 70 0 l 2,59,60
 47 0 47 0 47 16 c 0,61,62
 47 41 47 41 79 41 c 2,63,-1
 133 41 l 1,0,-1
EndSplineSet
EndChar

StartChar: Adieresis
Encoding: 196 196 152
Width: 600
GlyphClass: 2
Flags: W
LayerCount: 2
Fore
SplineSet
468 188 m 1,0,-1
 203 188 l 1,1,-1
 117 41 l 1,2,-1
 196 41 l 2,3,4
 219 41 219 41 219 25 c 0,5,6
 219 14 219 14 210 7 c 128,-1,7
 201 0 201 0 187 0 c 2,8,-1
 36 0 l 2,9,10
 13 0 13 0 13 17 c 0,11,12
 13 41 13 41 45 41 c 2,13,-1
 76 41 l 1,14,-1
 357 522 l 1,15,-1
 237 522 l 2,16,17
 214 522 214 522 214 538 c 0,18,19
 214 563 214 563 246 563 c 2,20,-1
 449 563 l 1,21,-1
 536 41 l 1,22,-1
 573 41 l 2,23,24
 596 41 596 41 596 25 c 0,25,26
 596 0 596 0 564 0 c 2,27,-1
 408 0 l 2,28,29
 385 0 385 0 385 16 c 0,30,31
 385 41 385 41 417 41 c 2,32,-1
 493 41 l 1,33,-1
 468 188 l 1,0,-1
462 229 m 1,34,-1
 412 522 l 1,35,-1
 397 522 l 1,36,-1
 227 229 l 1,37,-1
 462 229 l 1,34,-1
323 762 m 0,38,39
 340 762 340 762 351.5 750.5 c 128,-1,40
 363 739 363 739 363 721 c 0,41,42
 363 698 363 698 343.5 679.5 c 128,-1,43
 324 661 324 661 301 661 c 0,44,45
 285 661 285 661 273.5 673 c 128,-1,46
 262 685 262 685 262 702 c 0,47,48
 262 724 262 724 281.5 743 c 128,-1,49
 301 762 301 762 323 762 c 0,38,39
544 762 m 0,50,51
 561 762 561 762 572.5 750.5 c 128,-1,52
 584 739 584 739 584 721 c 0,53,54
 584 698 584 698 565 679.5 c 128,-1,55
 546 661 546 661 522 661 c 0,56,57
 506 661 506 661 494.5 673 c 128,-1,58
 483 685 483 685 483 702 c 0,59,60
 483 724 483 724 502.5 743 c 128,-1,61
 522 762 522 762 544 762 c 0,50,51
EndSplineSet
EndChar

StartChar: Aacute
Encoding: 193 193 153
Width: 600
GlyphClass: 2
Flags: W
LayerCount: 2
Fore
SplineSet
468 188 m 1,0,-1
 203 188 l 1,1,-1
 117 41 l 1,2,-1
 196 41 l 2,3,4
 219 41 219 41 219 25 c 0,5,6
 219 14 219 14 210 7 c 128,-1,7
 201 0 201 0 187 0 c 2,8,-1
 36 0 l 2,9,10
 13 0 13 0 13 17 c 0,11,12
 13 41 13 41 45 41 c 2,13,-1
 76 41 l 1,14,-1
 357 522 l 1,15,-1
 237 522 l 2,16,17
 214 522 214 522 214 538 c 0,18,19
 214 563 214 563 246 563 c 2,20,-1
 449 563 l 1,21,-1
 536 41 l 1,22,-1
 573 41 l 2,23,24
 596 41 596 41 596 25 c 0,25,26
 596 0 596 0 564 0 c 2,27,-1
 408 0 l 2,28,29
 385 0 385 0 385 16 c 0,30,31
 385 41 385 41 417 41 c 2,32,-1
 493 41 l 1,33,-1
 468 188 l 1,0,-1
462 229 m 1,34,-1
 412 522 l 1,35,-1
 397 522 l 1,36,-1
 227 229 l 1,37,-1
 462 229 l 1,34,-1
530 749 m 2,38,-1
 396 649 l 2,39,40
 385 640 385 640 376 640 c 0,41,42
 358 640 358 640 358 657 c 0,43,44
 358 667 358 667 375 680 c 2,45,-1
 510 780 l 2,46,47
 522 789 522 789 531 789 c 0,48,49
 538 789 538 789 542.5 784 c 128,-1,50
 547 779 547 779 547 772 c 0,51,52
 547 762 547 762 530 749 c 2,38,-1
EndSplineSet
EndChar

StartChar: Agrave
Encoding: 192 192 154
Width: 600
GlyphClass: 2
Flags: W
LayerCount: 2
Fore
SplineSet
468 188 m 1,0,-1
 203 188 l 1,1,-1
 117 41 l 1,2,-1
 196 41 l 2,3,4
 219 41 219 41 219 25 c 0,5,6
 219 14 219 14 210 7 c 128,-1,7
 201 0 201 0 187 0 c 2,8,-1
 36 0 l 2,9,10
 13 0 13 0 13 17 c 0,11,12
 13 41 13 41 45 41 c 2,13,-1
 76 41 l 1,14,-1
 357 522 l 1,15,-1
 237 522 l 2,16,17
 214 522 214 522 214 538 c 0,18,19
 214 563 214 563 246 563 c 2,20,-1
 449 563 l 1,21,-1
 536 41 l 1,22,-1
 573 41 l 2,23,24
 596 41 596 41 596 25 c 0,25,26
 596 0 596 0 564 0 c 2,27,-1
 408 0 l 2,28,29
 385 0 385 0 385 16 c 0,30,31
 385 41 385 41 417 41 c 2,32,-1
 493 41 l 1,33,-1
 468 188 l 1,0,-1
462 229 m 1,34,-1
 412 522 l 1,35,-1
 397 522 l 1,36,-1
 227 229 l 1,37,-1
 462 229 l 1,34,-1
371 780 m 2,38,-1
 463 680 l 2,39,40
 473 668 473 668 472 666 c 0,41,42
 467 650 467 650 466 650 c 1,43,44
 459 640 459 640 447 640 c 0,45,46
 437 640 437 640 431 649 c 1,47,-1
 338 749 l 2,48,49
 327 760 327 760 329 763 c 1,50,51
 336 789 336 789 354 789 c 0,52,53
 362 789 362 789 371 780 c 2,38,-1
EndSplineSet
EndChar

StartChar: Acircumflex
Encoding: 194 194 155
Width: 600
GlyphClass: 2
Flags: W
LayerCount: 2
Fore
SplineSet
468 188 m 1,0,-1
 203 188 l 1,1,-1
 117 41 l 1,2,-1
 196 41 l 2,3,4
 219 41 219 41 219 25 c 0,5,6
 219 14 219 14 210 7 c 128,-1,7
 201 0 201 0 187 0 c 2,8,-1
 36 0 l 2,9,10
 13 0 13 0 13 17 c 0,11,12
 13 41 13 41 45 41 c 2,13,-1
 76 41 l 1,14,-1
 357 522 l 1,15,-1
 237 522 l 2,16,17
 214 522 214 522 214 538 c 0,18,19
 214 563 214 563 246 563 c 2,20,-1
 449 563 l 1,21,-1
 536 41 l 1,22,-1
 573 41 l 2,23,24
 596 41 596 41 596 25 c 0,25,26
 596 0 596 0 564 0 c 2,27,-1
 408 0 l 2,28,29
 385 0 385 0 385 16 c 0,30,31
 385 41 385 41 417 41 c 2,32,-1
 493 41 l 1,33,-1
 468 188 l 1,0,-1
462 229 m 1,34,-1
 412 522 l 1,35,-1
 397 522 l 1,36,-1
 227 229 l 1,37,-1
 462 229 l 1,34,-1
439 789 m 1,38,-1
 549 680 l 2,39,40
 559 671 559 671 559 664 c 0,41,42
 559 655 559 655 550.5 647.5 c 128,-1,43
 542 640 542 640 532 640 c 0,44,45
 526 640 526 640 518 648 c 2,46,-1
 429 739 l 1,47,-1
 304 648 l 2,48,49
 293 640 293 640 285 640 c 0,50,51
 278 640 278 640 273 644.5 c 128,-1,52
 268 649 268 649 268 656 c 0,53,54
 268 671 268 671 283 678 c 2,55,-1
 287 680 l 1,56,-1
 439 789 l 1,38,-1
EndSplineSet
EndChar

StartChar: Abreve
Encoding: 258 258 156
Width: 600
GlyphClass: 2
Flags: W
LayerCount: 2
Fore
SplineSet
468 188 m 1,0,-1
 203 188 l 1,1,-1
 117 41 l 1,2,-1
 196 41 l 2,3,4
 219 41 219 41 219 25 c 0,5,6
 219 14 219 14 210 7 c 128,-1,7
 201 0 201 0 187 0 c 2,8,-1
 36 0 l 2,9,10
 13 0 13 0 13 17 c 0,11,12
 13 41 13 41 45 41 c 2,13,-1
 76 41 l 1,14,-1
 357 522 l 1,15,-1
 237 522 l 2,16,17
 214 522 214 522 214 538 c 0,18,19
 214 563 214 563 246 563 c 2,20,-1
 449 563 l 1,21,-1
 536 41 l 1,22,-1
 573 41 l 2,23,24
 596 41 596 41 596 25 c 0,25,26
 596 0 596 0 564 0 c 2,27,-1
 408 0 l 2,28,29
 385 0 385 0 385 16 c 0,30,31
 385 41 385 41 417 41 c 2,32,-1
 493 41 l 1,33,-1
 468 188 l 1,0,-1
462 229 m 1,34,-1
 412 522 l 1,35,-1
 397 522 l 1,36,-1
 227 229 l 1,37,-1
 462 229 l 1,34,-1
298 777 m 0,38,39
 304 777 304 777 310 771 c 1,40,41
 313 767 313 767 315 736 c 0,42,43
 316 718 316 718 344 703 c 128,-1,44
 372 688 372 688 406 688 c 0,45,46
 451 688 451 688 485.5 706.5 c 128,-1,47
 520 725 520 725 533 755 c 0,48,49
 539 769 539 769 543.5 773 c 128,-1,50
 548 777 548 777 558 777 c 0,51,52
 576 777 576 777 576 761 c 0,53,54
 576 728 576 728 532 692 c 0,55,56
 478 647 478 647 399 647 c 0,57,58
 338 647 338 647 304.5 672 c 128,-1,59
 271 697 271 697 271 744 c 0,60,61
 271 759 271 759 278.5 768 c 128,-1,62
 286 777 286 777 298 777 c 0,38,39
EndSplineSet
EndChar

StartChar: Atilde
Encoding: 195 195 157
Width: 600
GlyphClass: 2
Flags: W
LayerCount: 2
Fore
SplineSet
468 188 m 1,0,-1
 203 188 l 1,1,-1
 117 41 l 1,2,-1
 196 41 l 2,3,4
 219 41 219 41 219 25 c 0,5,6
 219 14 219 14 210 7 c 128,-1,7
 201 0 201 0 187 0 c 2,8,-1
 36 0 l 2,9,10
 13 0 13 0 13 17 c 0,11,12
 13 41 13 41 45 41 c 2,13,-1
 76 41 l 1,14,-1
 357 522 l 1,15,-1
 237 522 l 2,16,17
 214 522 214 522 214 538 c 0,18,19
 214 563 214 563 246 563 c 2,20,-1
 449 563 l 1,21,-1
 536 41 l 1,22,-1
 573 41 l 2,23,24
 596 41 596 41 596 25 c 0,25,26
 596 0 596 0 564 0 c 2,27,-1
 408 0 l 2,28,29
 385 0 385 0 385 16 c 0,30,31
 385 41 385 41 417 41 c 2,32,-1
 493 41 l 1,33,-1
 468 188 l 1,0,-1
462 229 m 1,34,-1
 412 522 l 1,35,-1
 397 522 l 1,36,-1
 227 229 l 1,37,-1
 462 229 l 1,34,-1
568 753 m 0,38,39
 575 753 575 753 580 748.5 c 128,-1,40
 585 744 585 744 585 738 c 0,41,42
 585 726 585 726 563 708 c 0,43,44
 515 666 515 666 479 666 c 0,45,46
 450 666 450 666 405 697 c 0,47,48
 381 714 381 714 365 714 c 0,49,50
 350 714 350 714 338 707 c 128,-1,51
 326 700 326 700 299 677 c 0,52,53
 291 669 291 669 280 669 c 0,54,55
 273 669 273 669 268.5 673.5 c 128,-1,56
 264 678 264 678 264 684 c 0,57,58
 264 697 264 697 290 718 c 0,59,60
 337 755 337 755 372 755 c 0,61,62
 398 755 398 755 432 732 c 0,63,64
 471 707 471 707 486 707 c 0,65,66
 507 707 507 707 551 745 c 0,67,68
 560 753 560 753 568 753 c 0,38,39
EndSplineSet
EndChar

StartChar: Aring
Encoding: 197 197 158
Width: 600
GlyphClass: 2
Flags: W
LayerCount: 2
Fore
SplineSet
468 188 m 1,0,-1
 203 188 l 1,1,-1
 117 41 l 1,2,-1
 196 41 l 2,3,4
 219 41 219 41 219 25 c 0,5,6
 219 14 219 14 210 7 c 128,-1,7
 201 0 201 0 187 0 c 2,8,-1
 36 0 l 2,9,10
 13 0 13 0 13 17 c 0,11,12
 13 41 13 41 45 41 c 2,13,-1
 76 41 l 1,14,-1
 357 522 l 1,15,-1
 237 522 l 2,16,17
 214 522 214 522 214 538 c 0,18,19
 214 563 214 563 246 563 c 2,20,-1
 449 563 l 1,21,-1
 536 41 l 1,22,-1
 573 41 l 2,23,24
 596 41 596 41 596 25 c 0,25,26
 596 0 596 0 564 0 c 2,27,-1
 408 0 l 2,28,29
 385 0 385 0 385 16 c 0,30,31
 385 41 385 41 417 41 c 2,32,-1
 493 41 l 1,33,-1
 468 188 l 1,0,-1
462 229 m 1,34,-1
 412 522 l 1,35,-1
 397 522 l 1,36,-1
 227 229 l 1,37,-1
 462 229 l 1,34,-1
449 811 m 0,38,39
 482 811 482 811 503.5 790.5 c 128,-1,40
 525 770 525 770 525 739 c 0,41,42
 525 697 525 697 490 663.5 c 128,-1,43
 455 630 455 630 410 630 c 0,44,45
 378 630 378 630 356.5 651 c 128,-1,46
 335 672 335 672 335 703 c 0,47,48
 335 744 335 744 370 777.5 c 128,-1,49
 405 811 405 811 449 811 c 0,38,39
442 778 m 0,50,51
 414 778 414 778 391.5 756.5 c 128,-1,52
 369 735 369 735 369 709 c 0,53,54
 369 690 369 690 383 676.5 c 128,-1,55
 397 663 397 663 417 663 c 0,56,57
 446 663 446 663 468.5 684 c 128,-1,58
 491 705 491 705 491 732 c 0,59,60
 491 752 491 752 477 765 c 128,-1,61
 463 778 463 778 442 778 c 0,50,51
EndSplineSet
EndChar

StartChar: Aogonek
Encoding: 260 260 159
Width: 600
GlyphClass: 2
Flags: W
LayerCount: 2
Fore
SplineSet
449 563 m 1,0,-1
 536 41 l 1,1,-1
 573 41 l 2,2,3
 596 41 596 41 596 25 c 0,4,5
 596 3 596 3 569 0 c 0,6,7
 546 -3 546 -3 495 -32 c 0,8,9
 445 -63 445 -63 445 -100 c 0,10,11
 445 -125 445 -125 477 -125 c 0,12,13
 496 -125 496 -125 505.5 -122 c 128,-1,14
 515 -119 515 -119 532 -107 c 0,15,16
 536 -104 536 -104 542 -104 c 0,17,18
 546 -104 546 -104 549.5 -108 c 128,-1,19
 553 -112 553 -112 553 -116 c 0,20,21
 553 -130 553 -130 526.5 -142.5 c 128,-1,22
 500 -155 500 -155 470 -155 c 0,23,24
 403 -155 403 -155 403 -108 c 0,25,26
 403 -69 403 -69 441 -39 c 0,27,28
 455 -27 455 -27 509 0 c 1,29,-1
 408 0 l 2,30,31
 385 0 385 0 385 16 c 0,32,33
 385 41 385 41 417 41 c 2,34,-1
 493 41 l 1,35,-1
 468 188 l 1,36,-1
 203 188 l 1,37,-1
 117 41 l 1,38,-1
 196 41 l 2,39,40
 219 41 219 41 219 25 c 0,41,42
 219 14 219 14 210 7 c 128,-1,43
 201 0 201 0 187 0 c 2,44,-1
 36 0 l 2,45,46
 13 0 13 0 13 17 c 0,47,48
 13 41 13 41 45 41 c 2,49,-1
 76 41 l 1,50,-1
 357 522 l 1,51,-1
 237 522 l 2,52,53
 214 522 214 522 214 538 c 0,54,55
 214 563 214 563 246 563 c 2,56,-1
 449 563 l 1,0,-1
462 229 m 1,57,-1
 412 522 l 1,58,-1
 397 522 l 1,59,-1
 227 229 l 1,60,-1
 462 229 l 1,57,-1
EndSplineSet
EndChar

StartChar: Ccedilla
Encoding: 199 199 160
Width: 600
GlyphClass: 2
Flags: W
LayerCount: 2
Fore
SplineSet
314 -16 m 1,0,-1
 307 -47 l 1,1,2
 361 -48 361 -48 361 -93 c 0,3,4
 361 -127 361 -127 334 -150 c 128,-1,5
 307 -173 307 -173 267 -173 c 0,6,7
 239 -173 239 -173 212.5 -161.5 c 128,-1,8
 186 -150 186 -150 186 -138 c 0,9,10
 186 -128 186 -128 193.5 -121 c 128,-1,11
 201 -114 201 -114 210 -114 c 0,12,13
 215 -114 215 -114 225 -119 c 0,14,15
 250 -135 250 -135 273 -135 c 0,16,17
 295 -135 295 -135 309.5 -125.5 c 128,-1,18
 324 -116 324 -116 324 -101 c 0,19,20
 324 -81 324 -81 283 -81 c 2,21,-1
 262 -81 l 1,22,-1
 277 -12 l 1,23,24
 221 3 221 3 189 28 c 0,25,26
 152 57 152 57 131 102 c 128,-1,27
 110 147 110 147 110 196 c 0,28,29
 110 217 110 217 115 242 c 2,30,-1
 132 325 l 2,31,32
 142 371 142 371 171.5 419 c 128,-1,33
 201 467 201 467 242 502 c 0,34,35
 325 576 325 576 428 576 c 0,36,37
 529 576 529 576 586 507 c 1,38,-1
 592 536 l 2,39,40
 598 563 598 563 618 563 c 0,41,42
 635 563 635 563 635 548 c 0,43,44
 635 546 635 546 633 536 c 2,45,-1
 609 424 l 2,46,47
 604 396 604 396 583 396 c 0,48,49
 574 396 574 396 566 408 c 1,50,-1
 570 446 l 2,51,52
 570 448 570 448 557 468 c 128,-1,53
 544 488 544 488 538 494 c 0,54,55
 521 512 521 512 487 524 c 128,-1,56
 453 536 453 536 419 536 c 0,57,58
 336 536 336 536 263.5 472 c 128,-1,59
 191 408 191 408 172 319 c 2,60,-1
 157 248 l 2,61,62
 152 223 152 223 152 203 c 0,63,64
 152 126 152 126 202 75.5 c 128,-1,65
 252 25 252 25 328 25 c 0,66,67
 426 25 426 25 522 115 c 0,68,69
 532 125 532 125 542 125 c 0,70,71
 558 125 558 125 558 111 c 128,-1,72
 558 97 558 97 524 68 c 0,73,74
 480 30 480 30 426.5 7 c 128,-1,75
 373 -16 373 -16 327 -16 c 2,76,-1
 314 -16 l 1,0,-1
EndSplineSet
EndChar

StartChar: Cacute
Encoding: 262 262 161
Width: 600
GlyphClass: 2
Flags: W
LayerCount: 2
Fore
SplineSet
586 507 m 1,0,-1
 592 536 l 2,1,2
 598 563 598 563 618 563 c 0,3,4
 635 563 635 563 635 548 c 0,5,6
 635 546 635 546 633 536 c 2,7,-1
 609 424 l 2,8,9
 604 396 604 396 583 396 c 0,10,11
 574 396 574 396 566 408 c 1,12,-1
 570 446 l 2,13,14
 570 448 570 448 557 468 c 128,-1,15
 544 488 544 488 538 494 c 0,16,17
 521 512 521 512 487 524 c 128,-1,18
 453 536 453 536 419 536 c 0,19,20
 336 536 336 536 263.5 472 c 128,-1,21
 191 408 191 408 172 319 c 2,22,-1
 157 248 l 2,23,24
 152 223 152 223 152 203 c 0,25,26
 152 126 152 126 202 75.5 c 128,-1,27
 252 25 252 25 328 25 c 0,28,29
 426 25 426 25 522 115 c 0,30,31
 532 125 532 125 542 125 c 0,32,33
 558 125 558 125 558 111 c 128,-1,34
 558 97 558 97 524 67 c 0,35,36
 425 -16 425 -16 319 -16 c 0,37,38
 230 -16 230 -16 170 45 c 128,-1,39
 110 106 110 106 110 196 c 0,40,41
 110 217 110 217 115 242 c 2,42,-1
 132 325 l 2,43,44
 142 371 142 371 171.5 419 c 128,-1,45
 201 467 201 467 242 502 c 0,46,47
 325 576 325 576 428 576 c 0,48,49
 529 576 529 576 586 507 c 1,0,-1
555 749 m 2,50,-1
 421 649 l 2,51,52
 410 640 410 640 401 640 c 0,53,54
 383 640 383 640 383 657 c 0,55,56
 383 667 383 667 400 680 c 2,57,-1
 535 780 l 2,58,59
 547 789 547 789 556 789 c 0,60,61
 563 789 563 789 567.5 784 c 128,-1,62
 572 779 572 779 572 772 c 0,63,64
 572 762 572 762 555 749 c 2,50,-1
EndSplineSet
EndChar

StartChar: Ccaron
Encoding: 268 268 162
Width: 600
GlyphClass: 2
Flags: W
LayerCount: 2
Fore
SplineSet
586 507 m 1,0,-1
 592 536 l 2,1,2
 598 563 598 563 618 563 c 0,3,4
 635 563 635 563 635 548 c 0,5,6
 635 546 635 546 633 536 c 2,7,-1
 609 424 l 2,8,9
 604 396 604 396 583 396 c 0,10,11
 574 396 574 396 566 408 c 1,12,-1
 570 446 l 2,13,14
 570 448 570 448 557 468 c 128,-1,15
 544 488 544 488 538 494 c 0,16,17
 521 512 521 512 487 524 c 128,-1,18
 453 536 453 536 419 536 c 0,19,20
 336 536 336 536 263.5 472 c 128,-1,21
 191 408 191 408 172 319 c 2,22,-1
 157 248 l 2,23,24
 152 223 152 223 152 203 c 0,25,26
 152 126 152 126 202 75.5 c 128,-1,27
 252 25 252 25 328 25 c 0,28,29
 426 25 426 25 522 115 c 0,30,31
 532 125 532 125 542 125 c 0,32,33
 558 125 558 125 558 111 c 128,-1,34
 558 97 558 97 524 67 c 0,35,36
 425 -16 425 -16 319 -16 c 0,37,38
 230 -16 230 -16 170 45 c 128,-1,39
 110 106 110 106 110 196 c 0,40,41
 110 217 110 217 115 242 c 2,42,-1
 132 325 l 2,43,44
 142 371 142 371 171.5 419 c 128,-1,45
 201 467 201 467 242 502 c 0,46,47
 325 576 325 576 428 576 c 0,48,49
 529 576 529 576 586 507 c 1,0,-1
458 640 m 1,50,-1
 348 749 l 1,51,52
 338 754 338 754 338 766 c 0,53,54
 338 773 338 773 345.5 781 c 128,-1,55
 353 789 353 789 360 789 c 2,56,-1
 363 789 l 1,57,-1
 368 789 l 2,58,59
 371 789 371 789 379 781 c 2,60,-1
 468 690 l 1,61,-1
 593 781 l 2,62,63
 605 789 605 789 612 789 c 0,64,65
 628 789 628 789 628 774 c 0,66,67
 628 757 628 757 614 751 c 2,68,-1
 610 749 l 1,69,-1
 458 640 l 1,50,-1
EndSplineSet
EndChar

StartChar: Dcaron
Encoding: 270 270 163
Width: 600
GlyphClass: 2
Flags: W
LayerCount: 2
Fore
SplineSet
113 41 m 1,0,-1
 215 522 l 1,1,-1
 181 522 l 2,2,3
 158 522 158 522 158 538 c 0,4,5
 158 563 158 563 190 563 c 2,6,-1
 410 563 l 2,7,8
 492 563 492 563 542 509 c 128,-1,9
 592 455 592 455 592 368 c 0,10,11
 592 338 592 338 586 310 c 2,12,-1
 574 254 l 2,13,14
 551 147 551 147 469 73.5 c 128,-1,15
 387 0 387 0 290 0 c 2,16,-1
 70 0 l 2,17,18
 47 0 47 0 47 16 c 0,19,20
 47 41 47 41 79 41 c 2,21,-1
 113 41 l 1,0,-1
154 41 m 1,22,-1
 303 41 l 2,23,24
 375 41 375 41 444.5 103 c 128,-1,25
 514 165 514 165 531 245 c 2,26,-1
 547 318 l 2,27,28
 551 346 551 346 551 357 c 0,29,30
 551 423 551 423 514 472 c 0,31,32
 477 522 477 522 399 522 c 2,33,-1
 256 522 l 1,34,-1
 154 41 l 1,22,-1
398 640 m 1,35,-1
 288 749 l 1,36,37
 278 754 278 754 278 766 c 0,38,39
 278 773 278 773 285.5 781 c 128,-1,40
 293 789 293 789 300 789 c 2,41,-1
 303 789 l 1,42,-1
 308 789 l 2,43,44
 311 789 311 789 319 781 c 2,45,-1
 408 690 l 1,46,-1
 533 781 l 2,47,48
 545 789 545 789 552 789 c 0,49,50
 568 789 568 789 568 774 c 0,51,52
 568 757 568 757 554 751 c 2,53,-1
 550 749 l 1,54,-1
 398 640 l 1,35,-1
EndSplineSet
EndChar

StartChar: Edieresis
Encoding: 203 203 164
Width: 600
GlyphClass: 2
Flags: W
LayerCount: 2
Fore
SplineSet
223 272 m 1,0,-1
 174 41 l 1,1,-1
 488 41 l 1,2,-1
 513 160 l 2,3,4
 519 187 519 187 540 187 c 0,5,6
 547 187 547 187 551.5 182.5 c 128,-1,7
 556 178 556 178 556 172 c 0,8,9
 556 170 556 170 554 160 c 2,10,-1
 520 0 l 1,11,-1
 70 0 l 2,12,13
 47 0 47 0 47 17 c 0,14,15
 47 41 47 41 79 41 c 2,16,-1
 133 41 l 1,17,-1
 235 522 l 1,18,-1
 181 522 l 2,19,20
 158 522 158 522 158 539 c 0,21,22
 158 563 158 563 190 563 c 2,23,-1
 619 563 l 1,24,-1
 589 424 l 2,25,26
 584 397 584 397 563 397 c 0,27,28
 556 397 556 397 551.5 401.5 c 128,-1,29
 547 406 547 406 547 412 c 2,30,-1
 548 424 l 1,31,-1
 569 522 l 1,32,-1
 276 522 l 1,33,-1
 232 313 l 1,34,-1
 377 313 l 1,35,-1
 386 358 l 2,36,37
 392 385 392 385 412 385 c 0,38,39
 429 385 429 385 429 370 c 0,40,41
 429 366 429 366 427 358 c 2,42,-1
 399 227 l 2,43,44
 394 200 394 200 373 200 c 0,45,46
 366 200 366 200 361.5 204.5 c 128,-1,47
 357 209 357 209 357 215 c 2,48,-1
 358 227 l 1,49,-1
 368 272 l 1,50,-1
 223 272 l 1,0,-1
342 762 m 0,51,52
 359 762 359 762 370.5 750.5 c 128,-1,53
 382 739 382 739 382 721 c 0,54,55
 382 698 382 698 362.5 679.5 c 128,-1,56
 343 661 343 661 320 661 c 0,57,58
 304 661 304 661 292.5 673 c 128,-1,59
 281 685 281 685 281 702 c 0,60,61
 281 724 281 724 300.5 743 c 128,-1,62
 320 762 320 762 342 762 c 0,51,52
563 762 m 0,63,64
 580 762 580 762 591.5 750.5 c 128,-1,65
 603 739 603 739 603 721 c 0,66,67
 603 698 603 698 584 679.5 c 128,-1,68
 565 661 565 661 541 661 c 0,69,70
 525 661 525 661 513.5 673 c 128,-1,71
 502 685 502 685 502 702 c 0,72,73
 502 724 502 724 521.5 743 c 128,-1,74
 541 762 541 762 563 762 c 0,63,64
EndSplineSet
EndChar

StartChar: Eacute
Encoding: 201 201 165
Width: 600
GlyphClass: 2
Flags: W
LayerCount: 2
Fore
SplineSet
223 272 m 1,0,-1
 174 41 l 1,1,-1
 488 41 l 1,2,-1
 513 160 l 2,3,4
 519 187 519 187 540 187 c 0,5,6
 547 187 547 187 551.5 182.5 c 128,-1,7
 556 178 556 178 556 172 c 0,8,9
 556 170 556 170 554 160 c 2,10,-1
 520 0 l 1,11,-1
 70 0 l 2,12,13
 47 0 47 0 47 17 c 0,14,15
 47 41 47 41 79 41 c 2,16,-1
 133 41 l 1,17,-1
 235 522 l 1,18,-1
 181 522 l 2,19,20
 158 522 158 522 158 539 c 0,21,22
 158 563 158 563 190 563 c 2,23,-1
 619 563 l 1,24,-1
 589 424 l 2,25,26
 584 397 584 397 563 397 c 0,27,28
 556 397 556 397 551.5 401.5 c 128,-1,29
 547 406 547 406 547 412 c 2,30,-1
 548 424 l 1,31,-1
 569 522 l 1,32,-1
 276 522 l 1,33,-1
 232 313 l 1,34,-1
 377 313 l 1,35,-1
 386 358 l 2,36,37
 392 385 392 385 412 385 c 0,38,39
 429 385 429 385 429 370 c 0,40,41
 429 366 429 366 427 358 c 2,42,-1
 399 227 l 2,43,44
 394 200 394 200 373 200 c 0,45,46
 366 200 366 200 361.5 204.5 c 128,-1,47
 357 209 357 209 357 215 c 2,48,-1
 358 227 l 1,49,-1
 368 272 l 1,50,-1
 223 272 l 1,0,-1
548 749 m 2,51,-1
 414 649 l 2,52,53
 403 640 403 640 394 640 c 0,54,55
 376 640 376 640 376 657 c 0,56,57
 376 667 376 667 393 680 c 2,58,-1
 528 780 l 2,59,60
 540 789 540 789 549 789 c 0,61,62
 556 789 556 789 560.5 784 c 128,-1,63
 565 779 565 779 565 772 c 0,64,65
 565 762 565 762 548 749 c 2,51,-1
EndSplineSet
EndChar

StartChar: Egrave
Encoding: 200 200 166
Width: 600
GlyphClass: 2
Flags: W
LayerCount: 2
Fore
SplineSet
223 272 m 1,0,-1
 174 41 l 1,1,-1
 488 41 l 1,2,-1
 513 160 l 2,3,4
 519 187 519 187 540 187 c 0,5,6
 547 187 547 187 551.5 182.5 c 128,-1,7
 556 178 556 178 556 172 c 0,8,9
 556 170 556 170 554 160 c 2,10,-1
 520 0 l 1,11,-1
 70 0 l 2,12,13
 47 0 47 0 47 17 c 0,14,15
 47 41 47 41 79 41 c 2,16,-1
 133 41 l 1,17,-1
 235 522 l 1,18,-1
 181 522 l 2,19,20
 158 522 158 522 158 539 c 0,21,22
 158 563 158 563 190 563 c 2,23,-1
 619 563 l 1,24,-1
 589 424 l 2,25,26
 584 397 584 397 563 397 c 0,27,28
 556 397 556 397 551.5 401.5 c 128,-1,29
 547 406 547 406 547 412 c 2,30,-1
 548 424 l 1,31,-1
 569 522 l 1,32,-1
 276 522 l 1,33,-1
 232 313 l 1,34,-1
 377 313 l 1,35,-1
 386 358 l 2,36,37
 392 385 392 385 412 385 c 0,38,39
 429 385 429 385 429 370 c 0,40,41
 429 366 429 366 427 358 c 2,42,-1
 399 227 l 2,43,44
 394 200 394 200 373 200 c 0,45,46
 366 200 366 200 361.5 204.5 c 128,-1,47
 357 209 357 209 357 215 c 2,48,-1
 358 227 l 1,49,-1
 368 272 l 1,50,-1
 223 272 l 1,0,-1
383 780 m 2,51,-1
 475 680 l 2,52,53
 485 668 485 668 484 666 c 0,54,55
 479 650 479 650 478 650 c 1,56,57
 471 640 471 640 459 640 c 0,58,59
 449 640 449 640 443 649 c 1,60,-1
 350 749 l 2,61,62
 339 760 339 760 341 763 c 1,63,64
 348 789 348 789 366 789 c 0,65,66
 374 789 374 789 383 780 c 2,51,-1
EndSplineSet
EndChar

StartChar: Ecircumflex
Encoding: 202 202 167
Width: 600
GlyphClass: 2
Flags: W
LayerCount: 2
Fore
SplineSet
223 272 m 1,0,-1
 174 41 l 1,1,-1
 488 41 l 1,2,-1
 513 160 l 2,3,4
 519 187 519 187 540 187 c 0,5,6
 547 187 547 187 551.5 182.5 c 128,-1,7
 556 178 556 178 556 172 c 0,8,9
 556 170 556 170 554 160 c 2,10,-1
 520 0 l 1,11,-1
 70 0 l 2,12,13
 47 0 47 0 47 17 c 0,14,15
 47 41 47 41 79 41 c 2,16,-1
 133 41 l 1,17,-1
 235 522 l 1,18,-1
 181 522 l 2,19,20
 158 522 158 522 158 539 c 0,21,22
 158 563 158 563 190 563 c 2,23,-1
 619 563 l 1,24,-1
 589 424 l 2,25,26
 584 397 584 397 563 397 c 0,27,28
 556 397 556 397 551.5 401.5 c 128,-1,29
 547 406 547 406 547 412 c 2,30,-1
 548 424 l 1,31,-1
 569 522 l 1,32,-1
 276 522 l 1,33,-1
 232 313 l 1,34,-1
 377 313 l 1,35,-1
 386 358 l 2,36,37
 392 385 392 385 412 385 c 0,38,39
 429 385 429 385 429 370 c 0,40,41
 429 366 429 366 427 358 c 2,42,-1
 399 227 l 2,43,44
 394 200 394 200 373 200 c 0,45,46
 366 200 366 200 361.5 204.5 c 128,-1,47
 357 209 357 209 357 215 c 2,48,-1
 358 227 l 1,49,-1
 368 272 l 1,50,-1
 223 272 l 1,0,-1
457 789 m 1,51,-1
 567 680 l 2,52,53
 577 671 577 671 577 664 c 0,54,55
 577 655 577 655 568.5 647.5 c 128,-1,56
 560 640 560 640 550 640 c 0,57,58
 544 640 544 640 536 648 c 2,59,-1
 447 739 l 1,60,-1
 322 648 l 2,61,62
 311 640 311 640 303 640 c 0,63,64
 296 640 296 640 291 644.5 c 128,-1,65
 286 649 286 649 286 656 c 0,66,67
 286 671 286 671 301 678 c 2,68,-1
 305 680 l 1,69,-1
 457 789 l 1,51,-1
EndSplineSet
EndChar

StartChar: Ecaron
Encoding: 282 282 168
Width: 600
GlyphClass: 2
Flags: W
LayerCount: 2
Fore
SplineSet
223 272 m 1,0,-1
 174 41 l 1,1,-1
 488 41 l 1,2,-1
 513 160 l 2,3,4
 519 187 519 187 540 187 c 0,5,6
 547 187 547 187 551.5 182.5 c 128,-1,7
 556 178 556 178 556 172 c 0,8,9
 556 170 556 170 554 160 c 2,10,-1
 520 0 l 1,11,-1
 70 0 l 2,12,13
 47 0 47 0 47 17 c 0,14,15
 47 41 47 41 79 41 c 2,16,-1
 133 41 l 1,17,-1
 235 522 l 1,18,-1
 181 522 l 2,19,20
 158 522 158 522 158 539 c 0,21,22
 158 563 158 563 190 563 c 2,23,-1
 619 563 l 1,24,-1
 589 424 l 2,25,26
 584 397 584 397 563 397 c 0,27,28
 556 397 556 397 551.5 401.5 c 128,-1,29
 547 406 547 406 547 412 c 2,30,-1
 548 424 l 1,31,-1
 569 522 l 1,32,-1
 276 522 l 1,33,-1
 232 313 l 1,34,-1
 377 313 l 1,35,-1
 386 358 l 2,36,37
 392 385 392 385 412 385 c 0,38,39
 429 385 429 385 429 370 c 0,40,41
 429 366 429 366 427 358 c 2,42,-1
 399 227 l 2,43,44
 394 200 394 200 373 200 c 0,45,46
 366 200 366 200 361.5 204.5 c 128,-1,47
 357 209 357 209 357 215 c 2,48,-1
 358 227 l 1,49,-1
 368 272 l 1,50,-1
 223 272 l 1,0,-1
408 640 m 1,51,-1
 298 749 l 1,52,53
 288 754 288 754 288 766 c 0,54,55
 288 773 288 773 295.5 781 c 128,-1,56
 303 789 303 789 310 789 c 2,57,-1
 313 789 l 1,58,-1
 318 789 l 2,59,60
 321 789 321 789 329 781 c 2,61,-1
 418 690 l 1,62,-1
 543 781 l 2,63,64
 555 789 555 789 562 789 c 0,65,66
 578 789 578 789 578 774 c 0,67,68
 578 757 578 757 564 751 c 2,69,-1
 560 749 l 1,70,-1
 408 640 l 1,51,-1
EndSplineSet
EndChar

StartChar: Edotaccent
Encoding: 278 278 169
Width: 600
GlyphClass: 2
Flags: W
LayerCount: 2
Fore
SplineSet
223 272 m 1,0,-1
 174 41 l 1,1,-1
 488 41 l 1,2,-1
 513 160 l 2,3,4
 519 187 519 187 540 187 c 0,5,6
 547 187 547 187 551.5 182.5 c 128,-1,7
 556 178 556 178 556 172 c 0,8,9
 556 170 556 170 554 160 c 2,10,-1
 520 0 l 1,11,-1
 70 0 l 2,12,13
 47 0 47 0 47 17 c 0,14,15
 47 41 47 41 79 41 c 2,16,-1
 133 41 l 1,17,-1
 235 522 l 1,18,-1
 181 522 l 2,19,20
 158 522 158 522 158 539 c 0,21,22
 158 563 158 563 190 563 c 2,23,-1
 619 563 l 1,24,-1
 589 424 l 2,25,26
 584 397 584 397 563 397 c 0,27,28
 556 397 556 397 551.5 401.5 c 128,-1,29
 547 406 547 406 547 412 c 2,30,-1
 548 424 l 1,31,-1
 569 522 l 1,32,-1
 276 522 l 1,33,-1
 232 313 l 1,34,-1
 377 313 l 1,35,-1
 386 358 l 2,36,37
 392 385 392 385 412 385 c 0,38,39
 429 385 429 385 429 370 c 0,40,41
 429 366 429 366 427 358 c 2,42,-1
 399 227 l 2,43,44
 394 200 394 200 373 200 c 0,45,46
 366 200 366 200 361.5 204.5 c 128,-1,47
 357 209 357 209 357 215 c 2,48,-1
 358 227 l 1,49,-1
 368 272 l 1,50,-1
 223 272 l 1,0,-1
444 762 m 0,51,52
 461 762 461 762 472.5 750.5 c 128,-1,53
 484 739 484 739 484 721 c 0,54,55
 484 698 484 698 464.5 679.5 c 128,-1,56
 445 661 445 661 422 661 c 0,57,58
 406 661 406 661 394.5 673 c 128,-1,59
 383 685 383 685 383 702 c 0,60,61
 383 724 383 724 402.5 743 c 128,-1,62
 422 762 422 762 444 762 c 0,51,52
EndSplineSet
EndChar

StartChar: Eogonek
Encoding: 280 280 170
Width: 600
GlyphClass: 2
Flags: W
LayerCount: 2
Fore
SplineSet
174 41 m 1,0,-1
 488 41 l 1,1,-1
 513 160 l 2,2,3
 519 187 519 187 540 187 c 0,4,5
 547 187 547 187 551.5 182.5 c 128,-1,6
 556 178 556 178 556 172 c 0,7,8
 556 170 556 170 554 160 c 2,9,-1
 520 0 l 1,10,11
 460 -17 460 -17 426.5 -43.5 c 128,-1,12
 393 -70 393 -70 393 -100 c 0,13,14
 393 -125 393 -125 425 -125 c 0,15,16
 444 -125 444 -125 453.5 -122 c 128,-1,17
 463 -119 463 -119 480 -107 c 0,18,19
 484 -104 484 -104 490 -104 c 0,20,21
 494 -104 494 -104 497.5 -108 c 128,-1,22
 501 -112 501 -112 501 -116 c 0,23,24
 501 -130 501 -130 474.5 -142.5 c 128,-1,25
 448 -155 448 -155 418 -155 c 0,26,27
 351 -155 351 -155 351 -108 c 0,28,29
 351 -69 351 -69 389 -39 c 0,30,31
 403 -27 403 -27 458 0 c 1,32,-1
 70 0 l 2,33,34
 47 0 47 0 47 17 c 0,35,36
 47 41 47 41 79 41 c 2,37,-1
 133 41 l 1,38,-1
 235 522 l 1,39,-1
 181 522 l 2,40,41
 158 522 158 522 158 539 c 0,42,43
 158 563 158 563 190 563 c 2,44,-1
 619 563 l 1,45,-1
 589 424 l 2,46,47
 584 397 584 397 563 397 c 0,48,49
 556 397 556 397 551.5 401.5 c 128,-1,50
 547 406 547 406 547 412 c 2,51,-1
 548 424 l 1,52,-1
 569 522 l 1,53,-1
 276 522 l 1,54,-1
 232 313 l 1,55,-1
 377 313 l 1,56,-1
 386 358 l 2,57,58
 392 385 392 385 412 385 c 0,59,60
 429 385 429 385 429 370 c 0,61,62
 429 366 429 366 427 358 c 2,63,-1
 399 227 l 2,64,65
 394 200 394 200 373 200 c 0,66,67
 366 200 366 200 361.5 204.5 c 128,-1,68
 357 209 357 209 357 215 c 2,69,-1
 358 227 l 1,70,-1
 368 272 l 1,71,-1
 223 272 l 1,72,-1
 174 41 l 1,0,-1
EndSplineSet
EndChar

StartChar: Gbreve
Encoding: 286 286 171
Width: 600
GlyphClass: 2
Flags: W
LayerCount: 2
Fore
SplineSet
565 209 m 1,0,-1
 528 36 l 1,1,2
 427 -16 427 -16 330 -16 c 0,3,4
 227 -16 227 -16 167.5 36.5 c 128,-1,5
 108 89 108 89 108 179 c 0,6,7
 108 213 108 213 115 244 c 2,8,-1
 131 318 l 2,9,10
 154 427 154 427 242 501.5 c 128,-1,11
 330 576 330 576 436 576 c 0,12,13
 534 576 534 576 590 522 c 1,14,-1
 593 536 l 2,15,16
 599 563 599 563 619 563 c 0,17,18
 636 563 636 563 636 548 c 0,19,20
 636 544 636 544 634 536 c 2,21,-1
 615 445 l 2,22,23
 609 417 609 417 588 417 c 0,24,25
 581 417 581 417 572 429 c 1,26,-1
 575 465 l 2,27,28
 576 470 576 470 562 485.5 c 128,-1,29
 548 501 548 501 537 508 c 0,30,31
 497 536 497 536 428 536 c 0,32,33
 342 536 342 536 266.5 471.5 c 128,-1,34
 191 407 191 407 172 317 c 2,35,-1
 156 244 l 2,36,37
 150 214 150 214 150 187 c 0,38,39
 150 111 150 111 201 68 c 128,-1,40
 252 25 252 25 341 25 c 0,41,42
 411 25 411 25 492 59 c 1,43,-1
 524 209 l 1,44,-1
 385 209 l 2,45,46
 362 209 362 209 362 225 c 0,47,48
 362 250 362 250 394 250 c 2,49,-1
 588 250 l 2,50,51
 612 250 612 250 612 234 c 0,52,53
 612 209 612 209 579 209 c 2,54,-1
 565 209 l 1,0,-1
378 777 m 0,55,56
 384 777 384 777 390 771 c 1,57,58
 393 767 393 767 395 736 c 0,59,60
 396 718 396 718 424 703 c 128,-1,61
 452 688 452 688 486 688 c 0,62,63
 531 688 531 688 565.5 706.5 c 128,-1,64
 600 725 600 725 613 755 c 0,65,66
 619 769 619 769 623.5 773 c 128,-1,67
 628 777 628 777 638 777 c 0,68,69
 656 777 656 777 656 761 c 0,70,71
 656 728 656 728 612 692 c 0,72,73
 558 647 558 647 479 647 c 0,74,75
 418 647 418 647 384.5 672 c 128,-1,76
 351 697 351 697 351 744 c 0,77,78
 351 759 351 759 358.5 768 c 128,-1,79
 366 777 366 777 378 777 c 0,55,56
EndSplineSet
EndChar

StartChar: Idieresis
Encoding: 207 207 172
Width: 600
GlyphClass: 2
Flags: W
LayerCount: 2
Fore
SplineSet
431 522 m 1,0,-1
 329 41 l 1,1,-1
 468 41 l 2,2,3
 492 41 492 41 492 25 c 0,4,5
 492 14 492 14 483 7 c 128,-1,6
 474 0 474 0 460 0 c 2,7,-1
 140 0 l 2,8,9
 117 0 117 0 117 16 c 0,10,11
 117 41 117 41 148 41 c 2,12,-1
 288 41 l 1,13,-1
 390 522 l 1,14,-1
 251 522 l 2,15,16
 228 522 228 522 228 538 c 0,17,18
 228 563 228 563 259 563 c 2,19,-1
 579 563 l 2,20,21
 603 563 603 563 603 547 c 0,22,23
 603 536 603 536 594 529 c 128,-1,24
 585 522 585 522 571 522 c 2,25,-1
 431 522 l 1,0,-1
350 762 m 0,26,27
 367 762 367 762 378.5 750.5 c 128,-1,28
 390 739 390 739 390 721 c 0,29,30
 390 698 390 698 370.5 679.5 c 128,-1,31
 351 661 351 661 328 661 c 0,32,33
 312 661 312 661 300.5 673 c 128,-1,34
 289 685 289 685 289 702 c 0,35,36
 289 724 289 724 308.5 743 c 128,-1,37
 328 762 328 762 350 762 c 0,26,27
571 762 m 0,38,39
 588 762 588 762 599.5 750.5 c 128,-1,40
 611 739 611 739 611 721 c 0,41,42
 611 698 611 698 592 679.5 c 128,-1,43
 573 661 573 661 549 661 c 0,44,45
 533 661 533 661 521.5 673 c 128,-1,46
 510 685 510 685 510 702 c 0,47,48
 510 724 510 724 529.5 743 c 128,-1,49
 549 762 549 762 571 762 c 0,38,39
EndSplineSet
EndChar

StartChar: Iacute
Encoding: 205 205 173
Width: 600
GlyphClass: 2
Flags: W
LayerCount: 2
Fore
SplineSet
431 522 m 1,0,-1
 329 41 l 1,1,-1
 468 41 l 2,2,3
 492 41 492 41 492 25 c 0,4,5
 492 14 492 14 483 7 c 128,-1,6
 474 0 474 0 460 0 c 2,7,-1
 140 0 l 2,8,9
 117 0 117 0 117 16 c 0,10,11
 117 41 117 41 148 41 c 2,12,-1
 288 41 l 1,13,-1
 390 522 l 1,14,-1
 251 522 l 2,15,16
 228 522 228 522 228 538 c 0,17,18
 228 563 228 563 259 563 c 2,19,-1
 579 563 l 2,20,21
 603 563 603 563 603 547 c 0,22,23
 603 536 603 536 594 529 c 128,-1,24
 585 522 585 522 571 522 c 2,25,-1
 431 522 l 1,0,-1
555 749 m 2,26,-1
 421 649 l 2,27,28
 410 640 410 640 401 640 c 0,29,30
 383 640 383 640 383 657 c 0,31,32
 383 667 383 667 400 680 c 2,33,-1
 535 780 l 2,34,35
 547 789 547 789 556 789 c 0,36,37
 563 789 563 789 567.5 784 c 128,-1,38
 572 779 572 779 572 772 c 0,39,40
 572 762 572 762 555 749 c 2,26,-1
EndSplineSet
EndChar

StartChar: Igrave
Encoding: 204 204 174
Width: 600
GlyphClass: 2
Flags: W
LayerCount: 2
Fore
SplineSet
431 522 m 1,0,-1
 329 41 l 1,1,-1
 468 41 l 2,2,3
 492 41 492 41 492 25 c 0,4,5
 492 14 492 14 483 7 c 128,-1,6
 474 0 474 0 460 0 c 2,7,-1
 140 0 l 2,8,9
 117 0 117 0 117 16 c 0,10,11
 117 41 117 41 148 41 c 2,12,-1
 288 41 l 1,13,-1
 390 522 l 1,14,-1
 251 522 l 2,15,16
 228 522 228 522 228 538 c 0,17,18
 228 563 228 563 259 563 c 2,19,-1
 579 563 l 2,20,21
 603 563 603 563 603 547 c 0,22,23
 603 536 603 536 594 529 c 128,-1,24
 585 522 585 522 571 522 c 2,25,-1
 431 522 l 1,0,-1
398 780 m 2,26,-1
 490 680 l 2,27,28
 500 668 500 668 499 666 c 0,29,30
 494 650 494 650 493 650 c 1,31,32
 486 640 486 640 474 640 c 0,33,34
 464 640 464 640 458 649 c 1,35,-1
 365 749 l 2,36,37
 354 760 354 760 356 763 c 1,38,39
 363 789 363 789 381 789 c 0,40,41
 389 789 389 789 398 780 c 2,26,-1
EndSplineSet
EndChar

StartChar: Icircumflex
Encoding: 206 206 175
Width: 600
GlyphClass: 2
Flags: W
LayerCount: 2
Fore
SplineSet
431 522 m 1,0,-1
 329 41 l 1,1,-1
 468 41 l 2,2,3
 492 41 492 41 492 25 c 0,4,5
 492 14 492 14 483 7 c 128,-1,6
 474 0 474 0 460 0 c 2,7,-1
 140 0 l 2,8,9
 117 0 117 0 117 16 c 0,10,11
 117 41 117 41 148 41 c 2,12,-1
 288 41 l 1,13,-1
 390 522 l 1,14,-1
 251 522 l 2,15,16
 228 522 228 522 228 538 c 0,17,18
 228 563 228 563 259 563 c 2,19,-1
 579 563 l 2,20,21
 603 563 603 563 603 547 c 0,22,23
 603 536 603 536 594 529 c 128,-1,24
 585 522 585 522 571 522 c 2,25,-1
 431 522 l 1,0,-1
466 789 m 1,26,-1
 576 680 l 2,27,28
 586 671 586 671 586 664 c 0,29,30
 586 655 586 655 577.5 647.5 c 128,-1,31
 569 640 569 640 559 640 c 0,32,33
 553 640 553 640 545 648 c 2,34,-1
 456 739 l 1,35,-1
 331 648 l 2,36,37
 320 640 320 640 312 640 c 0,38,39
 305 640 305 640 300 644.5 c 128,-1,40
 295 649 295 649 295 656 c 0,41,42
 295 671 295 671 310 678 c 2,43,-1
 314 680 l 1,44,-1
 466 789 l 1,26,-1
EndSplineSet
EndChar

StartChar: Idotaccent
Encoding: 304 304 176
Width: 600
GlyphClass: 2
Flags: W
LayerCount: 2
Fore
SplineSet
431 522 m 1,0,-1
 329 41 l 1,1,-1
 468 41 l 2,2,3
 492 41 492 41 492 25 c 0,4,5
 492 14 492 14 483 7 c 128,-1,6
 474 0 474 0 460 0 c 2,7,-1
 140 0 l 2,8,9
 117 0 117 0 117 16 c 0,10,11
 117 41 117 41 148 41 c 2,12,-1
 288 41 l 1,13,-1
 390 522 l 1,14,-1
 251 522 l 2,15,16
 228 522 228 522 228 538 c 0,17,18
 228 563 228 563 259 563 c 2,19,-1
 579 563 l 2,20,21
 603 563 603 563 603 547 c 0,22,23
 603 536 603 536 594 529 c 128,-1,24
 585 522 585 522 571 522 c 2,25,-1
 431 522 l 1,0,-1
464 762 m 0,26,27
 481 762 481 762 492.5 750.5 c 128,-1,28
 504 739 504 739 504 721 c 0,29,30
 504 698 504 698 484.5 679.5 c 128,-1,31
 465 661 465 661 442 661 c 0,32,33
 426 661 426 661 414.5 673 c 128,-1,34
 403 685 403 685 403 702 c 0,35,36
 403 724 403 724 422.5 743 c 128,-1,37
 442 762 442 762 464 762 c 0,26,27
EndSplineSet
EndChar

StartChar: Lacute
Encoding: 313 313 177
Width: 600
GlyphClass: 2
Flags: W
LayerCount: 2
Fore
SplineSet
338 522 m 1,0,-1
 236 41 l 1,1,-1
 508 41 l 1,2,-1
 542 201 l 2,3,4
 548 228 548 228 568 228 c 0,5,6
 585 228 585 228 585 214 c 0,7,8
 585 211 585 211 583 201 c 2,9,-1
 541 0 l 1,10,-1
 90 0 l 2,11,12
 67 0 67 0 67 16 c 0,13,14
 67 41 67 41 99 41 c 2,15,-1
 195 41 l 1,16,-1
 297 522 l 1,17,-1
 201 522 l 2,18,19
 178 522 178 522 178 539 c 0,20,21
 178 563 178 563 209 563 c 2,22,-1
 443 563 l 2,23,24
 466 563 466 563 466 547 c 0,25,26
 466 522 466 522 434 522 c 2,27,-1
 338 522 l 1,0,-1
475 749 m 2,28,-1
 341 649 l 2,29,30
 330 640 330 640 321 640 c 0,31,32
 303 640 303 640 303 657 c 0,33,34
 303 667 303 667 320 680 c 2,35,-1
 455 780 l 2,36,37
 467 789 467 789 476 789 c 0,38,39
 483 789 483 789 487.5 784 c 128,-1,40
 492 779 492 779 492 772 c 0,41,42
 492 762 492 762 475 749 c 2,28,-1
EndSplineSet
EndChar

StartChar: Lcaron
Encoding: 317 317 178
Width: 600
GlyphClass: 2
Flags: W
LayerCount: 2
Fore
SplineSet
338 522 m 1,0,-1
 236 41 l 1,1,-1
 508 41 l 1,2,-1
 542 201 l 2,3,4
 548 228 548 228 568 228 c 0,5,6
 585 228 585 228 585 214 c 0,7,8
 585 211 585 211 583 201 c 2,9,-1
 541 0 l 1,10,-1
 90 0 l 2,11,12
 67 0 67 0 67 16 c 0,13,14
 67 41 67 41 99 41 c 2,15,-1
 195 41 l 1,16,-1
 297 522 l 1,17,-1
 201 522 l 2,18,19
 178 522 178 522 178 539 c 0,20,21
 178 563 178 563 209 563 c 2,22,-1
 443 563 l 2,23,24
 466 563 466 563 466 547 c 0,25,26
 466 522 466 522 434 522 c 2,27,-1
 338 522 l 1,0,-1
626 539 m 2,28,-1
 516 413 l 2,29,30
 504 399 504 399 491 399 c 0,31,32
 485 399 485 399 480 404 c 128,-1,33
 475 409 475 409 475 414 c 0,34,35
 475 422 475 422 486 436 c 2,36,-1
 597 562 l 2,37,38
 610 576 610 576 622 576 c 0,39,40
 628 576 628 576 633 571.5 c 128,-1,41
 638 567 638 567 638 561 c 0,42,43
 638 551 638 551 626 539 c 2,28,-1
EndSplineSet
EndChar

StartChar: Nacute
Encoding: 323 323 179
Width: 600
GlyphClass: 2
Flags: W
LayerCount: 2
Fore
SplineSet
501 0 m 1,0,-1
 449 0 l 1,1,-1
 251 504 l 1,2,-1
 153 41 l 1,3,-1
 227 41 l 2,4,5
 251 41 251 41 251 25 c 0,6,7
 251 14 251 14 242 7 c 128,-1,8
 233 0 233 0 219 0 c 2,9,-1
 69 0 l 2,10,11
 46 0 46 0 46 17 c 0,12,13
 46 41 46 41 78 41 c 2,14,-1
 112 41 l 1,15,-1
 214 522 l 1,16,-1
 160 522 l 2,17,18
 137 522 137 522 137 539 c 0,19,20
 137 563 137 563 169 563 c 2,21,-1
 275 563 l 1,22,-1
 473 59 l 1,23,-1
 571 522 l 1,24,-1
 497 522 l 2,25,26
 473 522 473 522 473 538 c 0,27,28
 473 563 473 563 505 563 c 2,29,-1
 655 563 l 2,30,31
 678 563 678 563 678 547 c 0,32,33
 678 522 678 522 646 522 c 2,34,-1
 612 522 l 1,35,-1
 501 0 l 1,0,-1
555 749 m 2,36,-1
 421 649 l 2,37,38
 410 640 410 640 401 640 c 0,39,40
 383 640 383 640 383 657 c 0,41,42
 383 667 383 667 400 680 c 2,43,-1
 535 780 l 2,44,45
 547 789 547 789 556 789 c 0,46,47
 563 789 563 789 567.5 784 c 128,-1,48
 572 779 572 779 572 772 c 0,49,50
 572 762 572 762 555 749 c 2,36,-1
EndSplineSet
EndChar

StartChar: Ncaron
Encoding: 327 327 180
Width: 600
GlyphClass: 2
Flags: W
LayerCount: 2
Fore
SplineSet
501 0 m 1,0,-1
 449 0 l 1,1,-1
 251 504 l 1,2,-1
 153 41 l 1,3,-1
 227 41 l 2,4,5
 251 41 251 41 251 25 c 0,6,7
 251 14 251 14 242 7 c 128,-1,8
 233 0 233 0 219 0 c 2,9,-1
 69 0 l 2,10,11
 46 0 46 0 46 17 c 0,12,13
 46 41 46 41 78 41 c 2,14,-1
 112 41 l 1,15,-1
 214 522 l 1,16,-1
 160 522 l 2,17,18
 137 522 137 522 137 539 c 0,19,20
 137 563 137 563 169 563 c 2,21,-1
 275 563 l 1,22,-1
 473 59 l 1,23,-1
 571 522 l 1,24,-1
 497 522 l 2,25,26
 473 522 473 522 473 538 c 0,27,28
 473 563 473 563 505 563 c 2,29,-1
 655 563 l 2,30,31
 678 563 678 563 678 547 c 0,32,33
 678 522 678 522 646 522 c 2,34,-1
 612 522 l 1,35,-1
 501 0 l 1,0,-1
438 640 m 1,36,-1
 328 749 l 1,37,38
 318 754 318 754 318 766 c 0,39,40
 318 773 318 773 325.5 781 c 128,-1,41
 333 789 333 789 340 789 c 2,42,-1
 343 789 l 1,43,-1
 348 789 l 2,44,45
 351 789 351 789 359 781 c 2,46,-1
 448 690 l 1,47,-1
 573 781 l 2,48,49
 585 789 585 789 592 789 c 0,50,51
 608 789 608 789 608 774 c 0,52,53
 608 757 608 757 594 751 c 2,54,-1
 590 749 l 1,55,-1
 438 640 l 1,36,-1
EndSplineSet
EndChar

StartChar: Ntilde
Encoding: 209 209 181
Width: 600
GlyphClass: 2
Flags: W
LayerCount: 2
Fore
SplineSet
501 0 m 1,0,-1
 449 0 l 1,1,-1
 251 504 l 1,2,-1
 153 41 l 1,3,-1
 227 41 l 2,4,5
 251 41 251 41 251 25 c 0,6,7
 251 14 251 14 242 7 c 128,-1,8
 233 0 233 0 219 0 c 2,9,-1
 69 0 l 2,10,11
 46 0 46 0 46 17 c 0,12,13
 46 41 46 41 78 41 c 2,14,-1
 112 41 l 1,15,-1
 214 522 l 1,16,-1
 160 522 l 2,17,18
 137 522 137 522 137 539 c 0,19,20
 137 563 137 563 169 563 c 2,21,-1
 275 563 l 1,22,-1
 473 59 l 1,23,-1
 571 522 l 1,24,-1
 497 522 l 2,25,26
 473 522 473 522 473 538 c 0,27,28
 473 563 473 563 505 563 c 2,29,-1
 655 563 l 2,30,31
 678 563 678 563 678 547 c 0,32,33
 678 522 678 522 646 522 c 2,34,-1
 612 522 l 1,35,-1
 501 0 l 1,0,-1
593 753 m 0,36,37
 600 753 600 753 605 748.5 c 128,-1,38
 610 744 610 744 610 738 c 0,39,40
 610 726 610 726 588 708 c 0,41,42
 540 666 540 666 504 666 c 0,43,44
 475 666 475 666 430 697 c 0,45,46
 406 714 406 714 390 714 c 0,47,48
 375 714 375 714 362.5 707 c 128,-1,49
 350 700 350 700 324 677 c 0,50,51
 316 669 316 669 305 669 c 0,52,53
 289 669 289 669 289 684 c 0,54,55
 289 697 289 697 315 718 c 0,56,57
 363 755 363 755 397 755 c 0,58,59
 423 755 423 755 457 732 c 0,60,61
 497 707 497 707 511 707 c 0,62,63
 531 707 531 707 576 745 c 0,64,65
 585 753 585 753 593 753 c 0,36,37
EndSplineSet
EndChar

StartChar: Odieresis
Encoding: 214 214 182
Width: 600
GlyphClass: 2
Flags: W
LayerCount: 2
Fore
SplineSet
422 576 m 0,0,1
 508 576 508 576 562 515 c 128,-1,2
 616 454 616 454 616 357 c 0,3,4
 616 263 616 263 571 176 c 128,-1,5
 526 89 526 89 451.5 36.5 c 128,-1,6
 377 -16 377 -16 296 -16 c 0,7,8
 210 -16 210 -16 156 45.5 c 128,-1,9
 102 107 102 107 102 207 c 0,10,11
 102 300 102 300 147.5 385.5 c 128,-1,12
 193 471 193 471 267.5 523.5 c 128,-1,13
 342 576 342 576 422 576 c 0,0,1
415 535 m 0,14,15
 312 535 312 535 228 436.5 c 128,-1,16
 144 338 144 338 144 216 c 0,17,18
 144 133 144 133 189 79 c 128,-1,19
 234 25 234 25 302 25 c 0,20,21
 406 25 406 25 490 123.5 c 128,-1,22
 574 222 574 222 574 345 c 0,23,24
 574 427 574 427 529 481 c 128,-1,25
 484 535 484 535 415 535 c 0,14,15
349 762 m 0,26,27
 366 762 366 762 377.5 750.5 c 128,-1,28
 389 739 389 739 389 721 c 0,29,30
 389 698 389 698 369.5 679.5 c 128,-1,31
 350 661 350 661 327 661 c 0,32,33
 311 661 311 661 299.5 673 c 128,-1,34
 288 685 288 685 288 702 c 0,35,36
 288 724 288 724 307.5 743 c 128,-1,37
 327 762 327 762 349 762 c 0,26,27
570 762 m 0,38,39
 587 762 587 762 598.5 750.5 c 128,-1,40
 610 739 610 739 610 721 c 0,41,42
 610 698 610 698 591 679.5 c 128,-1,43
 572 661 572 661 548 661 c 0,44,45
 532 661 532 661 520.5 673 c 128,-1,46
 509 685 509 685 509 702 c 0,47,48
 509 724 509 724 528.5 743 c 128,-1,49
 548 762 548 762 570 762 c 0,38,39
EndSplineSet
EndChar

StartChar: Oacute
Encoding: 211 211 183
Width: 600
GlyphClass: 2
Flags: W
LayerCount: 2
Fore
SplineSet
422 576 m 0,0,1
 508 576 508 576 562 515 c 128,-1,2
 616 454 616 454 616 357 c 0,3,4
 616 263 616 263 571 176 c 128,-1,5
 526 89 526 89 451.5 36.5 c 128,-1,6
 377 -16 377 -16 296 -16 c 0,7,8
 210 -16 210 -16 156 45.5 c 128,-1,9
 102 107 102 107 102 207 c 0,10,11
 102 300 102 300 147.5 385.5 c 128,-1,12
 193 471 193 471 267.5 523.5 c 128,-1,13
 342 576 342 576 422 576 c 0,0,1
415 535 m 0,14,15
 312 535 312 535 228 436.5 c 128,-1,16
 144 338 144 338 144 216 c 0,17,18
 144 133 144 133 189 79 c 128,-1,19
 234 25 234 25 302 25 c 0,20,21
 406 25 406 25 490 123.5 c 128,-1,22
 574 222 574 222 574 345 c 0,23,24
 574 427 574 427 529 481 c 128,-1,25
 484 535 484 535 415 535 c 0,14,15
563 749 m 2,26,-1
 429 649 l 2,27,28
 418 640 418 640 409 640 c 0,29,30
 391 640 391 640 391 657 c 0,31,32
 391 667 391 667 408 680 c 2,33,-1
 543 780 l 2,34,35
 555 789 555 789 564 789 c 0,36,37
 571 789 571 789 575.5 784 c 128,-1,38
 580 779 580 779 580 772 c 0,39,40
 580 762 580 762 563 749 c 2,26,-1
EndSplineSet
EndChar

StartChar: Ograve
Encoding: 210 210 184
Width: 600
GlyphClass: 2
Flags: W
LayerCount: 2
Fore
SplineSet
422 576 m 0,0,1
 508 576 508 576 562 515 c 128,-1,2
 616 454 616 454 616 357 c 0,3,4
 616 263 616 263 571 176 c 128,-1,5
 526 89 526 89 451.5 36.5 c 128,-1,6
 377 -16 377 -16 296 -16 c 0,7,8
 210 -16 210 -16 156 45.5 c 128,-1,9
 102 107 102 107 102 207 c 0,10,11
 102 300 102 300 147.5 385.5 c 128,-1,12
 193 471 193 471 267.5 523.5 c 128,-1,13
 342 576 342 576 422 576 c 0,0,1
415 535 m 0,14,15
 312 535 312 535 228 436.5 c 128,-1,16
 144 338 144 338 144 216 c 0,17,18
 144 133 144 133 189 79 c 128,-1,19
 234 25 234 25 302 25 c 0,20,21
 406 25 406 25 490 123.5 c 128,-1,22
 574 222 574 222 574 345 c 0,23,24
 574 427 574 427 529 481 c 128,-1,25
 484 535 484 535 415 535 c 0,14,15
391 780 m 2,26,-1
 483 680 l 2,27,28
 493 668 493 668 492 666 c 0,29,30
 487 650 487 650 486 650 c 1,31,32
 479 640 479 640 467 640 c 0,33,34
 457 640 457 640 451 649 c 1,35,-1
 358 749 l 2,36,37
 347 760 347 760 349 763 c 1,38,39
 356 789 356 789 374 789 c 0,40,41
 382 789 382 789 391 780 c 2,26,-1
EndSplineSet
EndChar

StartChar: Ocircumflex
Encoding: 212 212 185
Width: 600
GlyphClass: 2
Flags: W
LayerCount: 2
Fore
SplineSet
422 576 m 0,0,1
 508 576 508 576 562 515 c 128,-1,2
 616 454 616 454 616 357 c 0,3,4
 616 263 616 263 571 176 c 128,-1,5
 526 89 526 89 451.5 36.5 c 128,-1,6
 377 -16 377 -16 296 -16 c 0,7,8
 210 -16 210 -16 156 45.5 c 128,-1,9
 102 107 102 107 102 207 c 0,10,11
 102 300 102 300 147.5 385.5 c 128,-1,12
 193 471 193 471 267.5 523.5 c 128,-1,13
 342 576 342 576 422 576 c 0,0,1
415 535 m 0,14,15
 312 535 312 535 228 436.5 c 128,-1,16
 144 338 144 338 144 216 c 0,17,18
 144 133 144 133 189 79 c 128,-1,19
 234 25 234 25 302 25 c 0,20,21
 406 25 406 25 490 123.5 c 128,-1,22
 574 222 574 222 574 345 c 0,23,24
 574 427 574 427 529 481 c 128,-1,25
 484 535 484 535 415 535 c 0,14,15
465 789 m 1,26,-1
 575 680 l 2,27,28
 585 671 585 671 585 664 c 0,29,30
 585 655 585 655 576.5 647.5 c 128,-1,31
 568 640 568 640 558 640 c 0,32,33
 552 640 552 640 544 648 c 2,34,-1
 455 739 l 1,35,-1
 330 648 l 2,36,37
 319 640 319 640 311 640 c 0,38,39
 304 640 304 640 299 644.5 c 128,-1,40
 294 649 294 649 294 656 c 0,41,42
 294 671 294 671 309 678 c 2,43,-1
 313 680 l 1,44,-1
 465 789 l 1,26,-1
EndSplineSet
EndChar

StartChar: Otilde
Encoding: 213 213 186
Width: 600
GlyphClass: 2
Flags: W
LayerCount: 2
Fore
SplineSet
423 576 m 0,0,1
 509 576 509 576 563 515 c 128,-1,2
 617 454 617 454 617 357 c 0,3,4
 617 263 617 263 572 176 c 128,-1,5
 527 89 527 89 452.5 36.5 c 128,-1,6
 378 -16 378 -16 297 -16 c 0,7,8
 211 -16 211 -16 157 45.5 c 128,-1,9
 103 107 103 107 103 207 c 0,10,11
 103 300 103 300 148.5 385.5 c 128,-1,12
 194 471 194 471 268.5 523.5 c 128,-1,13
 343 576 343 576 423 576 c 0,0,1
416 535 m 0,14,15
 313 535 313 535 229 436.5 c 128,-1,16
 145 338 145 338 145 216 c 0,17,18
 145 133 145 133 189.5 79 c 128,-1,19
 234 25 234 25 303 25 c 0,20,21
 407 25 407 25 491 123.5 c 128,-1,22
 575 222 575 222 575 345 c 0,23,24
 575 427 575 427 530 481 c 128,-1,25
 485 535 485 535 416 535 c 0,14,15
601 753 m 0,26,27
 608 753 608 753 613 748.5 c 128,-1,28
 618 744 618 744 618 737 c 0,29,30
 618 726 618 726 596 708 c 0,31,32
 547 666 547 666 512 666 c 0,33,34
 483 666 483 666 438 697 c 0,35,36
 414 714 414 714 398 714 c 0,37,38
 383 714 383 714 370.5 707 c 128,-1,39
 358 700 358 700 332 677 c 0,40,41
 324 669 324 669 313 669 c 0,42,43
 306 669 306 669 301.5 673.5 c 128,-1,44
 297 678 297 678 297 684 c 0,45,46
 297 697 297 697 323 718 c 0,47,48
 370 755 370 755 406 755 c 0,49,50
 430 755 430 755 465 732 c 0,51,52
 504 707 504 707 519 707 c 0,53,54
 539 707 539 707 584 745 c 0,55,56
 593 753 593 753 601 753 c 0,26,27
EndSplineSet
EndChar

StartChar: Ohungarumlaut
Encoding: 336 336 187
Width: 600
GlyphClass: 2
Flags: W
LayerCount: 2
Fore
SplineSet
422 576 m 0,0,1
 508 576 508 576 562 515 c 128,-1,2
 616 454 616 454 616 357 c 0,3,4
 616 263 616 263 571 176 c 128,-1,5
 526 89 526 89 451.5 36.5 c 128,-1,6
 377 -16 377 -16 296 -16 c 0,7,8
 210 -16 210 -16 156 45.5 c 128,-1,9
 102 107 102 107 102 207 c 0,10,11
 102 300 102 300 147.5 385.5 c 128,-1,12
 193 471 193 471 267.5 523.5 c 128,-1,13
 342 576 342 576 422 576 c 0,0,1
415 535 m 0,14,15
 312 535 312 535 228 436.5 c 128,-1,16
 144 338 144 338 144 216 c 0,17,18
 144 133 144 133 189 79 c 128,-1,19
 234 25 234 25 302 25 c 0,20,21
 406 25 406 25 490 123.5 c 128,-1,22
 574 222 574 222 574 345 c 0,23,24
 574 427 574 427 529 481 c 128,-1,25
 484 535 484 535 415 535 c 0,14,15
514 747 m 2,26,-1
 396 649 l 2,27,28
 385 640 385 640 376 640 c 0,29,30
 358 640 358 640 358 657 c 0,31,32
 358 667 358 667 375 680 c 2,33,-1
 493 778 l 1,34,35
 508 787 508 787 512 787 c 0,36,37
 530 787 530 787 530 770 c 0,38,39
 530 760 530 760 514 747 c 2,26,-1
656 747 m 2,40,-1
 538 649 l 2,41,42
 529 640 529 640 518 640 c 0,43,44
 501 640 501 640 501 658 c 0,45,46
 501 667 501 667 513 677 c 2,47,-1
 517 680 l 1,48,-1
 636 778 l 2,49,50
 648 787 648 787 655 787 c 0,51,52
 672 787 672 787 672 770 c 0,53,54
 672 760 672 760 656 747 c 2,40,-1
EndSplineSet
EndChar

StartChar: Racute
Encoding: 340 340 188
Width: 600
GlyphClass: 2
Flags: W
LayerCount: 2
Fore
SplineSet
218 251 m 1,0,-1
 174 41 l 1,1,-1
 248 41 l 2,2,3
 272 41 272 41 272 25 c 0,4,5
 272 14 272 14 263 7 c 128,-1,6
 254 0 254 0 240 0 c 2,7,-1
 70 0 l 2,8,9
 47 0 47 0 47 17 c 0,10,11
 47 41 47 41 79 41 c 2,12,-1
 133 41 l 1,13,-1
 235 522 l 1,14,-1
 181 522 l 2,15,16
 158 522 158 522 158 539 c 0,17,18
 158 563 158 563 189 563 c 2,19,-1
 438 563 l 2,20,21
 501 563 501 563 544 526 c 128,-1,22
 587 489 587 489 587 434 c 0,23,24
 587 318 587 318 414 262 c 1,25,26
 455 229 455 229 478.5 187.5 c 128,-1,27
 502 146 502 146 540 41 c 1,28,-1
 570 41 l 2,29,30
 594 41 594 41 594 25 c 0,31,32
 594 14 594 14 585 7 c 128,-1,33
 576 0 576 0 562 0 c 2,34,-1
 505 0 l 1,35,36
 465 122 465 122 433.5 173.5 c 128,-1,37
 402 225 402 225 351 251 c 1,38,-1
 218 251 l 1,0,-1
227 292 m 1,39,-1
 341 292 l 2,40,41
 421 292 421 292 483 332.5 c 128,-1,42
 545 373 545 373 545 425 c 0,43,44
 545 465 545 465 511 493.5 c 128,-1,45
 477 522 477 522 429 522 c 2,46,-1
 276 522 l 1,47,-1
 227 292 l 1,39,-1
555 749 m 2,48,-1
 421 649 l 2,49,50
 410 640 410 640 401 640 c 0,51,52
 383 640 383 640 383 657 c 0,53,54
 383 667 383 667 400 680 c 2,55,-1
 535 780 l 2,56,57
 547 789 547 789 556 789 c 0,58,59
 563 789 563 789 567.5 784 c 128,-1,60
 572 779 572 779 572 772 c 0,61,62
 572 762 572 762 555 749 c 2,48,-1
EndSplineSet
EndChar

StartChar: Rcaron
Encoding: 344 344 189
Width: 600
GlyphClass: 2
Flags: W
LayerCount: 2
Fore
SplineSet
218 251 m 1,0,-1
 174 41 l 1,1,-1
 248 41 l 2,2,3
 272 41 272 41 272 25 c 0,4,5
 272 14 272 14 263 7 c 128,-1,6
 254 0 254 0 240 0 c 2,7,-1
 70 0 l 2,8,9
 47 0 47 0 47 17 c 0,10,11
 47 41 47 41 79 41 c 2,12,-1
 133 41 l 1,13,-1
 235 522 l 1,14,-1
 181 522 l 2,15,16
 158 522 158 522 158 539 c 0,17,18
 158 563 158 563 189 563 c 2,19,-1
 438 563 l 2,20,21
 501 563 501 563 544 526 c 128,-1,22
 587 489 587 489 587 434 c 0,23,24
 587 318 587 318 414 262 c 1,25,26
 455 229 455 229 478.5 187.5 c 128,-1,27
 502 146 502 146 540 41 c 1,28,-1
 570 41 l 2,29,30
 594 41 594 41 594 25 c 0,31,32
 594 14 594 14 585 7 c 128,-1,33
 576 0 576 0 562 0 c 2,34,-1
 505 0 l 1,35,36
 465 122 465 122 433.5 173.5 c 128,-1,37
 402 225 402 225 351 251 c 1,38,-1
 218 251 l 1,0,-1
227 292 m 1,39,-1
 341 292 l 2,40,41
 421 292 421 292 483 332.5 c 128,-1,42
 545 373 545 373 545 425 c 0,43,44
 545 465 545 465 511 493.5 c 128,-1,45
 477 522 477 522 429 522 c 2,46,-1
 276 522 l 1,47,-1
 227 292 l 1,39,-1
398 640 m 1,48,-1
 288 749 l 1,49,50
 278 754 278 754 278 766 c 0,51,52
 278 773 278 773 285.5 781 c 128,-1,53
 293 789 293 789 300 789 c 2,54,-1
 303 789 l 1,55,-1
 308 789 l 2,56,57
 311 789 311 789 319 781 c 2,58,-1
 408 690 l 1,59,-1
 533 781 l 2,60,61
 545 789 545 789 552 789 c 0,62,63
 568 789 568 789 568 774 c 0,64,65
 568 757 568 757 554 751 c 2,66,-1
 550 749 l 1,67,-1
 398 640 l 1,48,-1
EndSplineSet
EndChar

StartChar: Sacute
Encoding: 346 346 190
Width: 600
GlyphClass: 2
Flags: W
LayerCount: 2
Fore
SplineSet
555 517 m 1,0,-1
 559 536 l 2,1,2
 565 563 565 563 586 563 c 0,3,4
 593 563 593 563 597.5 558.5 c 128,-1,5
 602 554 602 554 602 548 c 0,6,7
 602 543 602 543 600 536 c 2,8,-1
 578 433 l 2,9,10
 573 405 573 405 553 405 c 0,11,12
 544 405 544 405 536 417 c 1,13,-1
 539 459 l 2,14,15
 539 463 539 463 527 481 c 128,-1,16
 515 499 515 499 508 506 c 0,17,18
 495 519 495 519 468.5 527.5 c 128,-1,19
 442 536 442 536 416 536 c 0,20,21
 349 536 349 536 297.5 494.5 c 128,-1,22
 246 453 246 453 246 399 c 0,23,24
 246 365 246 365 272 344 c 0,25,26
 300 322 300 322 378 309 c 0,27,28
 472 293 472 293 505 269 c 0,29,30
 522 256 522 256 533.5 232.5 c 128,-1,31
 545 209 545 209 545 185 c 0,32,33
 545 149 545 149 528 112.5 c 128,-1,34
 511 76 511 76 482 50 c 0,35,36
 448 20 448 20 398 1.5 c 128,-1,37
 348 -17 348 -17 301 -17 c 0,38,39
 193 -17 193 -17 145 56 c 1,40,-1
 139 27 l 2,41,42
 133 0 133 0 112 0 c 0,43,44
 105 0 105 0 100.5 4.5 c 128,-1,45
 96 9 96 9 96 15 c 0,46,47
 96 19 96 19 98 27 c 2,48,-1
 121 139 l 2,49,50
 127 167 127 167 148 167 c 0,51,52
 156 167 156 167 164 155 c 1,53,-1
 160 109 l 2,54,55
 160 104 160 104 176 83 c 128,-1,56
 192 62 192 62 201 55 c 0,57,58
 217 42 217 42 247 33 c 128,-1,59
 277 24 277 24 307 24 c 0,60,61
 384 24 384 24 442 70 c 128,-1,62
 500 116 500 116 500 177 c 0,63,64
 500 214 500 214 470 237 c 0,65,66
 455 249 455 249 434 255.5 c 128,-1,67
 413 262 413 262 361 271 c 0,68,69
 268 287 268 287 234 317 c 0,70,71
 201 345 201 345 201 392 c 0,72,73
 201 465 201 465 267.5 521 c 128,-1,74
 334 577 334 577 420 577 c 0,75,76
 508 577 508 577 555 517 c 1,0,-1
555 749 m 2,77,-1
 421 649 l 2,78,79
 410 640 410 640 401 640 c 0,80,81
 383 640 383 640 383 657 c 0,82,83
 383 667 383 667 400 680 c 2,84,-1
 535 780 l 2,85,86
 547 789 547 789 556 789 c 0,87,88
 563 789 563 789 567.5 784 c 128,-1,89
 572 779 572 779 572 772 c 0,90,91
 572 762 572 762 555 749 c 2,77,-1
EndSplineSet
EndChar

StartChar: Scaron
Encoding: 352 352 191
Width: 600
GlyphClass: 2
Flags: W
LayerCount: 2
Fore
SplineSet
555 517 m 1,0,-1
 559 536 l 2,1,2
 565 563 565 563 586 563 c 0,3,4
 593 563 593 563 597.5 558.5 c 128,-1,5
 602 554 602 554 602 548 c 0,6,7
 602 543 602 543 600 536 c 2,8,-1
 578 433 l 2,9,10
 573 405 573 405 553 405 c 0,11,12
 544 405 544 405 536 417 c 1,13,-1
 539 459 l 2,14,15
 539 463 539 463 527 481 c 128,-1,16
 515 499 515 499 508 506 c 0,17,18
 495 519 495 519 468.5 527.5 c 128,-1,19
 442 536 442 536 416 536 c 0,20,21
 349 536 349 536 297.5 494.5 c 128,-1,22
 246 453 246 453 246 399 c 0,23,24
 246 365 246 365 272 344 c 0,25,26
 300 322 300 322 378 309 c 0,27,28
 472 293 472 293 505 269 c 0,29,30
 522 256 522 256 533.5 232.5 c 128,-1,31
 545 209 545 209 545 185 c 0,32,33
 545 149 545 149 528 112.5 c 128,-1,34
 511 76 511 76 482 50 c 0,35,36
 448 20 448 20 398 1.5 c 128,-1,37
 348 -17 348 -17 301 -17 c 0,38,39
 193 -17 193 -17 145 56 c 1,40,-1
 139 27 l 2,41,42
 133 0 133 0 112 0 c 0,43,44
 105 0 105 0 100.5 4.5 c 128,-1,45
 96 9 96 9 96 15 c 0,46,47
 96 19 96 19 98 27 c 2,48,-1
 121 139 l 2,49,50
 127 167 127 167 148 167 c 0,51,52
 156 167 156 167 164 155 c 1,53,-1
 160 109 l 2,54,55
 160 104 160 104 176 83 c 128,-1,56
 192 62 192 62 201 55 c 0,57,58
 217 42 217 42 247 33 c 128,-1,59
 277 24 277 24 307 24 c 0,60,61
 384 24 384 24 442 70 c 128,-1,62
 500 116 500 116 500 177 c 0,63,64
 500 214 500 214 470 237 c 0,65,66
 455 249 455 249 434 255.5 c 128,-1,67
 413 262 413 262 361 271 c 0,68,69
 268 287 268 287 234 317 c 0,70,71
 201 345 201 345 201 392 c 0,72,73
 201 465 201 465 267.5 521 c 128,-1,74
 334 577 334 577 420 577 c 0,75,76
 508 577 508 577 555 517 c 1,0,-1
448 640 m 1,77,-1
 338 749 l 1,78,79
 328 754 328 754 328 766 c 0,80,81
 328 773 328 773 335.5 781 c 128,-1,82
 343 789 343 789 350 789 c 2,83,-1
 353 789 l 1,84,-1
 358 789 l 2,85,86
 361 789 361 789 369 781 c 2,87,-1
 458 690 l 1,88,-1
 583 781 l 2,89,90
 595 789 595 789 602 789 c 0,91,92
 618 789 618 789 618 774 c 0,93,94
 618 757 618 757 604 751 c 2,95,-1
 600 749 l 1,96,-1
 448 640 l 1,77,-1
EndSplineSet
EndChar

StartChar: Scedilla
Encoding: 350 350 192
Width: 600
GlyphClass: 2
Flags: W
LayerCount: 2
Fore
SplineSet
309 -16 m 1,0,-1
 302 -50 l 1,1,2
 331 -53 331 -53 344 -65.5 c 128,-1,3
 357 -78 357 -78 357 -102 c 0,4,5
 357 -135 357 -135 330 -157 c 128,-1,6
 303 -179 303 -179 262 -179 c 0,7,8
 227 -179 227 -179 198 -162 c 0,9,10
 184 -155 184 -155 184 -141 c 0,11,12
 184 -120 184 -120 207 -120 c 0,13,14
 215 -120 215 -120 220 -123 c 0,15,16
 247 -138 247 -138 272 -138 c 0,17,18
 291 -138 291 -138 304 -129 c 128,-1,19
 317 -120 317 -120 317 -107 c 0,20,21
 317 -84 317 -84 282 -84 c 2,22,-1
 258 -84 l 1,23,-1
 273 -15 l 1,24,25
 180 -4 180 -4 145 56 c 1,26,-1
 139 27 l 2,27,28
 133 0 133 0 112 0 c 0,29,30
 105 0 105 0 100.5 4.5 c 128,-1,31
 96 9 96 9 96 15 c 0,32,33
 96 19 96 19 98 27 c 2,34,-1
 121 139 l 2,35,36
 127 167 127 167 148 167 c 0,37,38
 156 167 156 167 164 155 c 1,39,-1
 160 109 l 2,40,41
 160 104 160 104 176 83 c 128,-1,42
 192 62 192 62 201 55 c 0,43,44
 217 42 217 42 247 33 c 128,-1,45
 277 24 277 24 307 24 c 0,46,47
 384 24 384 24 442 70 c 128,-1,48
 500 116 500 116 500 177 c 0,49,50
 500 214 500 214 470 237 c 0,51,52
 455 249 455 249 434 255.5 c 128,-1,53
 413 262 413 262 361 271 c 0,54,55
 268 287 268 287 234 317 c 0,56,57
 201 345 201 345 201 392 c 0,58,59
 201 465 201 465 267.5 521 c 128,-1,60
 334 577 334 577 420 577 c 0,61,62
 508 577 508 577 555 517 c 1,63,-1
 559 536 l 2,64,65
 565 563 565 563 586 563 c 0,66,67
 593 563 593 563 597.5 558.5 c 128,-1,68
 602 554 602 554 602 548 c 0,69,70
 602 543 602 543 600 536 c 2,71,-1
 578 433 l 2,72,73
 573 405 573 405 553 405 c 0,74,75
 544 405 544 405 536 417 c 1,76,-1
 539 459 l 2,77,78
 539 463 539 463 527 481 c 128,-1,79
 515 499 515 499 508 506 c 0,80,81
 495 519 495 519 468.5 527.5 c 128,-1,82
 442 536 442 536 416 536 c 0,83,84
 349 536 349 536 297.5 494.5 c 128,-1,85
 246 453 246 453 246 399 c 0,86,87
 246 367 246 367 272 344 c 0,88,89
 300 322 300 322 378 309 c 0,90,91
 435 299 435 299 460.5 291 c 128,-1,92
 486 283 486 283 505 269 c 0,93,94
 522 256 522 256 533.5 232.5 c 128,-1,95
 545 209 545 209 545 185 c 0,96,97
 545 105 545 105 477 46.5 c 128,-1,98
 409 -12 409 -12 309 -16 c 1,0,-1
EndSplineSet
EndChar

StartChar: Tcaron
Encoding: 356 356 193
Width: 600
GlyphClass: 2
Flags: W
LayerCount: 2
Fore
SplineSet
330 41 m 1,0,-1
 435 41 l 2,1,2
 458 41 458 41 458 25 c 0,3,4
 458 14 458 14 449 7 c 128,-1,5
 440 0 440 0 426 0 c 2,6,-1
 175 0 l 2,7,8
 152 0 152 0 152 17 c 0,9,10
 152 41 152 41 184 41 c 2,11,-1
 289 41 l 1,12,-1
 391 522 l 1,13,-1
 224 522 l 1,14,-1
 209 449 l 2,15,16
 203 422 203 422 182 422 c 0,17,18
 175 422 175 422 170.5 426.5 c 128,-1,19
 166 431 166 431 166 437 c 2,20,-1
 167 449 l 1,21,-1
 192 563 l 1,22,-1
 648 563 l 1,23,-1
 624 449 l 2,24,25
 618 421 618 421 598 421 c 0,26,27
 593 421 593 421 588 425.5 c 128,-1,28
 583 430 583 430 582 435 c 1,29,30
 582 447 582 447 583 449 c 1,31,-1
 598 522 l 1,32,-1
 432 522 l 1,33,-1
 330 41 l 1,0,-1
398 640 m 1,34,-1
 288 749 l 1,35,36
 278 754 278 754 278 766 c 0,37,38
 278 773 278 773 285.5 781 c 128,-1,39
 293 789 293 789 300 789 c 2,40,-1
 303 789 l 1,41,-1
 308 789 l 2,42,43
 311 789 311 789 319 781 c 2,44,-1
 408 690 l 1,45,-1
 533 781 l 2,46,47
 545 789 545 789 552 789 c 0,48,49
 568 789 568 789 568 774 c 0,50,51
 568 757 568 757 554 751 c 2,52,-1
 550 749 l 1,53,-1
 398 640 l 1,34,-1
EndSplineSet
EndChar

StartChar: Udieresis
Encoding: 220 220 194
Width: 600
GlyphClass: 2
Flags: W
LayerCount: 2
Fore
SplineSet
610 522 m 1,0,-1
 539 185 l 2,1,2
 521 100 521 100 451 42 c 128,-1,3
 381 -16 381 -16 297 -16 c 0,4,5
 225 -16 225 -16 180.5 27 c 128,-1,6
 136 70 136 70 136 140 c 0,7,8
 136 160 136 160 141 185 c 2,9,-1
 212 522 l 1,10,-1
 179 522 l 2,11,12
 155 522 155 522 155 538 c 0,13,14
 155 563 155 563 187 563 c 2,15,-1
 337 563 l 2,16,17
 359 563 359 563 359 547 c 0,18,19
 359 522 359 522 328 522 c 2,20,-1
 253 522 l 1,21,-1
 182 185 l 2,22,23
 178 169 178 169 178 151 c 0,24,25
 178 95 178 95 213.5 60 c 128,-1,26
 249 25 249 25 305 25 c 0,27,28
 372 25 372 25 428 71.5 c 128,-1,29
 484 118 484 118 498 185 c 2,30,-1
 569 522 l 1,31,-1
 495 522 l 2,32,33
 472 522 472 522 472 539 c 0,34,35
 472 563 472 563 504 563 c 2,36,-1
 653 563 l 2,37,38
 676 563 676 563 676 547 c 0,39,40
 676 522 676 522 644 522 c 2,41,-1
 610 522 l 1,0,-1
350 762 m 0,42,43
 367 762 367 762 378.5 750.5 c 128,-1,44
 390 739 390 739 390 721 c 0,45,46
 390 698 390 698 370.5 679.5 c 128,-1,47
 351 661 351 661 328 661 c 0,48,49
 312 661 312 661 300.5 673 c 128,-1,50
 289 685 289 685 289 702 c 0,51,52
 289 724 289 724 308.5 743 c 128,-1,53
 328 762 328 762 350 762 c 0,42,43
571 762 m 0,54,55
 588 762 588 762 599.5 750.5 c 128,-1,56
 611 739 611 739 611 721 c 0,57,58
 611 698 611 698 592 679.5 c 128,-1,59
 573 661 573 661 549 661 c 0,60,61
 533 661 533 661 521.5 673 c 128,-1,62
 510 685 510 685 510 702 c 0,63,64
 510 724 510 724 529.5 743 c 128,-1,65
 549 762 549 762 571 762 c 0,54,55
EndSplineSet
EndChar

StartChar: Uacute
Encoding: 218 218 195
Width: 600
GlyphClass: 2
Flags: W
LayerCount: 2
Fore
SplineSet
610 522 m 1,0,-1
 539 185 l 2,1,2
 521 100 521 100 451 42 c 128,-1,3
 381 -16 381 -16 297 -16 c 0,4,5
 225 -16 225 -16 180.5 27 c 128,-1,6
 136 70 136 70 136 140 c 0,7,8
 136 160 136 160 141 185 c 2,9,-1
 212 522 l 1,10,-1
 179 522 l 2,11,12
 155 522 155 522 155 538 c 0,13,14
 155 563 155 563 187 563 c 2,15,-1
 337 563 l 2,16,17
 359 563 359 563 359 547 c 0,18,19
 359 522 359 522 328 522 c 2,20,-1
 253 522 l 1,21,-1
 182 185 l 2,22,23
 178 169 178 169 178 151 c 0,24,25
 178 95 178 95 213.5 60 c 128,-1,26
 249 25 249 25 305 25 c 0,27,28
 372 25 372 25 428 71.5 c 128,-1,29
 484 118 484 118 498 185 c 2,30,-1
 569 522 l 1,31,-1
 495 522 l 2,32,33
 472 522 472 522 472 539 c 0,34,35
 472 563 472 563 504 563 c 2,36,-1
 653 563 l 2,37,38
 676 563 676 563 676 547 c 0,39,40
 676 522 676 522 644 522 c 2,41,-1
 610 522 l 1,0,-1
560 749 m 2,42,-1
 426 649 l 2,43,44
 415 640 415 640 406 640 c 0,45,46
 388 640 388 640 388 657 c 0,47,48
 388 667 388 667 405 680 c 2,49,-1
 540 780 l 2,50,51
 552 789 552 789 561 789 c 0,52,53
 568 789 568 789 572.5 784 c 128,-1,54
 577 779 577 779 577 772 c 0,55,56
 577 762 577 762 560 749 c 2,42,-1
EndSplineSet
EndChar

StartChar: Ugrave
Encoding: 217 217 196
Width: 600
GlyphClass: 2
Flags: W
LayerCount: 2
Fore
SplineSet
610 522 m 1,0,-1
 539 185 l 2,1,2
 521 100 521 100 451 42 c 128,-1,3
 381 -16 381 -16 297 -16 c 0,4,5
 225 -16 225 -16 180.5 27 c 128,-1,6
 136 70 136 70 136 140 c 0,7,8
 136 160 136 160 141 185 c 2,9,-1
 212 522 l 1,10,-1
 179 522 l 2,11,12
 155 522 155 522 155 538 c 0,13,14
 155 563 155 563 187 563 c 2,15,-1
 337 563 l 2,16,17
 359 563 359 563 359 547 c 0,18,19
 359 522 359 522 328 522 c 2,20,-1
 253 522 l 1,21,-1
 182 185 l 2,22,23
 178 169 178 169 178 151 c 0,24,25
 178 95 178 95 213.5 60 c 128,-1,26
 249 25 249 25 305 25 c 0,27,28
 372 25 372 25 428 71.5 c 128,-1,29
 484 118 484 118 498 185 c 2,30,-1
 569 522 l 1,31,-1
 495 522 l 2,32,33
 472 522 472 522 472 539 c 0,34,35
 472 563 472 563 504 563 c 2,36,-1
 653 563 l 2,37,38
 676 563 676 563 676 547 c 0,39,40
 676 522 676 522 644 522 c 2,41,-1
 610 522 l 1,0,-1
395 780 m 2,42,-1
 487 680 l 2,43,44
 497 668 497 668 496 666 c 0,45,46
 491 650 491 650 490 650 c 1,47,48
 483 640 483 640 471 640 c 0,49,50
 461 640 461 640 455 649 c 1,51,-1
 362 749 l 2,52,53
 351 760 351 760 353 763 c 1,54,55
 360 789 360 789 378 789 c 0,56,57
 386 789 386 789 395 780 c 2,42,-1
EndSplineSet
EndChar

StartChar: Ucircumflex
Encoding: 219 219 197
Width: 600
GlyphClass: 2
Flags: W
LayerCount: 2
Fore
SplineSet
610 522 m 1,0,-1
 539 185 l 2,1,2
 521 100 521 100 451 42 c 128,-1,3
 381 -16 381 -16 297 -16 c 0,4,5
 225 -16 225 -16 180.5 27 c 128,-1,6
 136 70 136 70 136 140 c 0,7,8
 136 160 136 160 141 185 c 2,9,-1
 212 522 l 1,10,-1
 179 522 l 2,11,12
 155 522 155 522 155 538 c 0,13,14
 155 563 155 563 187 563 c 2,15,-1
 337 563 l 2,16,17
 359 563 359 563 359 547 c 0,18,19
 359 522 359 522 328 522 c 2,20,-1
 253 522 l 1,21,-1
 182 185 l 2,22,23
 178 169 178 169 178 151 c 0,24,25
 178 95 178 95 213.5 60 c 128,-1,26
 249 25 249 25 305 25 c 0,27,28
 372 25 372 25 428 71.5 c 128,-1,29
 484 118 484 118 498 185 c 2,30,-1
 569 522 l 1,31,-1
 495 522 l 2,32,33
 472 522 472 522 472 539 c 0,34,35
 472 563 472 563 504 563 c 2,36,-1
 653 563 l 2,37,38
 676 563 676 563 676 547 c 0,39,40
 676 522 676 522 644 522 c 2,41,-1
 610 522 l 1,0,-1
466 789 m 1,42,-1
 576 680 l 2,43,44
 586 671 586 671 586 664 c 0,45,46
 586 655 586 655 577.5 647.5 c 128,-1,47
 569 640 569 640 559 640 c 0,48,49
 553 640 553 640 545 648 c 2,50,-1
 456 739 l 1,51,-1
 331 648 l 2,52,53
 320 640 320 640 312 640 c 0,54,55
 305 640 305 640 300 644.5 c 128,-1,56
 295 649 295 649 295 656 c 0,57,58
 295 671 295 671 310 678 c 2,59,-1
 314 680 l 1,60,-1
 466 789 l 1,42,-1
EndSplineSet
EndChar

StartChar: Uring
Encoding: 366 366 198
Width: 600
GlyphClass: 2
Flags: W
LayerCount: 2
Fore
SplineSet
610 522 m 1,0,-1
 539 185 l 2,1,2
 521 100 521 100 451 42 c 128,-1,3
 381 -16 381 -16 297 -16 c 0,4,5
 225 -16 225 -16 180.5 27 c 128,-1,6
 136 70 136 70 136 140 c 0,7,8
 136 160 136 160 141 185 c 2,9,-1
 212 522 l 1,10,-1
 179 522 l 2,11,12
 155 522 155 522 155 538 c 0,13,14
 155 563 155 563 187 563 c 2,15,-1
 337 563 l 2,16,17
 359 563 359 563 359 547 c 0,18,19
 359 522 359 522 328 522 c 2,20,-1
 253 522 l 1,21,-1
 182 185 l 2,22,23
 178 169 178 169 178 151 c 0,24,25
 178 95 178 95 213.5 60 c 128,-1,26
 249 25 249 25 305 25 c 0,27,28
 372 25 372 25 428 71.5 c 128,-1,29
 484 118 484 118 498 185 c 2,30,-1
 569 522 l 1,31,-1
 495 522 l 2,32,33
 472 522 472 522 472 539 c 0,34,35
 472 563 472 563 504 563 c 2,36,-1
 653 563 l 2,37,38
 676 563 676 563 676 547 c 0,39,40
 676 522 676 522 644 522 c 2,41,-1
 610 522 l 1,0,-1
474 807 m 0,42,43
 505 807 505 807 526.5 786 c 128,-1,44
 548 765 548 765 548 734 c 0,45,46
 548 693 548 693 512.5 659.5 c 128,-1,47
 477 626 477 626 433 626 c 0,48,49
 401 626 401 626 380 647 c 128,-1,50
 359 668 359 668 359 699 c 0,51,52
 359 741 359 741 394.5 774 c 128,-1,53
 430 807 430 807 474 807 c 0,42,43
467 777 m 0,54,55
 435 777 435 777 412 754.5 c 128,-1,56
 389 732 389 732 389 701 c 0,57,58
 389 683 389 683 403.5 669.5 c 128,-1,59
 418 656 418 656 438 656 c 0,60,61
 470 656 470 656 494 679 c 128,-1,62
 518 702 518 702 518 732 c 0,63,64
 518 752 518 752 503.5 764.5 c 128,-1,65
 489 777 489 777 467 777 c 0,54,55
EndSplineSet
EndChar

StartChar: Uhungarumlaut
Encoding: 368 368 199
Width: 600
GlyphClass: 2
Flags: W
LayerCount: 2
Fore
SplineSet
610 522 m 1,0,-1
 539 185 l 2,1,2
 521 100 521 100 451 42 c 128,-1,3
 381 -16 381 -16 297 -16 c 0,4,5
 225 -16 225 -16 180.5 27 c 128,-1,6
 136 70 136 70 136 140 c 0,7,8
 136 160 136 160 141 185 c 2,9,-1
 212 522 l 1,10,-1
 179 522 l 2,11,12
 155 522 155 522 155 538 c 0,13,14
 155 563 155 563 187 563 c 2,15,-1
 337 563 l 2,16,17
 359 563 359 563 359 547 c 0,18,19
 359 522 359 522 328 522 c 2,20,-1
 253 522 l 1,21,-1
 182 185 l 2,22,23
 178 169 178 169 178 151 c 0,24,25
 178 95 178 95 213.5 60 c 128,-1,26
 249 25 249 25 305 25 c 0,27,28
 372 25 372 25 428 71.5 c 128,-1,29
 484 118 484 118 498 185 c 2,30,-1
 569 522 l 1,31,-1
 495 522 l 2,32,33
 472 522 472 522 472 539 c 0,34,35
 472 563 472 563 504 563 c 2,36,-1
 653 563 l 2,37,38
 676 563 676 563 676 547 c 0,39,40
 676 522 676 522 644 522 c 2,41,-1
 610 522 l 1,0,-1
474 747 m 2,42,-1
 356 649 l 2,43,44
 345 640 345 640 336 640 c 0,45,46
 318 640 318 640 318 657 c 0,47,48
 318 667 318 667 335 680 c 2,49,-1
 453 778 l 1,50,51
 468 787 468 787 472 787 c 0,52,53
 490 787 490 787 490 770 c 0,54,55
 490 760 490 760 474 747 c 2,42,-1
616 747 m 2,56,-1
 498 649 l 2,57,58
 489 640 489 640 478 640 c 0,59,60
 461 640 461 640 461 658 c 0,61,62
 461 667 461 667 473 677 c 2,63,-1
 477 680 l 1,64,-1
 596 778 l 2,65,66
 608 787 608 787 615 787 c 0,67,68
 632 787 632 787 632 770 c 0,69,70
 632 760 632 760 616 747 c 2,56,-1
EndSplineSet
EndChar

StartChar: Yacute
Encoding: 221 221 200
Width: 600
GlyphClass: 2
Flags: W
LayerCount: 2
Fore
SplineSet
376 254 m 1,0,-1
 331 41 l 1,1,-1
 436 41 l 2,2,3
 459 41 459 41 459 25 c 0,4,5
 459 0 459 0 427 0 c 2,6,-1
 176 0 l 2,7,8
 153 0 153 0 153 16 c 0,9,10
 153 41 153 41 185 41 c 2,11,-1
 290 41 l 1,12,-1
 335 254 l 1,13,-1
 213 522 l 1,14,-1
 189 522 l 2,15,16
 166 522 166 522 166 538 c 0,17,18
 166 563 166 563 198 563 c 2,19,-1
 309 563 l 2,20,21
 332 563 332 563 332 547 c 0,22,23
 332 522 332 522 300 522 c 2,24,-1
 262 522 l 1,25,-1
 366 295 l 1,26,-1
 564 522 l 1,27,-1
 523 522 l 2,28,29
 499 522 499 522 499 538 c 0,30,31
 499 563 499 563 532 563 c 2,32,-1
 642 563 l 2,33,34
 665 563 665 563 665 546 c 0,35,36
 665 535 665 535 656 528.5 c 128,-1,37
 647 522 647 522 633 522 c 2,38,-1
 610 522 l 1,39,-1
 376 254 l 1,0,-1
560 749 m 2,40,-1
 426 649 l 2,41,42
 415 640 415 640 406 640 c 0,43,44
 388 640 388 640 388 657 c 0,45,46
 388 667 388 667 405 680 c 2,47,-1
 540 780 l 2,48,49
 552 789 552 789 561 789 c 0,50,51
 568 789 568 789 572.5 784 c 128,-1,52
 577 779 577 779 577 772 c 0,53,54
 577 762 577 762 560 749 c 2,40,-1
EndSplineSet
EndChar

StartChar: Zacute
Encoding: 377 377 201
Width: 600
GlyphClass: 2
Flags: W
LayerCount: 2
Fore
SplineSet
497 0 m 1,0,-1
 103 0 l 1,1,-1
 116 59 l 1,2,-1
 541 519 l 1,3,-1
 542 522 l 1,4,-1
 273 522 l 1,5,-1
 248 404 l 2,6,7
 242 376 242 376 221 376 c 0,8,9
 205 376 205 376 205 392 c 0,10,11
 205 396 205 396 207 404 c 2,12,-1
 241 563 l 1,13,-1
 590 563 l 1,14,-1
 578 505 l 1,15,-1
 151 45 l 1,16,-1
 150 41 l 1,17,-1
 465 41 l 1,18,-1
 495 182 l 2,19,20
 501 209 501 209 521 209 c 0,21,22
 538 209 538 209 538 194 c 0,23,24
 538 189 538 189 537 186 c 2,25,-1
 536 182 l 1,26,-1
 497 0 l 1,0,-1
555 749 m 2,27,-1
 421 649 l 2,28,29
 410 640 410 640 401 640 c 0,30,31
 383 640 383 640 383 657 c 0,32,33
 383 667 383 667 400 680 c 2,34,-1
 535 780 l 2,35,36
 547 789 547 789 556 789 c 0,37,38
 563 789 563 789 567.5 784 c 128,-1,39
 572 779 572 779 572 772 c 0,40,41
 572 762 572 762 555 749 c 2,27,-1
EndSplineSet
EndChar

StartChar: Zcaron
Encoding: 381 381 202
Width: 600
GlyphClass: 2
Flags: W
LayerCount: 2
Fore
SplineSet
497 0 m 1,0,-1
 103 0 l 1,1,-1
 116 59 l 1,2,-1
 541 519 l 1,3,-1
 542 522 l 1,4,-1
 273 522 l 1,5,-1
 248 404 l 2,6,7
 242 376 242 376 221 376 c 0,8,9
 205 376 205 376 205 392 c 0,10,11
 205 396 205 396 207 404 c 2,12,-1
 241 563 l 1,13,-1
 590 563 l 1,14,-1
 578 505 l 1,15,-1
 151 45 l 1,16,-1
 150 41 l 1,17,-1
 465 41 l 1,18,-1
 495 182 l 2,19,20
 501 209 501 209 521 209 c 0,21,22
 538 209 538 209 538 194 c 0,23,24
 538 189 538 189 537 186 c 2,25,-1
 536 182 l 1,26,-1
 497 0 l 1,0,-1
434 640 m 1,27,-1
 324 749 l 1,28,29
 314 754 314 754 314 766 c 0,30,31
 314 773 314 773 321.5 781 c 128,-1,32
 329 789 329 789 336 789 c 2,33,-1
 339 789 l 1,34,-1
 344 789 l 2,35,36
 347 789 347 789 355 781 c 2,37,-1
 444 690 l 1,38,-1
 569 781 l 2,39,40
 581 789 581 789 588 789 c 0,41,42
 604 789 604 789 604 774 c 0,43,44
 604 757 604 757 590 751 c 2,45,-1
 586 749 l 1,46,-1
 434 640 l 1,27,-1
EndSplineSet
EndChar

